<?xml version="1.0" encoding="utf-8" standalone="no"?>
<!DOCTYPE svg PUBLIC "-//W3C//DTD SVG 1.1//EN"
  "http://www.w3.org/Graphics/SVG/1.1/DTD/svg11.dtd">
<svg xmlns:xlink="http://www.w3.org/1999/xlink" width="302.65125pt" height="164.892375pt" viewBox="0 0 302.65125 164.892375" xmlns="http://www.w3.org/2000/svg" version="1.1">
 <metadata>
  <rdf:RDF xmlns:dc="http://purl.org/dc/elements/1.1/" xmlns:cc="http://creativecommons.org/ns#" xmlns:rdf="http://www.w3.org/1999/02/22-rdf-syntax-ns#">
   <cc:Work>
    <dc:type rdf:resource="http://purl.org/dc/dcmitype/StillImage"/>
    <dc:date>2023-02-09T18:58:44.271104</dc:date>
    <dc:format>image/svg+xml</dc:format>
    <dc:creator>
     <cc:Agent>
      <dc:title>Matplotlib v3.5.2, https://matplotlib.org/</dc:title>
     </cc:Agent>
    </dc:creator>
   </cc:Work>
  </rdf:RDF>
 </metadata>
 <defs>
  <style type="text/css">*{stroke-linejoin: round; stroke-linecap: butt}</style>
 </defs>
 <g id="figure_1">
  <g id="patch_1">
   <path d="M 0 164.892375 
L 302.65125 164.892375 
L 302.65125 -0 
L 0 -0 
L 0 164.892375 
z
" style="fill: none"/>
  </g>
  <g id="axes_1">
   <g id="patch_2">
    <path d="M 43.7425 132.207375 
L 199.9825 132.207375 
L 199.9825 10.239375 
L 43.7425 10.239375 
L 43.7425 132.207375 
z
" style="fill: none"/>
   </g>
   <g id="matplotlib.axis_1">
    <g id="xtick_1">
     <g id="line2d_1">
      <defs>
       <path id="m4cd371f86f" d="M 0 0 
L 0 2.5 
" style="stroke: #000000; stroke-width: 0.6"/>
      </defs>
      <g>
       <use xlink:href="#m4cd371f86f" x="43.7425" y="132.207375" style="stroke: #000000; stroke-width: 0.6"/>
      </g>
     </g>
     <g id="text_1">
      <!-- 0 -->
      <g transform="translate(41.1975 144.286125)scale(0.08 -0.08)">
       <defs>
        <path id="DejaVuSans-30" d="M 2034 4250 
Q 1547 4250 1301 3770 
Q 1056 3291 1056 2328 
Q 1056 1369 1301 889 
Q 1547 409 2034 409 
Q 2525 409 2770 889 
Q 3016 1369 3016 2328 
Q 3016 3291 2770 3770 
Q 2525 4250 2034 4250 
z
M 2034 4750 
Q 2819 4750 3233 4129 
Q 3647 3509 3647 2328 
Q 3647 1150 3233 529 
Q 2819 -91 2034 -91 
Q 1250 -91 836 529 
Q 422 1150 422 2328 
Q 422 3509 836 4129 
Q 1250 4750 2034 4750 
z
" transform="scale(0.015625)"/>
       </defs>
       <use xlink:href="#DejaVuSans-30"/>
      </g>
     </g>
    </g>
    <g id="xtick_2">
     <g id="line2d_2">
      <g>
       <use xlink:href="#m4cd371f86f" x="74.9905" y="132.207375" style="stroke: #000000; stroke-width: 0.6"/>
      </g>
     </g>
     <g id="text_2">
      <!-- 100 -->
      <g transform="translate(67.3555 144.286125)scale(0.08 -0.08)">
       <defs>
        <path id="DejaVuSans-31" d="M 794 531 
L 1825 531 
L 1825 4091 
L 703 3866 
L 703 4441 
L 1819 4666 
L 2450 4666 
L 2450 531 
L 3481 531 
L 3481 0 
L 794 0 
L 794 531 
z
" transform="scale(0.015625)"/>
       </defs>
       <use xlink:href="#DejaVuSans-31"/>
       <use xlink:href="#DejaVuSans-30" x="63.623047"/>
       <use xlink:href="#DejaVuSans-30" x="127.246094"/>
      </g>
     </g>
    </g>
    <g id="xtick_3">
     <g id="line2d_3">
      <g>
       <use xlink:href="#m4cd371f86f" x="106.2385" y="132.207375" style="stroke: #000000; stroke-width: 0.6"/>
      </g>
     </g>
     <g id="text_3">
      <!-- 200 -->
      <g transform="translate(98.6035 144.286125)scale(0.08 -0.08)">
       <defs>
        <path id="DejaVuSans-32" d="M 1228 531 
L 3431 531 
L 3431 0 
L 469 0 
L 469 531 
Q 828 903 1448 1529 
Q 2069 2156 2228 2338 
Q 2531 2678 2651 2914 
Q 2772 3150 2772 3378 
Q 2772 3750 2511 3984 
Q 2250 4219 1831 4219 
Q 1534 4219 1204 4116 
Q 875 4013 500 3803 
L 500 4441 
Q 881 4594 1212 4672 
Q 1544 4750 1819 4750 
Q 2544 4750 2975 4387 
Q 3406 4025 3406 3419 
Q 3406 3131 3298 2873 
Q 3191 2616 2906 2266 
Q 2828 2175 2409 1742 
Q 1991 1309 1228 531 
z
" transform="scale(0.015625)"/>
       </defs>
       <use xlink:href="#DejaVuSans-32"/>
       <use xlink:href="#DejaVuSans-30" x="63.623047"/>
       <use xlink:href="#DejaVuSans-30" x="127.246094"/>
      </g>
     </g>
    </g>
    <g id="xtick_4">
     <g id="line2d_4">
      <g>
       <use xlink:href="#m4cd371f86f" x="137.4865" y="132.207375" style="stroke: #000000; stroke-width: 0.6"/>
      </g>
     </g>
     <g id="text_4">
      <!-- 300 -->
      <g transform="translate(129.8515 144.286125)scale(0.08 -0.08)">
       <defs>
        <path id="DejaVuSans-33" d="M 2597 2516 
Q 3050 2419 3304 2112 
Q 3559 1806 3559 1356 
Q 3559 666 3084 287 
Q 2609 -91 1734 -91 
Q 1441 -91 1130 -33 
Q 819 25 488 141 
L 488 750 
Q 750 597 1062 519 
Q 1375 441 1716 441 
Q 2309 441 2620 675 
Q 2931 909 2931 1356 
Q 2931 1769 2642 2001 
Q 2353 2234 1838 2234 
L 1294 2234 
L 1294 2753 
L 1863 2753 
Q 2328 2753 2575 2939 
Q 2822 3125 2822 3475 
Q 2822 3834 2567 4026 
Q 2313 4219 1838 4219 
Q 1578 4219 1281 4162 
Q 984 4106 628 3988 
L 628 4550 
Q 988 4650 1302 4700 
Q 1616 4750 1894 4750 
Q 2613 4750 3031 4423 
Q 3450 4097 3450 3541 
Q 3450 3153 3228 2886 
Q 3006 2619 2597 2516 
z
" transform="scale(0.015625)"/>
       </defs>
       <use xlink:href="#DejaVuSans-33"/>
       <use xlink:href="#DejaVuSans-30" x="63.623047"/>
       <use xlink:href="#DejaVuSans-30" x="127.246094"/>
      </g>
     </g>
    </g>
    <g id="xtick_5">
     <g id="line2d_5">
      <g>
       <use xlink:href="#m4cd371f86f" x="168.7345" y="132.207375" style="stroke: #000000; stroke-width: 0.6"/>
      </g>
     </g>
     <g id="text_5">
      <!-- 400 -->
      <g transform="translate(161.0995 144.286125)scale(0.08 -0.08)">
       <defs>
        <path id="DejaVuSans-34" d="M 2419 4116 
L 825 1625 
L 2419 1625 
L 2419 4116 
z
M 2253 4666 
L 3047 4666 
L 3047 1625 
L 3713 1625 
L 3713 1100 
L 3047 1100 
L 3047 0 
L 2419 0 
L 2419 1100 
L 313 1100 
L 313 1709 
L 2253 4666 
z
" transform="scale(0.015625)"/>
       </defs>
       <use xlink:href="#DejaVuSans-34"/>
       <use xlink:href="#DejaVuSans-30" x="63.623047"/>
       <use xlink:href="#DejaVuSans-30" x="127.246094"/>
      </g>
     </g>
    </g>
    <g id="xtick_6">
     <g id="line2d_6">
      <g>
       <use xlink:href="#m4cd371f86f" x="199.9825" y="132.207375" style="stroke: #000000; stroke-width: 0.6"/>
      </g>
     </g>
     <g id="text_6">
      <!-- 500 -->
      <g transform="translate(192.3475 144.286125)scale(0.08 -0.08)">
       <defs>
        <path id="DejaVuSans-35" d="M 691 4666 
L 3169 4666 
L 3169 4134 
L 1269 4134 
L 1269 2991 
Q 1406 3038 1543 3061 
Q 1681 3084 1819 3084 
Q 2600 3084 3056 2656 
Q 3513 2228 3513 1497 
Q 3513 744 3044 326 
Q 2575 -91 1722 -91 
Q 1428 -91 1123 -41 
Q 819 9 494 109 
L 494 744 
Q 775 591 1075 516 
Q 1375 441 1709 441 
Q 2250 441 2565 725 
Q 2881 1009 2881 1497 
Q 2881 1984 2565 2268 
Q 2250 2553 1709 2553 
Q 1456 2553 1204 2497 
Q 953 2441 691 2322 
L 691 4666 
z
" transform="scale(0.015625)"/>
       </defs>
       <use xlink:href="#DejaVuSans-35"/>
       <use xlink:href="#DejaVuSans-30" x="63.623047"/>
       <use xlink:href="#DejaVuSans-30" x="127.246094"/>
      </g>
     </g>
    </g>
    <g id="text_7">
     <!-- epoch -->
     <g transform="translate(109.68 156.028625)scale(0.08 -0.08)">
      <defs>
       <path id="DejaVuSans-65" d="M 3597 1894 
L 3597 1613 
L 953 1613 
Q 991 1019 1311 708 
Q 1631 397 2203 397 
Q 2534 397 2845 478 
Q 3156 559 3463 722 
L 3463 178 
Q 3153 47 2828 -22 
Q 2503 -91 2169 -91 
Q 1331 -91 842 396 
Q 353 884 353 1716 
Q 353 2575 817 3079 
Q 1281 3584 2069 3584 
Q 2775 3584 3186 3129 
Q 3597 2675 3597 1894 
z
M 3022 2063 
Q 3016 2534 2758 2815 
Q 2500 3097 2075 3097 
Q 1594 3097 1305 2825 
Q 1016 2553 972 2059 
L 3022 2063 
z
" transform="scale(0.015625)"/>
       <path id="DejaVuSans-70" d="M 1159 525 
L 1159 -1331 
L 581 -1331 
L 581 3500 
L 1159 3500 
L 1159 2969 
Q 1341 3281 1617 3432 
Q 1894 3584 2278 3584 
Q 2916 3584 3314 3078 
Q 3713 2572 3713 1747 
Q 3713 922 3314 415 
Q 2916 -91 2278 -91 
Q 1894 -91 1617 61 
Q 1341 213 1159 525 
z
M 3116 1747 
Q 3116 2381 2855 2742 
Q 2594 3103 2138 3103 
Q 1681 3103 1420 2742 
Q 1159 2381 1159 1747 
Q 1159 1113 1420 752 
Q 1681 391 2138 391 
Q 2594 391 2855 752 
Q 3116 1113 3116 1747 
z
" transform="scale(0.015625)"/>
       <path id="DejaVuSans-6f" d="M 1959 3097 
Q 1497 3097 1228 2736 
Q 959 2375 959 1747 
Q 959 1119 1226 758 
Q 1494 397 1959 397 
Q 2419 397 2687 759 
Q 2956 1122 2956 1747 
Q 2956 2369 2687 2733 
Q 2419 3097 1959 3097 
z
M 1959 3584 
Q 2709 3584 3137 3096 
Q 3566 2609 3566 1747 
Q 3566 888 3137 398 
Q 2709 -91 1959 -91 
Q 1206 -91 779 398 
Q 353 888 353 1747 
Q 353 2609 779 3096 
Q 1206 3584 1959 3584 
z
" transform="scale(0.015625)"/>
       <path id="DejaVuSans-63" d="M 3122 3366 
L 3122 2828 
Q 2878 2963 2633 3030 
Q 2388 3097 2138 3097 
Q 1578 3097 1268 2742 
Q 959 2388 959 1747 
Q 959 1106 1268 751 
Q 1578 397 2138 397 
Q 2388 397 2633 464 
Q 2878 531 3122 666 
L 3122 134 
Q 2881 22 2623 -34 
Q 2366 -91 2075 -91 
Q 1284 -91 818 406 
Q 353 903 353 1747 
Q 353 2603 823 3093 
Q 1294 3584 2113 3584 
Q 2378 3584 2631 3529 
Q 2884 3475 3122 3366 
z
" transform="scale(0.015625)"/>
       <path id="DejaVuSans-68" d="M 3513 2113 
L 3513 0 
L 2938 0 
L 2938 2094 
Q 2938 2591 2744 2837 
Q 2550 3084 2163 3084 
Q 1697 3084 1428 2787 
Q 1159 2491 1159 1978 
L 1159 0 
L 581 0 
L 581 4863 
L 1159 4863 
L 1159 2956 
Q 1366 3272 1645 3428 
Q 1925 3584 2291 3584 
Q 2894 3584 3203 3211 
Q 3513 2838 3513 2113 
z
" transform="scale(0.015625)"/>
      </defs>
      <use xlink:href="#DejaVuSans-65"/>
      <use xlink:href="#DejaVuSans-70" x="61.523438"/>
      <use xlink:href="#DejaVuSans-6f" x="125"/>
      <use xlink:href="#DejaVuSans-63" x="186.181641"/>
      <use xlink:href="#DejaVuSans-68" x="241.162109"/>
     </g>
    </g>
   </g>
   <g id="matplotlib.axis_2">
    <g id="ytick_1">
     <g id="line2d_7">
      <defs>
       <path id="m56f3a9ced1" d="M 0 0 
L -2.5 0 
" style="stroke: #000000; stroke-width: 0.6"/>
      </defs>
      <g>
       <use xlink:href="#m56f3a9ced1" x="43.7425" y="132.207375" style="stroke: #000000; stroke-width: 0.6"/>
      </g>
     </g>
     <g id="text_8">
      <!-- $\mathdefault{10^{-1}}$ -->
      <g transform="translate(18.9425 135.24675)scale(0.08 -0.08)">
       <defs>
        <path id="DejaVuSans-2212" d="M 678 2272 
L 4684 2272 
L 4684 1741 
L 678 1741 
L 678 2272 
z
" transform="scale(0.015625)"/>
       </defs>
       <use xlink:href="#DejaVuSans-31" transform="translate(0 0.684375)"/>
       <use xlink:href="#DejaVuSans-30" transform="translate(63.623047 0.684375)"/>
       <use xlink:href="#DejaVuSans-2212" transform="translate(128.203125 38.965625)scale(0.7)"/>
       <use xlink:href="#DejaVuSans-31" transform="translate(186.855469 38.965625)scale(0.7)"/>
      </g>
     </g>
    </g>
    <g id="ytick_2">
     <g id="line2d_8">
      <g>
       <use xlink:href="#m56f3a9ced1" x="43.7425" y="91.551375" style="stroke: #000000; stroke-width: 0.6"/>
      </g>
     </g>
     <g id="text_9">
      <!-- $\mathdefault{10^{0}}$ -->
      <g transform="translate(23.6625 94.59075)scale(0.08 -0.08)">
       <use xlink:href="#DejaVuSans-31" transform="translate(0 0.765625)"/>
       <use xlink:href="#DejaVuSans-30" transform="translate(63.623047 0.765625)"/>
       <use xlink:href="#DejaVuSans-30" transform="translate(128.203125 39.046875)scale(0.7)"/>
      </g>
     </g>
    </g>
    <g id="ytick_3">
     <g id="line2d_9">
      <g>
       <use xlink:href="#m56f3a9ced1" x="43.7425" y="50.895375" style="stroke: #000000; stroke-width: 0.6"/>
      </g>
     </g>
     <g id="text_10">
      <!-- $\mathdefault{10^{1}}$ -->
      <g transform="translate(23.6625 53.93475)scale(0.08 -0.08)">
       <use xlink:href="#DejaVuSans-31" transform="translate(0 0.684375)"/>
       <use xlink:href="#DejaVuSans-30" transform="translate(63.623047 0.684375)"/>
       <use xlink:href="#DejaVuSans-31" transform="translate(128.203125 38.965625)scale(0.7)"/>
      </g>
     </g>
    </g>
    <g id="ytick_4">
     <g id="line2d_10">
      <g>
       <use xlink:href="#m56f3a9ced1" x="43.7425" y="10.239375" style="stroke: #000000; stroke-width: 0.6"/>
      </g>
     </g>
     <g id="text_11">
      <!-- $\mathdefault{10^{2}}$ -->
      <g transform="translate(23.6625 13.27875)scale(0.08 -0.08)">
       <use xlink:href="#DejaVuSans-31" transform="translate(0 0.765625)"/>
       <use xlink:href="#DejaVuSans-30" transform="translate(63.623047 0.765625)"/>
       <use xlink:href="#DejaVuSans-32" transform="translate(128.203125 39.046875)scale(0.7)"/>
      </g>
     </g>
    </g>
    <g id="ytick_5">
     <g id="line2d_11">
      <defs>
       <path id="mf6152e7c63" d="M 0 0 
L -1.5 0 
" style="stroke: #000000; stroke-width: 0.4"/>
      </defs>
      <g>
       <use xlink:href="#mf6152e7c63" x="43.7425" y="119.968699" style="stroke: #000000; stroke-width: 0.4"/>
      </g>
     </g>
    </g>
    <g id="ytick_6">
     <g id="line2d_12">
      <g>
       <use xlink:href="#mf6152e7c63" x="43.7425" y="112.809533" style="stroke: #000000; stroke-width: 0.4"/>
      </g>
     </g>
    </g>
    <g id="ytick_7">
     <g id="line2d_13">
      <g>
       <use xlink:href="#mf6152e7c63" x="43.7425" y="107.730024" style="stroke: #000000; stroke-width: 0.4"/>
      </g>
     </g>
    </g>
    <g id="ytick_8">
     <g id="line2d_14">
      <g>
       <use xlink:href="#mf6152e7c63" x="43.7425" y="103.790051" style="stroke: #000000; stroke-width: 0.4"/>
      </g>
     </g>
    </g>
    <g id="ytick_9">
     <g id="line2d_15">
      <g>
       <use xlink:href="#mf6152e7c63" x="43.7425" y="100.570858" style="stroke: #000000; stroke-width: 0.4"/>
      </g>
     </g>
    </g>
    <g id="ytick_10">
     <g id="line2d_16">
      <g>
       <use xlink:href="#mf6152e7c63" x="43.7425" y="97.849069" style="stroke: #000000; stroke-width: 0.4"/>
      </g>
     </g>
    </g>
    <g id="ytick_11">
     <g id="line2d_17">
      <g>
       <use xlink:href="#mf6152e7c63" x="43.7425" y="95.491348" style="stroke: #000000; stroke-width: 0.4"/>
      </g>
     </g>
    </g>
    <g id="ytick_12">
     <g id="line2d_18">
      <g>
       <use xlink:href="#mf6152e7c63" x="43.7425" y="93.411692" style="stroke: #000000; stroke-width: 0.4"/>
      </g>
     </g>
    </g>
    <g id="ytick_13">
     <g id="line2d_19">
      <g>
       <use xlink:href="#mf6152e7c63" x="43.7425" y="79.312699" style="stroke: #000000; stroke-width: 0.4"/>
      </g>
     </g>
    </g>
    <g id="ytick_14">
     <g id="line2d_20">
      <g>
       <use xlink:href="#mf6152e7c63" x="43.7425" y="72.153533" style="stroke: #000000; stroke-width: 0.4"/>
      </g>
     </g>
    </g>
    <g id="ytick_15">
     <g id="line2d_21">
      <g>
       <use xlink:href="#mf6152e7c63" x="43.7425" y="67.074024" style="stroke: #000000; stroke-width: 0.4"/>
      </g>
     </g>
    </g>
    <g id="ytick_16">
     <g id="line2d_22">
      <g>
       <use xlink:href="#mf6152e7c63" x="43.7425" y="63.134051" style="stroke: #000000; stroke-width: 0.4"/>
      </g>
     </g>
    </g>
    <g id="ytick_17">
     <g id="line2d_23">
      <g>
       <use xlink:href="#mf6152e7c63" x="43.7425" y="59.914858" style="stroke: #000000; stroke-width: 0.4"/>
      </g>
     </g>
    </g>
    <g id="ytick_18">
     <g id="line2d_24">
      <g>
       <use xlink:href="#mf6152e7c63" x="43.7425" y="57.193069" style="stroke: #000000; stroke-width: 0.4"/>
      </g>
     </g>
    </g>
    <g id="ytick_19">
     <g id="line2d_25">
      <g>
       <use xlink:href="#mf6152e7c63" x="43.7425" y="54.835348" style="stroke: #000000; stroke-width: 0.4"/>
      </g>
     </g>
    </g>
    <g id="ytick_20">
     <g id="line2d_26">
      <g>
       <use xlink:href="#mf6152e7c63" x="43.7425" y="52.755692" style="stroke: #000000; stroke-width: 0.4"/>
      </g>
     </g>
    </g>
    <g id="ytick_21">
     <g id="line2d_27">
      <g>
       <use xlink:href="#mf6152e7c63" x="43.7425" y="38.656699" style="stroke: #000000; stroke-width: 0.4"/>
      </g>
     </g>
    </g>
    <g id="ytick_22">
     <g id="line2d_28">
      <g>
       <use xlink:href="#mf6152e7c63" x="43.7425" y="31.497533" style="stroke: #000000; stroke-width: 0.4"/>
      </g>
     </g>
    </g>
    <g id="ytick_23">
     <g id="line2d_29">
      <g>
       <use xlink:href="#mf6152e7c63" x="43.7425" y="26.418024" style="stroke: #000000; stroke-width: 0.4"/>
      </g>
     </g>
    </g>
    <g id="ytick_24">
     <g id="line2d_30">
      <g>
       <use xlink:href="#mf6152e7c63" x="43.7425" y="22.478051" style="stroke: #000000; stroke-width: 0.4"/>
      </g>
     </g>
    </g>
    <g id="ytick_25">
     <g id="line2d_31">
      <g>
       <use xlink:href="#mf6152e7c63" x="43.7425" y="19.258858" style="stroke: #000000; stroke-width: 0.4"/>
      </g>
     </g>
    </g>
    <g id="ytick_26">
     <g id="line2d_32">
      <g>
       <use xlink:href="#mf6152e7c63" x="43.7425" y="16.537069" style="stroke: #000000; stroke-width: 0.4"/>
      </g>
     </g>
    </g>
    <g id="ytick_27">
     <g id="line2d_33">
      <g>
       <use xlink:href="#mf6152e7c63" x="43.7425" y="14.179348" style="stroke: #000000; stroke-width: 0.4"/>
      </g>
     </g>
    </g>
    <g id="ytick_28">
     <g id="line2d_34">
      <g>
       <use xlink:href="#mf6152e7c63" x="43.7425" y="12.099692" style="stroke: #000000; stroke-width: 0.4"/>
      </g>
     </g>
    </g>
    <g id="text_12">
     <!-- loss -->
     <g transform="translate(13.27875 78.949625)rotate(-90)scale(0.08 -0.08)">
      <defs>
       <path id="DejaVuSans-6c" d="M 603 4863 
L 1178 4863 
L 1178 0 
L 603 0 
L 603 4863 
z
" transform="scale(0.015625)"/>
       <path id="DejaVuSans-73" d="M 2834 3397 
L 2834 2853 
Q 2591 2978 2328 3040 
Q 2066 3103 1784 3103 
Q 1356 3103 1142 2972 
Q 928 2841 928 2578 
Q 928 2378 1081 2264 
Q 1234 2150 1697 2047 
L 1894 2003 
Q 2506 1872 2764 1633 
Q 3022 1394 3022 966 
Q 3022 478 2636 193 
Q 2250 -91 1575 -91 
Q 1294 -91 989 -36 
Q 684 19 347 128 
L 347 722 
Q 666 556 975 473 
Q 1284 391 1588 391 
Q 1994 391 2212 530 
Q 2431 669 2431 922 
Q 2431 1156 2273 1281 
Q 2116 1406 1581 1522 
L 1381 1569 
Q 847 1681 609 1914 
Q 372 2147 372 2553 
Q 372 3047 722 3315 
Q 1072 3584 1716 3584 
Q 2034 3584 2315 3537 
Q 2597 3491 2834 3397 
z
" transform="scale(0.015625)"/>
      </defs>
      <use xlink:href="#DejaVuSans-6c"/>
      <use xlink:href="#DejaVuSans-6f" x="27.783203"/>
      <use xlink:href="#DejaVuSans-73" x="88.964844"/>
      <use xlink:href="#DejaVuSans-73" x="141.064453"/>
     </g>
    </g>
   </g>
   <g id="line2d_35">
    <path d="M 46.8673 44.395413 
L 49.9921 55.150131 
L 53.1169 65.216905 
L 56.2417 73.713059 
L 59.3665 82.176515 
L 62.4913 90.080614 
L 65.6161 95.258088 
L 68.7409 96.58559 
L 71.8657 95.988238 
L 74.9905 94.57728 
L 78.1153 92.752567 
L 81.2401 90.878269 
L 84.3649 89.112371 
L 87.4897 87.335507 
L 90.6145 85.895877 
L 93.7393 84.861391 
L 96.8641 83.781274 
L 99.9889 83.032864 
L 103.1137 82.456527 
L 106.2385 81.88841 
L 109.3633 81.626997 
L 112.4881 81.342115 
L 115.6129 81.11696 
L 118.7377 80.908497 
L 121.8625 80.697733 
L 124.9873 80.613242 
L 128.1121 80.416979 
L 131.2369 80.318219 
L 134.3617 80.20758 
L 137.4865 80.122944 
L 140.6113 80.048561 
L 143.7361 79.973992 
L 146.8609 79.922227 
L 149.9857 79.833028 
L 153.1105 79.760685 
L 156.2353 79.729903 
L 159.3601 79.718441 
L 162.4849 79.604147 
L 165.6097 79.535506 
L 168.7345 79.491988 
L 171.8593 79.348426 
L 174.9841 79.434305 
L 178.1089 79.332608 
L 181.2337 79.264741 
L 184.3585 79.21058 
L 187.4833 79.386069 
L 190.6081 79.309832 
L 193.7329 79.138937 
L 196.8577 78.769682 
L 199.9825 79.144415 
" clip-path="url(#pbba1e92205)" style="fill: none; stroke: #ff1f5b; stroke-linecap: square"/>
   </g>
   <g id="line2d_36">
    <path d="M 46.8673 44.387294 
L 49.9921 54.816734 
L 53.1169 64.847977 
L 56.2417 74.014455 
L 59.3665 81.705592 
L 62.4913 89.861786 
L 65.6161 93.71196 
L 68.7409 93.943712 
L 71.8657 94.783665 
L 74.9905 93.380675 
L 78.1153 91.381268 
L 81.2401 89.86505 
L 84.3649 88.386143 
L 87.4897 86.827675 
L 90.6145 85.435298 
L 93.7393 84.377071 
L 96.8641 83.539431 
L 99.9889 82.883435 
L 103.1137 82.314391 
L 106.2385 81.91241 
L 109.3633 81.605774 
L 112.4881 81.351453 
L 115.6129 81.121963 
L 118.7377 80.893269 
L 121.8625 80.685253 
L 124.9873 80.612473 
L 128.1121 80.571613 
L 131.2369 80.389629 
L 134.3617 80.182266 
L 137.4865 80.11674 
L 140.6113 80.073589 
L 143.7361 80.064839 
L 146.8609 79.98161 
L 149.9857 79.781374 
L 153.1105 79.644998 
L 156.2353 79.71098 
L 159.3601 79.767515 
L 162.4849 79.590849 
L 165.6097 79.481229 
L 168.7345 79.457514 
L 171.8593 79.561856 
L 174.9841 79.386092 
L 178.1089 79.324843 
L 181.2337 79.140567 
L 184.3585 79.21392 
L 187.4833 79.372961 
L 190.6081 79.321524 
L 193.7329 79.195947 
L 196.8577 79.066805 
L 199.9825 79.125085 
" clip-path="url(#pbba1e92205)" style="fill: none; stroke: #00cd6c; stroke-linecap: square"/>
   </g>
   <g id="line2d_37">
    <path d="M 46.8673 45.991179 
L 49.9921 55.967991 
L 53.1169 64.933241 
L 56.2417 74.349096 
L 59.3665 82.545305 
L 62.4913 89.863721 
L 65.6161 93.678353 
L 68.7409 93.994602 
L 71.8657 94.064422 
L 74.9905 92.456163 
L 78.1153 90.710632 
L 81.2401 89.026089 
L 84.3649 87.491719 
L 87.4897 86.124293 
L 90.6145 84.840008 
L 93.7393 83.823264 
L 96.8641 82.975287 
L 99.9889 82.354512 
L 103.1137 81.85052 
L 106.2385 81.460404 
L 109.3633 81.141098 
L 112.4881 80.931159 
L 115.6129 80.720444 
L 118.7377 80.492435 
L 121.8625 80.330866 
L 124.9873 80.1429 
L 128.1121 80.169372 
L 131.2369 80.076844 
L 134.3617 79.942783 
L 137.4865 79.809761 
L 140.6113 79.727752 
L 143.7361 79.716867 
L 146.8609 79.662165 
L 149.9857 79.577241 
L 153.1105 79.550544 
L 156.2353 79.483811 
L 159.3601 79.399615 
L 162.4849 79.313248 
L 165.6097 79.204635 
L 168.7345 79.395431 
L 171.8593 79.18897 
L 174.9841 79.192795 
L 178.1089 79.113959 
L 181.2337 79.047901 
L 184.3585 79.113795 
L 187.4833 79.225376 
L 190.6081 79.010357 
L 193.7329 78.925309 
L 196.8577 78.800604 
L 199.9825 79.005793 
" clip-path="url(#pbba1e92205)" style="fill: none; stroke: #009ade; stroke-linecap: square"/>
   </g>
   <g id="line2d_38">
    <path d="M 46.8673 45.661281 
L 49.9921 55.812283 
L 53.1169 64.63972 
L 56.2417 73.199108 
L 59.3665 82.043351 
L 62.4913 88.535612 
L 65.6161 92.94599 
L 68.7409 94.807321 
L 71.8657 94.293062 
L 74.9905 92.285614 
L 78.1153 90.167345 
L 81.2401 88.426358 
L 84.3649 87.010806 
L 87.4897 85.739935 
L 90.6145 84.572716 
L 93.7393 83.614961 
L 96.8641 82.793163 
L 99.9889 82.115509 
L 103.1137 81.691362 
L 106.2385 81.34895 
L 109.3633 81.051018 
L 112.4881 80.719751 
L 115.6129 80.538978 
L 118.7377 80.409388 
L 121.8625 80.227148 
L 124.9873 80.039914 
L 128.1121 79.931494 
L 131.2369 79.842341 
L 134.3617 79.71121 
L 137.4865 79.718229 
L 140.6113 79.623842 
L 143.7361 79.441235 
L 146.8609 79.447658 
L 149.9857 79.452486 
L 153.1105 79.389462 
L 156.2353 79.128097 
L 159.3601 79.165787 
L 162.4849 79.247639 
L 165.6097 79.124692 
L 168.7345 79.042972 
L 171.8593 79.003435 
L 174.9841 79.03036 
L 178.1089 78.956257 
L 181.2337 78.971279 
L 184.3585 78.873998 
L 187.4833 78.92336 
L 190.6081 78.941318 
L 193.7329 78.832403 
L 196.8577 78.654176 
L 199.9825 78.825372 
" clip-path="url(#pbba1e92205)" style="fill: none; stroke: #af58ba; stroke-linecap: square"/>
   </g>
   <g id="line2d_39">
    <path d="M 46.8673 66.288174 
L 49.9921 77.280568 
L 53.1169 85.316739 
L 56.2417 94.331651 
L 59.3665 100.73978 
L 62.4913 107.540777 
L 65.6161 111.343616 
L 68.7409 113.027241 
L 71.8657 113.520102 
L 74.9905 113.301935 
L 78.1153 112.500896 
L 81.2401 111.395613 
L 84.3649 110.309144 
L 87.4897 109.468997 
L 90.6145 108.28263 
L 93.7393 106.978524 
L 96.8641 106.409487 
L 99.9889 105.909317 
L 103.1137 105.441265 
L 106.2385 104.986243 
L 109.3633 104.541919 
L 112.4881 104.288183 
L 115.6129 104.214771 
L 118.7377 104.060006 
L 121.8625 104.034556 
L 124.9873 103.76001 
L 128.1121 103.423485 
L 131.2369 103.476434 
L 134.3617 103.463696 
L 137.4865 103.091128 
L 140.6113 103.067516 
L 143.7361 103.070475 
L 146.8609 103.392557 
L 149.9857 102.963606 
L 153.1105 102.378057 
L 156.2353 102.544291 
L 159.3601 103.133132 
L 162.4849 103.037378 
L 165.6097 102.431825 
L 168.7345 102.358797 
L 171.8593 102.450545 
L 174.9841 102.632972 
L 178.1089 102.546226 
L 181.2337 102.09735 
L 184.3585 102.227078 
L 187.4833 102.66126 
L 190.6081 102.47201 
L 193.7329 102.120669 
L 196.8577 101.679858 
L 199.9825 102.380983 
" clip-path="url(#pbba1e92205)" style="fill: none; stroke: #ffc61e; stroke-linecap: square"/>
   </g>
   <g id="patch_3">
    <path d="M 43.7425 132.207375 
L 43.7425 10.239375 
" style="fill: none; stroke: #000000; stroke-width: 0.6; stroke-linejoin: miter; stroke-linecap: square"/>
   </g>
   <g id="patch_4">
    <path d="M 43.7425 132.207375 
L 199.9825 132.207375 
" style="fill: none; stroke: #000000; stroke-width: 0.6; stroke-linejoin: miter; stroke-linecap: square"/>
   </g>
   <g id="legend_1">
    <g id="line2d_40">
     <path d="M 207.1825 20.718125 
L 214.5825 20.718125 
L 221.9825 20.718125 
" style="fill: none; stroke: #ff1f5b; stroke-linecap: square"/>
    </g>
    <g id="text_13">
     <!-- N=257, 8 levels -->
     <g transform="translate(228.3825 23.518125)scale(0.08 -0.08)">
      <defs>
       <path id="DejaVuSans-4e" d="M 628 4666 
L 1478 4666 
L 3547 763 
L 3547 4666 
L 4159 4666 
L 4159 0 
L 3309 0 
L 1241 3903 
L 1241 0 
L 628 0 
L 628 4666 
z
" transform="scale(0.015625)"/>
       <path id="DejaVuSans-3d" d="M 678 2906 
L 4684 2906 
L 4684 2381 
L 678 2381 
L 678 2906 
z
M 678 1631 
L 4684 1631 
L 4684 1100 
L 678 1100 
L 678 1631 
z
" transform="scale(0.015625)"/>
       <path id="DejaVuSans-37" d="M 525 4666 
L 3525 4666 
L 3525 4397 
L 1831 0 
L 1172 0 
L 2766 4134 
L 525 4134 
L 525 4666 
z
" transform="scale(0.015625)"/>
       <path id="DejaVuSans-2c" d="M 750 794 
L 1409 794 
L 1409 256 
L 897 -744 
L 494 -744 
L 750 256 
L 750 794 
z
" transform="scale(0.015625)"/>
       <path id="DejaVuSans-20" transform="scale(0.015625)"/>
       <path id="DejaVuSans-38" d="M 2034 2216 
Q 1584 2216 1326 1975 
Q 1069 1734 1069 1313 
Q 1069 891 1326 650 
Q 1584 409 2034 409 
Q 2484 409 2743 651 
Q 3003 894 3003 1313 
Q 3003 1734 2745 1975 
Q 2488 2216 2034 2216 
z
M 1403 2484 
Q 997 2584 770 2862 
Q 544 3141 544 3541 
Q 544 4100 942 4425 
Q 1341 4750 2034 4750 
Q 2731 4750 3128 4425 
Q 3525 4100 3525 3541 
Q 3525 3141 3298 2862 
Q 3072 2584 2669 2484 
Q 3125 2378 3379 2068 
Q 3634 1759 3634 1313 
Q 3634 634 3220 271 
Q 2806 -91 2034 -91 
Q 1263 -91 848 271 
Q 434 634 434 1313 
Q 434 1759 690 2068 
Q 947 2378 1403 2484 
z
M 1172 3481 
Q 1172 3119 1398 2916 
Q 1625 2713 2034 2713 
Q 2441 2713 2670 2916 
Q 2900 3119 2900 3481 
Q 2900 3844 2670 4047 
Q 2441 4250 2034 4250 
Q 1625 4250 1398 4047 
Q 1172 3844 1172 3481 
z
" transform="scale(0.015625)"/>
       <path id="DejaVuSans-76" d="M 191 3500 
L 800 3500 
L 1894 563 
L 2988 3500 
L 3597 3500 
L 2284 0 
L 1503 0 
L 191 3500 
z
" transform="scale(0.015625)"/>
      </defs>
      <use xlink:href="#DejaVuSans-4e"/>
      <use xlink:href="#DejaVuSans-3d" x="74.804688"/>
      <use xlink:href="#DejaVuSans-32" x="158.59375"/>
      <use xlink:href="#DejaVuSans-35" x="222.216797"/>
      <use xlink:href="#DejaVuSans-37" x="285.839844"/>
      <use xlink:href="#DejaVuSans-2c" x="349.462891"/>
      <use xlink:href="#DejaVuSans-20" x="381.25"/>
      <use xlink:href="#DejaVuSans-38" x="413.037109"/>
      <use xlink:href="#DejaVuSans-20" x="476.660156"/>
      <use xlink:href="#DejaVuSans-6c" x="508.447266"/>
      <use xlink:href="#DejaVuSans-65" x="536.230469"/>
      <use xlink:href="#DejaVuSans-76" x="597.753906"/>
      <use xlink:href="#DejaVuSans-65" x="656.933594"/>
      <use xlink:href="#DejaVuSans-6c" x="718.457031"/>
      <use xlink:href="#DejaVuSans-73" x="746.240234"/>
     </g>
    </g>
    <g id="line2d_41">
     <path d="M 207.1825 32.460625 
L 214.5825 32.460625 
L 221.9825 32.460625 
" style="fill: none; stroke: #00cd6c; stroke-linecap: square"/>
    </g>
    <g id="text_14">
     <!-- N=257, 7 levels -->
     <g transform="translate(228.3825 35.260625)scale(0.08 -0.08)">
      <use xlink:href="#DejaVuSans-4e"/>
      <use xlink:href="#DejaVuSans-3d" x="74.804688"/>
      <use xlink:href="#DejaVuSans-32" x="158.59375"/>
      <use xlink:href="#DejaVuSans-35" x="222.216797"/>
      <use xlink:href="#DejaVuSans-37" x="285.839844"/>
      <use xlink:href="#DejaVuSans-2c" x="349.462891"/>
      <use xlink:href="#DejaVuSans-20" x="381.25"/>
      <use xlink:href="#DejaVuSans-37" x="413.037109"/>
      <use xlink:href="#DejaVuSans-20" x="476.660156"/>
      <use xlink:href="#DejaVuSans-6c" x="508.447266"/>
      <use xlink:href="#DejaVuSans-65" x="536.230469"/>
      <use xlink:href="#DejaVuSans-76" x="597.753906"/>
      <use xlink:href="#DejaVuSans-65" x="656.933594"/>
      <use xlink:href="#DejaVuSans-6c" x="718.457031"/>
      <use xlink:href="#DejaVuSans-73" x="746.240234"/>
     </g>
    </g>
    <g id="line2d_42">
     <path d="M 207.1825 44.203125 
L 214.5825 44.203125 
L 221.9825 44.203125 
" style="fill: none; stroke: #009ade; stroke-linecap: square"/>
    </g>
    <g id="text_15">
     <!-- N=257, 6 levels -->
     <g transform="translate(228.3825 47.003125)scale(0.08 -0.08)">
      <defs>
       <path id="DejaVuSans-36" d="M 2113 2584 
Q 1688 2584 1439 2293 
Q 1191 2003 1191 1497 
Q 1191 994 1439 701 
Q 1688 409 2113 409 
Q 2538 409 2786 701 
Q 3034 994 3034 1497 
Q 3034 2003 2786 2293 
Q 2538 2584 2113 2584 
z
M 3366 4563 
L 3366 3988 
Q 3128 4100 2886 4159 
Q 2644 4219 2406 4219 
Q 1781 4219 1451 3797 
Q 1122 3375 1075 2522 
Q 1259 2794 1537 2939 
Q 1816 3084 2150 3084 
Q 2853 3084 3261 2657 
Q 3669 2231 3669 1497 
Q 3669 778 3244 343 
Q 2819 -91 2113 -91 
Q 1303 -91 875 529 
Q 447 1150 447 2328 
Q 447 3434 972 4092 
Q 1497 4750 2381 4750 
Q 2619 4750 2861 4703 
Q 3103 4656 3366 4563 
z
" transform="scale(0.015625)"/>
      </defs>
      <use xlink:href="#DejaVuSans-4e"/>
      <use xlink:href="#DejaVuSans-3d" x="74.804688"/>
      <use xlink:href="#DejaVuSans-32" x="158.59375"/>
      <use xlink:href="#DejaVuSans-35" x="222.216797"/>
      <use xlink:href="#DejaVuSans-37" x="285.839844"/>
      <use xlink:href="#DejaVuSans-2c" x="349.462891"/>
      <use xlink:href="#DejaVuSans-20" x="381.25"/>
      <use xlink:href="#DejaVuSans-36" x="413.037109"/>
      <use xlink:href="#DejaVuSans-20" x="476.660156"/>
      <use xlink:href="#DejaVuSans-6c" x="508.447266"/>
      <use xlink:href="#DejaVuSans-65" x="536.230469"/>
      <use xlink:href="#DejaVuSans-76" x="597.753906"/>
      <use xlink:href="#DejaVuSans-65" x="656.933594"/>
      <use xlink:href="#DejaVuSans-6c" x="718.457031"/>
      <use xlink:href="#DejaVuSans-73" x="746.240234"/>
     </g>
    </g>
    <g id="line2d_43">
     <path d="M 207.1825 55.945625 
L 214.5825 55.945625 
L 221.9825 55.945625 
" style="fill: none; stroke: #af58ba; stroke-linecap: square"/>
    </g>
    <g id="text_16">
     <!-- N=257, 5 levels -->
     <g transform="translate(228.3825 58.745625)scale(0.08 -0.08)">
      <use xlink:href="#DejaVuSans-4e"/>
      <use xlink:href="#DejaVuSans-3d" x="74.804688"/>
      <use xlink:href="#DejaVuSans-32" x="158.59375"/>
      <use xlink:href="#DejaVuSans-35" x="222.216797"/>
      <use xlink:href="#DejaVuSans-37" x="285.839844"/>
      <use xlink:href="#DejaVuSans-2c" x="349.462891"/>
      <use xlink:href="#DejaVuSans-20" x="381.25"/>
      <use xlink:href="#DejaVuSans-35" x="413.037109"/>
      <use xlink:href="#DejaVuSans-20" x="476.660156"/>
      <use xlink:href="#DejaVuSans-6c" x="508.447266"/>
      <use xlink:href="#DejaVuSans-65" x="536.230469"/>
      <use xlink:href="#DejaVuSans-76" x="597.753906"/>
      <use xlink:href="#DejaVuSans-65" x="656.933594"/>
      <use xlink:href="#DejaVuSans-6c" x="718.457031"/>
      <use xlink:href="#DejaVuSans-73" x="746.240234"/>
     </g>
    </g>
    <g id="line2d_44">
     <path d="M 207.1825 67.688125 
L 214.5825 67.688125 
L 221.9825 67.688125 
" style="fill: none; stroke: #ffc61e; stroke-linecap: square"/>
    </g>
    <g id="text_17">
     <!-- N=129, 7 levels -->
     <g transform="translate(228.3825 70.488125)scale(0.08 -0.08)">
      <defs>
       <path id="DejaVuSans-39" d="M 703 97 
L 703 672 
Q 941 559 1184 500 
Q 1428 441 1663 441 
Q 2288 441 2617 861 
Q 2947 1281 2994 2138 
Q 2813 1869 2534 1725 
Q 2256 1581 1919 1581 
Q 1219 1581 811 2004 
Q 403 2428 403 3163 
Q 403 3881 828 4315 
Q 1253 4750 1959 4750 
Q 2769 4750 3195 4129 
Q 3622 3509 3622 2328 
Q 3622 1225 3098 567 
Q 2575 -91 1691 -91 
Q 1453 -91 1209 -44 
Q 966 3 703 97 
z
M 1959 2075 
Q 2384 2075 2632 2365 
Q 2881 2656 2881 3163 
Q 2881 3666 2632 3958 
Q 2384 4250 1959 4250 
Q 1534 4250 1286 3958 
Q 1038 3666 1038 3163 
Q 1038 2656 1286 2365 
Q 1534 2075 1959 2075 
z
" transform="scale(0.015625)"/>
      </defs>
      <use xlink:href="#DejaVuSans-4e"/>
      <use xlink:href="#DejaVuSans-3d" x="74.804688"/>
      <use xlink:href="#DejaVuSans-31" x="158.59375"/>
      <use xlink:href="#DejaVuSans-32" x="222.216797"/>
      <use xlink:href="#DejaVuSans-39" x="285.839844"/>
      <use xlink:href="#DejaVuSans-2c" x="349.462891"/>
      <use xlink:href="#DejaVuSans-20" x="381.25"/>
      <use xlink:href="#DejaVuSans-37" x="413.037109"/>
      <use xlink:href="#DejaVuSans-20" x="476.660156"/>
      <use xlink:href="#DejaVuSans-6c" x="508.447266"/>
      <use xlink:href="#DejaVuSans-65" x="536.230469"/>
      <use xlink:href="#DejaVuSans-76" x="597.753906"/>
      <use xlink:href="#DejaVuSans-65" x="656.933594"/>
      <use xlink:href="#DejaVuSans-6c" x="718.457031"/>
      <use xlink:href="#DejaVuSans-73" x="746.240234"/>
     </g>
    </g>
   </g>
  </g>
 </g>
 <defs>
  <clipPath id="pbba1e92205">
   <rect x="43.7425" y="10.239375" width="156.24" height="121.968"/>
  </clipPath>
 </defs>
</svg>
