<?xml version="1.0" encoding="utf-8" standalone="no"?>
<!DOCTYPE svg PUBLIC "-//W3C//DTD SVG 1.1//EN"
  "http://www.w3.org/Graphics/SVG/1.1/DTD/svg11.dtd">
<svg xmlns:xlink="http://www.w3.org/1999/xlink" width="258.82875pt" height="163.7355pt" viewBox="0 0 258.82875 163.7355" xmlns="http://www.w3.org/2000/svg" version="1.1">
 <metadata>
  <rdf:RDF xmlns:dc="http://purl.org/dc/elements/1.1/" xmlns:cc="http://creativecommons.org/ns#" xmlns:rdf="http://www.w3.org/1999/02/22-rdf-syntax-ns#">
   <cc:Work>
    <dc:type rdf:resource="http://purl.org/dc/dcmitype/StillImage"/>
    <dc:date>2023-02-09T17:38:22.686818</dc:date>
    <dc:format>image/svg+xml</dc:format>
    <dc:creator>
     <cc:Agent>
      <dc:title>Matplotlib v3.6.3, https://matplotlib.org/</dc:title>
     </cc:Agent>
    </dc:creator>
   </cc:Work>
  </rdf:RDF>
 </metadata>
 <defs>
  <style type="text/css">*{stroke-linejoin: round; stroke-linecap: butt}</style>
 </defs>
 <g id="figure_1">
  <g id="patch_1">
   <path d="M 0 163.7355 
L 258.82875 163.7355 
L 258.82875 -0 
L 0 -0 
L 0 163.7355 
z
" style="fill: none"/>
  </g>
  <g id="axes_1">
   <g id="patch_2">
    <path d="M 39.18375 132.008 
L 195.42375 132.008 
L 195.42375 10.04 
L 39.18375 10.04 
L 39.18375 132.008 
z
" style="fill: none"/>
   </g>
   <g id="matplotlib.axis_1">
    <g id="xtick_1">
     <g id="line2d_1">
      <defs>
       <path id="m4cd371f86f" d="M 0 0 
L 0 2.5 
" style="stroke: #000000; stroke-width: 0.6"/>
      </defs>
      <g>
       <use xlink:href="#m4cd371f86f" x="39.18375" y="132.008" style="stroke: #000000; stroke-width: 0.6"/>
      </g>
     </g>
     <g id="text_1">
      <!-- 0 -->
      <g transform="translate(37.131875 143.688) scale(0.08 -0.08)">
       <defs>
        <path id="MyriadPro-Regular-30" d="M 1683 4230 
C 838 4230 230 3469 230 2067 
C 243 691 800 -70 1613 -70 
C 2528 -70 3059 710 3059 2125 
C 3059 3450 2554 4230 1683 4230 
z
M 1645 3795 
C 2234 3795 2490 3123 2490 2099 
C 2490 1037 2214 365 1645 365 
C 1133 365 800 979 800 2061 
C 800 3194 1158 3795 1645 3795 
z
" transform="scale(0.015625)"/>
       </defs>
       <use xlink:href="#MyriadPro-Regular-30"/>
      </g>
     </g>
    </g>
    <g id="xtick_2">
     <g id="line2d_2">
      <g>
       <use xlink:href="#m4cd371f86f" x="65.22375" y="132.008" style="stroke: #000000; stroke-width: 0.6"/>
      </g>
     </g>
     <g id="text_2">
      <!-- 5000 -->
      <g transform="translate(57.01625 143.688) scale(0.08 -0.08)">
       <defs>
        <path id="MyriadPro-Regular-35" d="M 2771 4160 
L 781 4160 
L 512 2163 
C 666 2182 851 2202 1094 2202 
C 1920 2202 2285 1824 2285 1286 
C 2291 730 1830 384 1306 384 
C 922 384 582 512 410 614 
L 269 186 
C 474 58 851 -70 1306 -70 
C 2208 -70 2854 538 2854 1350 
C 2854 1869 2586 2234 2259 2413 
C 2003 2573 1690 2637 1363 2637 
C 1210 2637 1120 2630 1024 2618 
L 1184 3686 
L 2771 3686 
L 2771 4160 
z
" transform="scale(0.015625)"/>
       </defs>
       <use xlink:href="#MyriadPro-Regular-35"/>
       <use xlink:href="#MyriadPro-Regular-30" x="51.299988"/>
       <use xlink:href="#MyriadPro-Regular-30" x="102.599976"/>
       <use xlink:href="#MyriadPro-Regular-30" x="153.899963"/>
      </g>
     </g>
    </g>
    <g id="xtick_3">
     <g id="line2d_3">
      <g>
       <use xlink:href="#m4cd371f86f" x="91.26375" y="132.008" style="stroke: #000000; stroke-width: 0.6"/>
      </g>
     </g>
     <g id="text_3">
      <!-- 10000 -->
      <g transform="translate(81.004375 143.688) scale(0.08 -0.08)">
       <defs>
        <path id="MyriadPro-Regular-31" d="M 1510 0 
L 2054 0 
L 2054 4160 
L 1574 4160 
L 666 3674 
L 774 3245 
L 1498 3635 
L 1510 3635 
L 1510 0 
z
" transform="scale(0.015625)"/>
       </defs>
       <use xlink:href="#MyriadPro-Regular-31"/>
       <use xlink:href="#MyriadPro-Regular-30" x="51.299988"/>
       <use xlink:href="#MyriadPro-Regular-30" x="102.599976"/>
       <use xlink:href="#MyriadPro-Regular-30" x="153.899963"/>
       <use xlink:href="#MyriadPro-Regular-30" x="205.199951"/>
      </g>
     </g>
    </g>
    <g id="xtick_4">
     <g id="line2d_4">
      <g>
       <use xlink:href="#m4cd371f86f" x="117.30375" y="132.008" style="stroke: #000000; stroke-width: 0.6"/>
      </g>
     </g>
     <g id="text_4">
      <!-- 15000 -->
      <g transform="translate(107.044375 143.688) scale(0.08 -0.08)">
       <use xlink:href="#MyriadPro-Regular-31"/>
       <use xlink:href="#MyriadPro-Regular-35" x="51.299988"/>
       <use xlink:href="#MyriadPro-Regular-30" x="102.599976"/>
       <use xlink:href="#MyriadPro-Regular-30" x="153.899963"/>
       <use xlink:href="#MyriadPro-Regular-30" x="205.199951"/>
      </g>
     </g>
    </g>
    <g id="xtick_5">
     <g id="line2d_5">
      <g>
       <use xlink:href="#m4cd371f86f" x="143.34375" y="132.008" style="stroke: #000000; stroke-width: 0.6"/>
      </g>
     </g>
     <g id="text_5">
      <!-- 20000 -->
      <g transform="translate(133.084375 143.688) scale(0.08 -0.08)">
       <defs>
        <path id="MyriadPro-Regular-32" d="M 2944 0 
L 2944 467 
L 1082 467 
L 1082 480 
L 1408 787 
C 2285 1632 2842 2253 2842 3021 
C 2842 3616 2464 4230 1568 4230 
C 1094 4230 678 4045 397 3808 
L 576 3411 
C 768 3571 1082 3763 1459 3763 
C 2080 3763 2278 3373 2278 2950 
C 2278 2323 1792 1786 730 774 
L 288 346 
L 288 0 
L 2944 0 
z
" transform="scale(0.015625)"/>
       </defs>
       <use xlink:href="#MyriadPro-Regular-32"/>
       <use xlink:href="#MyriadPro-Regular-30" x="51.299988"/>
       <use xlink:href="#MyriadPro-Regular-30" x="102.599976"/>
       <use xlink:href="#MyriadPro-Regular-30" x="153.899963"/>
       <use xlink:href="#MyriadPro-Regular-30" x="205.199951"/>
      </g>
     </g>
    </g>
    <g id="xtick_6">
     <g id="line2d_6">
      <g>
       <use xlink:href="#m4cd371f86f" x="169.38375" y="132.008" style="stroke: #000000; stroke-width: 0.6"/>
      </g>
     </g>
     <g id="text_6">
      <!-- 25000 -->
      <g transform="translate(159.124375 143.688) scale(0.08 -0.08)">
       <use xlink:href="#MyriadPro-Regular-32"/>
       <use xlink:href="#MyriadPro-Regular-35" x="51.299988"/>
       <use xlink:href="#MyriadPro-Regular-30" x="102.599976"/>
       <use xlink:href="#MyriadPro-Regular-30" x="153.899963"/>
       <use xlink:href="#MyriadPro-Regular-30" x="205.199951"/>
      </g>
     </g>
    </g>
    <g id="xtick_7">
     <g id="line2d_7">
      <g>
       <use xlink:href="#m4cd371f86f" x="195.42375" y="132.008" style="stroke: #000000; stroke-width: 0.6"/>
      </g>
     </g>
     <g id="text_7">
      <!-- 30000 -->
      <g transform="translate(185.164375 143.688) scale(0.08 -0.08)">
       <defs>
        <path id="MyriadPro-Regular-33" d="M 269 211 
C 474 77 883 -70 1350 -70 
C 2342 -70 2867 512 2867 1178 
C 2861 1760 2451 2144 1939 2240 
L 1939 2253 
C 2445 2438 2707 2803 2707 3238 
C 2707 3744 2336 4230 1517 4230 
C 1069 4230 646 4070 422 3910 
L 576 3501 
C 755 3629 1075 3776 1408 3776 
C 1926 3776 2138 3482 2138 3149 
C 2138 2656 1619 2445 1210 2445 
L 896 2445 
L 896 2022 
L 1210 2022 
C 1754 2022 2278 1773 2285 1190 
C 2291 838 2061 384 1344 384 
C 947 384 582 544 422 640 
L 269 211 
z
" transform="scale(0.015625)"/>
       </defs>
       <use xlink:href="#MyriadPro-Regular-33"/>
       <use xlink:href="#MyriadPro-Regular-30" x="51.299988"/>
       <use xlink:href="#MyriadPro-Regular-30" x="102.599976"/>
       <use xlink:href="#MyriadPro-Regular-30" x="153.899963"/>
       <use xlink:href="#MyriadPro-Regular-30" x="205.199951"/>
      </g>
     </g>
    </g>
    <g id="text_8">
     <!-- epoch -->
     <g transform="translate(106.815625 154.95175) scale(0.08 -0.08)">
      <defs>
       <path id="MyriadPro-Regular-65" d="M 2957 1446 
C 2970 1510 2976 1594 2976 1709 
C 2976 2278 2714 3162 1696 3162 
C 794 3162 243 2432 243 1498 
C 243 563 813 -70 1766 -70 
C 2259 -70 2605 38 2803 128 
L 2701 531 
C 2496 442 2246 371 1843 371 
C 1274 371 794 685 781 1446 
L 2957 1446 
z
M 787 1850 
C 832 2240 1075 2758 1651 2758 
C 2285 2758 2438 2202 2432 1850 
L 787 1850 
z
" transform="scale(0.015625)"/>
       <path id="MyriadPro-Regular-70" d="M 467 -1267 
L 1024 -1267 
L 1024 416 
L 1037 416 
C 1222 109 1581 -70 1990 -70 
C 2720 -70 3405 480 3405 1594 
C 3405 2528 2842 3162 2086 3162 
C 1581 3162 1210 2944 986 2566 
L 973 2566 
L 941 3098 
L 442 3098 
C 454 2803 467 2483 467 2086 
L 467 -1267 
z
M 1024 1798 
C 1024 1869 1043 1952 1062 2022 
C 1165 2445 1530 2714 1914 2714 
C 2509 2714 2835 2182 2835 1568 
C 2835 858 2490 371 1894 371 
C 1491 371 1152 640 1050 1030 
C 1030 1101 1024 1178 1024 1261 
L 1024 1798 
z
" transform="scale(0.015625)"/>
       <path id="MyriadPro-Regular-6f" d="M 1779 3162 
C 928 3162 243 2554 243 1523 
C 243 544 896 -70 1728 -70 
C 2470 -70 3270 429 3270 1574 
C 3270 2515 2669 3162 1779 3162 
z
M 1766 2739 
C 2432 2739 2694 2080 2694 1555 
C 2694 858 2291 352 1754 352 
C 1203 352 819 864 819 1542 
C 819 2125 1107 2739 1766 2739 
z
" transform="scale(0.015625)"/>
       <path id="MyriadPro-Regular-63" d="M 2579 531 
C 2419 461 2208 384 1888 384 
C 1274 384 813 826 813 1542 
C 813 2182 1197 2714 1907 2714 
C 2214 2714 2426 2637 2560 2566 
L 2688 2995 
C 2534 3078 2240 3162 1907 3162 
C 896 3162 243 2464 243 1510 
C 243 563 851 -70 1786 -70 
C 2202 -70 2528 38 2675 109 
L 2579 531 
z
" transform="scale(0.015625)"/>
       <path id="MyriadPro-Regular-68" d="M 467 0 
L 1030 0 
L 1030 1869 
C 1030 1971 1037 2054 1069 2138 
C 1178 2438 1459 2694 1824 2694 
C 2355 2694 2541 2278 2541 1779 
L 2541 0 
L 3104 0 
L 3104 1843 
C 3104 2906 2438 3162 2022 3162 
C 1811 3162 1613 3104 1446 3008 
C 1274 2912 1133 2765 1043 2605 
L 1030 2605 
L 1030 4544 
L 467 4544 
L 467 0 
z
" transform="scale(0.015625)"/>
      </defs>
      <use xlink:href="#MyriadPro-Regular-65"/>
      <use xlink:href="#MyriadPro-Regular-70" x="50.099991"/>
      <use xlink:href="#MyriadPro-Regular-6f" x="106.999985"/>
      <use xlink:href="#MyriadPro-Regular-63" x="161.899979"/>
      <use xlink:href="#MyriadPro-Regular-68" x="206.699966"/>
     </g>
    </g>
   </g>
   <g id="matplotlib.axis_2">
    <g id="ytick_1">
     <g id="line2d_8">
      <defs>
       <path id="m56f3a9ced1" d="M 0 0 
L -2.5 0 
" style="stroke: #000000; stroke-width: 0.6"/>
      </defs>
      <g>
       <use xlink:href="#m56f3a9ced1" x="39.18375" y="132.008" style="stroke: #000000; stroke-width: 0.6"/>
      </g>
     </g>
     <g id="text_9">
      <!-- $\mathdefault{10^{-5}}$ -->
      <g transform="translate(18.46375 134.848) scale(0.08 -0.08)">
       <defs>
        <path id="MyriadPro-Regular-2212" d="M 256 1901 
L 256 1517 
L 3558 1517 
L 3558 1901 
L 256 1901 
z
" transform="scale(0.015625)"/>
       </defs>
       <use xlink:href="#MyriadPro-Regular-31" transform="translate(0 0.615625)"/>
       <use xlink:href="#MyriadPro-Regular-30" transform="translate(51.299988 0.615625)"/>
       <use xlink:href="#MyriadPro-Regular-2212" transform="translate(103.447085 34.5) scale(0.7)"/>
       <use xlink:href="#MyriadPro-Regular-35" transform="translate(145.167079 34.5) scale(0.7)"/>
      </g>
     </g>
    </g>
    <g id="ytick_2">
     <g id="line2d_9">
      <g>
       <use xlink:href="#m56f3a9ced1" x="39.18375" y="91.352" style="stroke: #000000; stroke-width: 0.6"/>
      </g>
     </g>
     <g id="text_10">
      <!-- $\mathdefault{10^{-3}}$ -->
      <g transform="translate(18.46375 94.192) scale(0.08 -0.08)">
       <use xlink:href="#MyriadPro-Regular-31" transform="translate(0 0.85)"/>
       <use xlink:href="#MyriadPro-Regular-30" transform="translate(51.299988 0.85)"/>
       <use xlink:href="#MyriadPro-Regular-2212" transform="translate(103.447085 34.734375) scale(0.7)"/>
       <use xlink:href="#MyriadPro-Regular-33" transform="translate(145.167079 34.734375) scale(0.7)"/>
      </g>
     </g>
    </g>
    <g id="ytick_3">
     <g id="line2d_10">
      <g>
       <use xlink:href="#m56f3a9ced1" x="39.18375" y="50.696" style="stroke: #000000; stroke-width: 0.6"/>
      </g>
     </g>
     <g id="text_11">
      <!-- $\mathdefault{10^{-1}}$ -->
      <g transform="translate(18.46375 53.536) scale(0.08 -0.08)">
       <use xlink:href="#MyriadPro-Regular-31" transform="translate(0 0.615625)"/>
       <use xlink:href="#MyriadPro-Regular-30" transform="translate(51.299988 0.615625)"/>
       <use xlink:href="#MyriadPro-Regular-2212" transform="translate(103.447085 34.5) scale(0.7)"/>
       <use xlink:href="#MyriadPro-Regular-31" transform="translate(145.167079 34.5) scale(0.7)"/>
      </g>
     </g>
    </g>
    <g id="ytick_4">
     <g id="line2d_11">
      <g>
       <use xlink:href="#m56f3a9ced1" x="39.18375" y="10.04" style="stroke: #000000; stroke-width: 0.6"/>
      </g>
     </g>
     <g id="text_12">
      <!-- $\mathdefault{10^{1}}$ -->
      <g transform="translate(21.82375 12.88) scale(0.08 -0.08)">
       <use xlink:href="#MyriadPro-Regular-31" transform="translate(0 0.615625)"/>
       <use xlink:href="#MyriadPro-Regular-30" transform="translate(51.299988 0.615625)"/>
       <use xlink:href="#MyriadPro-Regular-31" transform="translate(103.447085 34.5) scale(0.7)"/>
      </g>
     </g>
    </g>
    <g id="text_13">
     <!-- loss -->
     <g transform="translate(12.88 77.3315) rotate(-90) scale(0.08 -0.08)">
      <defs>
       <path id="MyriadPro-Regular-6c" d="M 467 0 
L 1030 0 
L 1030 4544 
L 467 4544 
L 467 0 
z
" transform="scale(0.015625)"/>
       <path id="MyriadPro-Regular-73" d="M 256 147 
C 474 19 787 -70 1126 -70 
C 1850 -70 2278 314 2278 864 
C 2278 1325 1997 1594 1466 1792 
C 1062 1952 883 2067 883 2323 
C 883 2554 1062 2746 1395 2746 
C 1683 2746 1907 2637 2029 2560 
L 2163 2970 
C 1997 3078 1722 3162 1408 3162 
C 749 3162 339 2752 339 2253 
C 339 1882 602 1581 1165 1376 
C 1574 1222 1734 1082 1734 813 
C 1734 550 1542 352 1139 352 
C 858 352 563 467 390 570 
L 256 147 
z
" transform="scale(0.015625)"/>
      </defs>
      <use xlink:href="#MyriadPro-Regular-6c"/>
      <use xlink:href="#MyriadPro-Regular-6f" x="23.599991"/>
      <use xlink:href="#MyriadPro-Regular-73" x="78.499985"/>
      <use xlink:href="#MyriadPro-Regular-73" x="118.099976"/>
     </g>
    </g>
   </g>
   <g id="line2d_12">
    <path d="M 39.23583 27.341848 
L 39.65247 36.903807 
L 40.17327 41.700814 
L 40.69407 44.402132 
L 41.21487 46.241401 
L 41.89191 47.9644 
L 42.77727 49.572342 
L 43.81887 50.943655 
L 44.80839 51.912814 
L 46.37079 53.090199 
L 51.42255 55.760752 
L 55.01607 57.026744 
L 65.79663 59.966278 
L 68.14023 60.406654 
L 69.65055 60.804656 
L 71.47335 61.098727 
L 73.81695 61.464876 
L 76.16055 61.949321 
L 77.87919 62.299543 
L 85.74327 63.275397 
L 88.55559 63.464701 
L 95.11767 63.857643 
L 99.49239 64.476069 
L 105.11703 65.347401 
L 111.05415 66.366348 
L 113.55399 66.722396 
L 120.37647 67.939145 
L 122.72007 68.534424 
L 125.06367 69.428224 
L 127.25103 70.561724 
L 128.13639 70.9339 
L 129.12591 71.385241 
L 133.18815 73.397152 
L 134.90679 74.825506 
L 135.68799 75.701321 
L 136.15671 76.437014 
L 137.71911 78.964189 
L 138.34407 79.859429 
L 139.02111 80.731473 
L 140.11479 81.694029 
L 142.66671 83.497035 
L 143.70831 83.99794 
L 149.43711 86.153941 
L 150.84327 86.620882 
L 153.81183 88.023789 
L 156.62415 89.630171 
L 157.71783 90.566095 
L 158.96775 91.61278 
L 160.42599 92.80324 
L 163.18623 95.02895 
L 166.72767 96.988171 
L 168.34215 97.786426 
L 169.38375 98.186147 
L 171.98775 99.050048 
L 174.17511 100.407327 
L 175.16463 101.188224 
L 175.89375 102.139512 
L 177.19575 104.295849 
L 178.23735 105.938261 
L 179.12271 106.902959 
L 181.51839 109.154949 
L 182.40375 109.871231 
L 183.49743 110.701495 
L 187.87215 114.4685 
L 189.79911 115.537546 
L 190.73655 115.907037 
L 191.04903 115.994387 
L 191.04903 115.994387 
" clip-path="url(#p39a738c68d)" style="fill: none; stroke: #ff1f5b; stroke-linecap: square"/>
   </g>
   <g id="line2d_13">
    <path d="M 39.23583 32.280646 
L 39.54831 40.971985 
L 40.06911 46.27626 
L 40.58991 48.851152 
L 41.05863 50.44984 
L 41.68359 51.936613 
L 42.62103 53.464132 
L 43.76679 54.864735 
L 45.32919 56.337884 
L 47.20407 57.700617 
L 48.14151 58.265514 
L 49.23519 58.91919 
L 50.06847 59.402186 
L 51.31839 60.023732 
L 52.41207 60.451882 
L 53.34951 60.972132 
L 56.00559 61.97801 
L 57.04719 62.426962 
L 60.79695 63.323462 
L 62.56767 63.483585 
L 63.97383 63.688748 
L 66.16119 64.328924 
L 69.28599 65.322609 
L 71.62959 65.993876 
L 73.40031 66.708937 
L 74.85855 67.494149 
L 77.87919 69.135528 
L 78.39999 69.657457 
L 79.38951 70.81784 
L 80.63943 71.974854 
L 81.73311 73.471433 
L 82.35807 75.123829 
L 83.86839 78.932552 
L 84.54543 80.007535 
L 86.42031 82.613774 
L 87.61815 83.649112 
L 89.38887 84.890481 
L 90.27423 85.521585 
L 91.00335 86.264144 
L 91.94079 87.425769 
L 92.51367 88.766329 
L 93.13863 90.202996 
L 93.91983 91.345793 
L 94.44063 91.949052 
L 95.22183 92.894816 
L 95.79471 93.469351 
L 96.68007 94.345186 
L 97.40919 95.103741 
L 98.34663 95.956857 
L 99.17991 96.825843 
L 99.96111 98.29935 
L 101.83599 102.123181 
L 102.56511 103.882099 
L 103.34631 105.309573 
L 104.23167 106.91189 
L 104.90871 107.605547 
L 107.56479 109.760173 
L 109.23135 111.075123 
L 110.16879 112.562592 
L 111.78327 115.148996 
L 112.35615 115.743575 
L 112.98111 116.104831 
L 113.71023 116.711205 
L 114.90807 117.950932 
L 115.58511 118.379396 
L 115.58511 118.379396 
" clip-path="url(#p39a738c68d)" style="fill: none; stroke: #00cd6c; stroke-linecap: square"/>
   </g>
   <g id="line2d_14">
    <path d="M 39.23583 33.87531 
L 39.44415 43.181508 
L 39.75663 47.88825 
L 40.06911 50.260761 
L 40.43367 52.071761 
L 41.52735 55.113178 
L 42.30855 56.618325 
L 43.61055 58.393286 
L 45.06879 59.975457 
L 46.99575 61.414285 
L 47.56863 61.804697 
L 48.71439 62.674686 
L 50.90175 63.598396 
L 51.68295 63.842734 
L 52.88079 64.533405 
L 54.07863 65.364066 
L 54.80775 65.930557 
L 55.84935 66.778719 
L 57.20343 68.074436 
L 58.60959 69.577734 
L 59.49495 71.194061 
L 60.11991 72.69566 
L 60.79695 74.457493 
L 61.05735 75.53451 
L 62.09895 81.895551 
L 62.56767 83.176108 
L 63.14055 84.071077 
L 63.86967 85.2335 
L 64.54671 86.346721 
L 65.27583 87.512994 
L 66.00495 89.741973 
L 66.57783 91.681476 
L 67.51527 94.058209 
L 68.29647 95.49901 
L 69.12975 97.25194 
L 69.96303 99.451642 
L 70.43175 101.486162 
L 71.05671 103.946641 
L 71.68167 105.172529 
L 74.33775 109.434142 
L 74.70231 110.832441 
L 75.53559 113.827598 
L 76.00431 114.464583 
L 77.15007 115.744659 
L 79.64991 121.121677 
L 80.27487 123.076875 
L 80.84775 125.246872 
L 81.31647 126.081055 
L 81.36855 126.141679 
L 81.36855 126.141679 
" clip-path="url(#p39a738c68d)" style="fill: none; stroke: #009ade; stroke-linecap: square"/>
   </g>
   <g id="line2d_15">
    <path d="M 39.23583 36.074659 
L 39.44415 47.390634 
L 39.75663 51.592986 
L 40.12119 54.164115 
L 40.79823 56.947122 
L 41.37111 58.446156 
L 42.67311 60.636137 
L 44.96463 63.526513 
L 45.43335 63.805214 
L 46.21455 64.258799 
L 46.68327 64.841738 
L 47.25615 65.506542 
L 47.82903 66.189841 
L 48.81855 68.281322 
L 50.12055 71.82659 
L 50.43303 73.153599 
L 51.78711 80.663779 
L 52.30791 81.894242 
L 52.82871 83.202957 
L 53.34951 85.065705 
L 54.39111 89.345142 
L 54.80775 90.629276 
L 55.84935 95.273185 
L 56.42223 98.092731 
L 56.89095 99.358608 
L 57.20343 100.080519 
L 58.40127 104.323791 
L 59.96367 109.847379 
L 60.38031 111.549822 
L 61.52607 116.975742 
L 62.46351 119.262393 
L 63.29679 121.070788 
L 63.76551 122.79773 
L 64.23423 124.228023 
L 64.54671 124.69807 
L 64.54671 124.69807 
" clip-path="url(#p39a738c68d)" style="fill: none; stroke: #af58ba; stroke-linecap: square"/>
   </g>
   <g id="line2d_16">
    <path d="M 39.23583 35.435603 
L 39.44415 48.389674 
L 39.80871 54.48014 
L 40.12119 56.971383 
L 41.05863 61.09984 
L 41.73567 61.735121 
L 42.56895 62.662597 
L 43.45431 63.869138 
L 44.13135 64.552138 
L 44.75631 65.312757 
L 45.90207 67.416573 
L 46.57911 69.240618 
L 46.99575 70.446257 
L 47.41239 72.818551 
L 48.03735 78.904399 
L 48.81855 87.719679 
L 49.28727 89.633231 
L 49.54767 90.958022 
L 50.32887 96.578954 
L 50.95383 102.116443 
L 51.31839 104.393668 
L 52.30791 110.069174 
L 52.62039 113.799911 
L 53.08911 119.580244 
L 53.87031 123.991974 
L 54.28695 124.942553 
L 54.59943 125.39819 
L 54.59943 125.39819 
" clip-path="url(#p39a738c68d)" style="fill: none; stroke: #ffc61e; stroke-linecap: square"/>
   </g>
   <g id="patch_3">
    <path d="M 39.18375 132.008 
L 39.18375 10.04 
" style="fill: none; stroke: #000000; stroke-width: 0.6; stroke-linejoin: miter; stroke-linecap: square"/>
   </g>
   <g id="patch_4">
    <path d="M 39.18375 132.008 
L 195.42375 132.008 
" style="fill: none; stroke: #000000; stroke-width: 0.6; stroke-linejoin: miter; stroke-linecap: square"/>
   </g>
   <g id="legend_1">
    <g id="line2d_17">
     <path d="M 202.62375 20.12 
L 210.02375 20.12 
L 217.42375 20.12 
" style="fill: none; stroke: #ff1f5b; stroke-linecap: square"/>
    </g>
    <g id="text_14">
     <!-- 1 levels -->
     <g transform="translate(223.82375 22.92) scale(0.08 -0.08)">
      <defs>
       <path id="MyriadPro-Regular-20" transform="scale(0.015625)"/>
       <path id="MyriadPro-Regular-76" d="M 83 3098 
L 1261 0 
L 1798 0 
L 3014 3098 
L 2426 3098 
L 1824 1363 
C 1722 1075 1632 819 1562 563 
L 1542 563 
C 1478 819 1395 1075 1293 1363 
L 685 3098 
L 83 3098 
z
" transform="scale(0.015625)"/>
      </defs>
      <use xlink:href="#MyriadPro-Regular-31"/>
      <use xlink:href="#MyriadPro-Regular-20" x="51.299988"/>
      <use xlink:href="#MyriadPro-Regular-6c" x="72.499985"/>
      <use xlink:href="#MyriadPro-Regular-65" x="96.099976"/>
      <use xlink:href="#MyriadPro-Regular-76" x="146.199966"/>
      <use xlink:href="#MyriadPro-Regular-65" x="194.299957"/>
      <use xlink:href="#MyriadPro-Regular-6c" x="244.399948"/>
      <use xlink:href="#MyriadPro-Regular-73" x="267.999939"/>
     </g>
    </g>
    <g id="line2d_18">
     <path d="M 202.62375 31.38375 
L 210.02375 31.38375 
L 217.42375 31.38375 
" style="fill: none; stroke: #00cd6c; stroke-linecap: square"/>
    </g>
    <g id="text_15">
     <!-- 2 levels -->
     <g transform="translate(223.82375 34.18375) scale(0.08 -0.08)">
      <use xlink:href="#MyriadPro-Regular-32"/>
      <use xlink:href="#MyriadPro-Regular-20" x="51.299988"/>
      <use xlink:href="#MyriadPro-Regular-6c" x="72.499985"/>
      <use xlink:href="#MyriadPro-Regular-65" x="96.099976"/>
      <use xlink:href="#MyriadPro-Regular-76" x="146.199966"/>
      <use xlink:href="#MyriadPro-Regular-65" x="194.299957"/>
      <use xlink:href="#MyriadPro-Regular-6c" x="244.399948"/>
      <use xlink:href="#MyriadPro-Regular-73" x="267.999939"/>
     </g>
    </g>
    <g id="line2d_19">
     <path d="M 202.62375 42.6475 
L 210.02375 42.6475 
L 217.42375 42.6475 
" style="fill: none; stroke: #009ade; stroke-linecap: square"/>
    </g>
    <g id="text_16">
     <!-- 3 levels -->
     <g transform="translate(223.82375 45.4475) scale(0.08 -0.08)">
      <use xlink:href="#MyriadPro-Regular-33"/>
      <use xlink:href="#MyriadPro-Regular-20" x="51.299988"/>
      <use xlink:href="#MyriadPro-Regular-6c" x="72.499985"/>
      <use xlink:href="#MyriadPro-Regular-65" x="96.099976"/>
      <use xlink:href="#MyriadPro-Regular-76" x="146.199966"/>
      <use xlink:href="#MyriadPro-Regular-65" x="194.299957"/>
      <use xlink:href="#MyriadPro-Regular-6c" x="244.399948"/>
      <use xlink:href="#MyriadPro-Regular-73" x="267.999939"/>
     </g>
    </g>
    <g id="line2d_20">
     <path d="M 202.62375 53.91125 
L 210.02375 53.91125 
L 217.42375 53.91125 
" style="fill: none; stroke: #af58ba; stroke-linecap: square"/>
    </g>
    <g id="text_17">
     <!-- 4 levels -->
     <g transform="translate(223.82375 56.71125) scale(0.08 -0.08)">
      <defs>
       <path id="MyriadPro-Regular-34" d="M 2560 0 
L 2560 1139 
L 3142 1139 
L 3142 1574 
L 2560 1574 
L 2560 4160 
L 1952 4160 
L 96 1504 
L 96 1139 
L 2029 1139 
L 2029 0 
L 2560 0 
z
M 666 1574 
L 666 1587 
L 1683 3002 
C 1798 3194 1901 3373 2029 3616 
L 2048 3616 
C 2035 3398 2029 3181 2029 2963 
L 2029 1574 
L 666 1574 
z
" transform="scale(0.015625)"/>
      </defs>
      <use xlink:href="#MyriadPro-Regular-34"/>
      <use xlink:href="#MyriadPro-Regular-20" x="51.299988"/>
      <use xlink:href="#MyriadPro-Regular-6c" x="72.499985"/>
      <use xlink:href="#MyriadPro-Regular-65" x="96.099976"/>
      <use xlink:href="#MyriadPro-Regular-76" x="146.199966"/>
      <use xlink:href="#MyriadPro-Regular-65" x="194.299957"/>
      <use xlink:href="#MyriadPro-Regular-6c" x="244.399948"/>
      <use xlink:href="#MyriadPro-Regular-73" x="267.999939"/>
     </g>
    </g>
    <g id="line2d_21">
     <path d="M 202.62375 65.175 
L 210.02375 65.175 
L 217.42375 65.175 
" style="fill: none; stroke: #ffc61e; stroke-linecap: square"/>
    </g>
    <g id="text_18">
     <!-- 5 levels -->
     <g transform="translate(223.82375 67.975) scale(0.08 -0.08)">
      <use xlink:href="#MyriadPro-Regular-35"/>
      <use xlink:href="#MyriadPro-Regular-20" x="51.299988"/>
      <use xlink:href="#MyriadPro-Regular-6c" x="72.499985"/>
      <use xlink:href="#MyriadPro-Regular-65" x="96.099976"/>
      <use xlink:href="#MyriadPro-Regular-76" x="146.199966"/>
      <use xlink:href="#MyriadPro-Regular-65" x="194.299957"/>
      <use xlink:href="#MyriadPro-Regular-6c" x="244.399948"/>
      <use xlink:href="#MyriadPro-Regular-73" x="267.999939"/>
     </g>
    </g>
   </g>
  </g>
 </g>
 <defs>
  <clipPath id="p39a738c68d">
   <rect x="39.18375" y="10.04" width="156.24" height="121.968"/>
  </clipPath>
 </defs>
</svg>
