<?xml version="1.0" encoding="utf-8" standalone="no"?>
<!DOCTYPE svg PUBLIC "-//W3C//DTD SVG 1.1//EN"
  "http://www.w3.org/Graphics/SVG/1.1/DTD/svg11.dtd">
<svg xmlns:xlink="http://www.w3.org/1999/xlink" width="269.24875pt" height="163.7355pt" viewBox="0 0 269.24875 163.7355" xmlns="http://www.w3.org/2000/svg" version="1.1">
 <metadata>
  <rdf:RDF xmlns:dc="http://purl.org/dc/elements/1.1/" xmlns:cc="http://creativecommons.org/ns#" xmlns:rdf="http://www.w3.org/1999/02/22-rdf-syntax-ns#">
   <cc:Work>
    <dc:type rdf:resource="http://purl.org/dc/dcmitype/StillImage"/>
    <dc:date>2023-02-08T20:52:39.729180</dc:date>
    <dc:format>image/svg+xml</dc:format>
    <dc:creator>
     <cc:Agent>
      <dc:title>Matplotlib v3.5.2, https://matplotlib.org/</dc:title>
     </cc:Agent>
    </dc:creator>
   </cc:Work>
  </rdf:RDF>
 </metadata>
 <defs>
  <style type="text/css">*{stroke-linejoin: round; stroke-linecap: butt}</style>
 </defs>
 <g id="figure_1">
  <g id="patch_1">
   <path d="M 0 163.7355 
L 269.24875 163.7355 
L 269.24875 -0 
L 0 -0 
L 0 163.7355 
z
" style="fill: none"/>
  </g>
  <g id="axes_1">
   <g id="patch_2">
    <path d="M 49.60375 132.008 
L 205.84375 132.008 
L 205.84375 10.04 
L 49.60375 10.04 
L 49.60375 132.008 
z
" style="fill: none"/>
   </g>
   <g id="matplotlib.axis_1">
    <g id="xtick_1">
     <g id="line2d_1">
      <defs>
       <path id="m4cd371f86f" d="M 0 0 
L 0 2.5 
" style="stroke: #000000; stroke-width: 0.6"/>
      </defs>
      <g>
       <use xlink:href="#m4cd371f86f" x="49.60375" y="132.008" style="stroke: #000000; stroke-width: 0.6"/>
      </g>
     </g>
     <g id="text_1">
      <!-- 0 -->
      <g transform="translate(47.551875 143.688)scale(0.08 -0.08)">
       <defs>
        <path id="MyriadPro-Regular-30" d="M 1683 4230 
C 838 4230 230 3469 230 2067 
C 243 691 800 -70 1613 -70 
C 2528 -70 3059 710 3059 2125 
C 3059 3450 2554 4230 1683 4230 
z
M 1645 3795 
C 2234 3795 2490 3123 2490 2099 
C 2490 1037 2214 365 1645 365 
C 1133 365 800 979 800 2061 
C 800 3194 1158 3795 1645 3795 
z
" transform="scale(0.015625)"/>
       </defs>
       <use xlink:href="#MyriadPro-Regular-30"/>
      </g>
     </g>
    </g>
    <g id="xtick_2">
     <g id="line2d_2">
      <g>
       <use xlink:href="#m4cd371f86f" x="75.64375" y="132.008" style="stroke: #000000; stroke-width: 0.6"/>
      </g>
     </g>
     <g id="text_2">
      <!-- 25 -->
      <g transform="translate(71.54 143.688)scale(0.08 -0.08)">
       <defs>
        <path id="MyriadPro-Regular-32" d="M 2944 0 
L 2944 467 
L 1082 467 
L 1082 480 
L 1408 787 
C 2285 1632 2842 2253 2842 3021 
C 2842 3616 2464 4230 1568 4230 
C 1094 4230 678 4045 397 3808 
L 576 3411 
C 768 3571 1082 3763 1459 3763 
C 2080 3763 2278 3373 2278 2950 
C 2278 2323 1792 1786 730 774 
L 288 346 
L 288 0 
L 2944 0 
z
" transform="scale(0.015625)"/>
        <path id="MyriadPro-Regular-35" d="M 2771 4160 
L 781 4160 
L 512 2163 
C 666 2182 851 2202 1094 2202 
C 1920 2202 2285 1824 2285 1286 
C 2291 730 1830 384 1306 384 
C 922 384 582 512 410 614 
L 269 186 
C 474 58 851 -70 1306 -70 
C 2208 -70 2854 538 2854 1350 
C 2854 1869 2586 2234 2259 2413 
C 2003 2573 1690 2637 1363 2637 
C 1210 2637 1120 2630 1024 2618 
L 1184 3686 
L 2771 3686 
L 2771 4160 
z
" transform="scale(0.015625)"/>
       </defs>
       <use xlink:href="#MyriadPro-Regular-32"/>
       <use xlink:href="#MyriadPro-Regular-35" x="51.299988"/>
      </g>
     </g>
    </g>
    <g id="xtick_3">
     <g id="line2d_3">
      <g>
       <use xlink:href="#m4cd371f86f" x="101.68375" y="132.008" style="stroke: #000000; stroke-width: 0.6"/>
      </g>
     </g>
     <g id="text_3">
      <!-- 50 -->
      <g transform="translate(97.58 143.688)scale(0.08 -0.08)">
       <use xlink:href="#MyriadPro-Regular-35"/>
       <use xlink:href="#MyriadPro-Regular-30" x="51.299988"/>
      </g>
     </g>
    </g>
    <g id="xtick_4">
     <g id="line2d_4">
      <g>
       <use xlink:href="#m4cd371f86f" x="127.72375" y="132.008" style="stroke: #000000; stroke-width: 0.6"/>
      </g>
     </g>
     <g id="text_4">
      <!-- 75 -->
      <g transform="translate(123.62 143.688)scale(0.08 -0.08)">
       <defs>
        <path id="MyriadPro-Regular-37" d="M 365 4160 
L 365 3693 
L 2400 3693 
L 2400 3680 
L 595 0 
L 1178 0 
L 2989 3789 
L 2989 4160 
L 365 4160 
z
" transform="scale(0.015625)"/>
       </defs>
       <use xlink:href="#MyriadPro-Regular-37"/>
       <use xlink:href="#MyriadPro-Regular-35" x="51.299988"/>
      </g>
     </g>
    </g>
    <g id="xtick_5">
     <g id="line2d_5">
      <g>
       <use xlink:href="#m4cd371f86f" x="153.76375" y="132.008" style="stroke: #000000; stroke-width: 0.6"/>
      </g>
     </g>
     <g id="text_5">
      <!-- 100 -->
      <g transform="translate(147.608125 143.688)scale(0.08 -0.08)">
       <defs>
        <path id="MyriadPro-Regular-31" d="M 1510 0 
L 2054 0 
L 2054 4160 
L 1574 4160 
L 666 3674 
L 774 3245 
L 1498 3635 
L 1510 3635 
L 1510 0 
z
" transform="scale(0.015625)"/>
       </defs>
       <use xlink:href="#MyriadPro-Regular-31"/>
       <use xlink:href="#MyriadPro-Regular-30" x="51.299988"/>
       <use xlink:href="#MyriadPro-Regular-30" x="102.599976"/>
      </g>
     </g>
    </g>
    <g id="xtick_6">
     <g id="line2d_6">
      <g>
       <use xlink:href="#m4cd371f86f" x="179.80375" y="132.008" style="stroke: #000000; stroke-width: 0.6"/>
      </g>
     </g>
     <g id="text_6">
      <!-- 125 -->
      <g transform="translate(173.648125 143.688)scale(0.08 -0.08)">
       <use xlink:href="#MyriadPro-Regular-31"/>
       <use xlink:href="#MyriadPro-Regular-32" x="51.299988"/>
       <use xlink:href="#MyriadPro-Regular-35" x="102.599976"/>
      </g>
     </g>
    </g>
    <g id="xtick_7">
     <g id="line2d_7">
      <g>
       <use xlink:href="#m4cd371f86f" x="205.84375" y="132.008" style="stroke: #000000; stroke-width: 0.6"/>
      </g>
     </g>
     <g id="text_7">
      <!-- 150 -->
      <g transform="translate(199.688125 143.688)scale(0.08 -0.08)">
       <use xlink:href="#MyriadPro-Regular-31"/>
       <use xlink:href="#MyriadPro-Regular-35" x="51.299988"/>
       <use xlink:href="#MyriadPro-Regular-30" x="102.599976"/>
      </g>
     </g>
    </g>
    <g id="text_8">
     <!-- epoch -->
     <g transform="translate(117.235625 154.95175)scale(0.08 -0.08)">
      <defs>
       <path id="MyriadPro-Regular-65" d="M 2957 1446 
C 2970 1510 2976 1594 2976 1709 
C 2976 2278 2714 3162 1696 3162 
C 794 3162 243 2432 243 1498 
C 243 563 813 -70 1766 -70 
C 2259 -70 2605 38 2803 128 
L 2701 531 
C 2496 442 2246 371 1843 371 
C 1274 371 794 685 781 1446 
L 2957 1446 
z
M 787 1850 
C 832 2240 1075 2758 1651 2758 
C 2285 2758 2438 2202 2432 1850 
L 787 1850 
z
" transform="scale(0.015625)"/>
       <path id="MyriadPro-Regular-70" d="M 467 -1267 
L 1024 -1267 
L 1024 416 
L 1037 416 
C 1222 109 1581 -70 1990 -70 
C 2720 -70 3405 480 3405 1594 
C 3405 2528 2842 3162 2086 3162 
C 1581 3162 1210 2944 986 2566 
L 973 2566 
L 941 3098 
L 442 3098 
C 454 2803 467 2483 467 2086 
L 467 -1267 
z
M 1024 1798 
C 1024 1869 1043 1952 1062 2022 
C 1165 2445 1530 2714 1914 2714 
C 2509 2714 2835 2182 2835 1568 
C 2835 858 2490 371 1894 371 
C 1491 371 1152 640 1050 1030 
C 1030 1101 1024 1178 1024 1261 
L 1024 1798 
z
" transform="scale(0.015625)"/>
       <path id="MyriadPro-Regular-6f" d="M 1779 3162 
C 928 3162 243 2554 243 1523 
C 243 544 896 -70 1728 -70 
C 2470 -70 3270 429 3270 1574 
C 3270 2515 2669 3162 1779 3162 
z
M 1766 2739 
C 2432 2739 2694 2080 2694 1555 
C 2694 858 2291 352 1754 352 
C 1203 352 819 864 819 1542 
C 819 2125 1107 2739 1766 2739 
z
" transform="scale(0.015625)"/>
       <path id="MyriadPro-Regular-63" d="M 2579 531 
C 2419 461 2208 384 1888 384 
C 1274 384 813 826 813 1542 
C 813 2182 1197 2714 1907 2714 
C 2214 2714 2426 2637 2560 2566 
L 2688 2995 
C 2534 3078 2240 3162 1907 3162 
C 896 3162 243 2464 243 1510 
C 243 563 851 -70 1786 -70 
C 2202 -70 2528 38 2675 109 
L 2579 531 
z
" transform="scale(0.015625)"/>
       <path id="MyriadPro-Regular-68" d="M 467 0 
L 1030 0 
L 1030 1869 
C 1030 1971 1037 2054 1069 2138 
C 1178 2438 1459 2694 1824 2694 
C 2355 2694 2541 2278 2541 1779 
L 2541 0 
L 3104 0 
L 3104 1843 
C 3104 2906 2438 3162 2022 3162 
C 1811 3162 1613 3104 1446 3008 
C 1274 2912 1133 2765 1043 2605 
L 1030 2605 
L 1030 4544 
L 467 4544 
L 467 0 
z
" transform="scale(0.015625)"/>
      </defs>
      <use xlink:href="#MyriadPro-Regular-65"/>
      <use xlink:href="#MyriadPro-Regular-70" x="50.099991"/>
      <use xlink:href="#MyriadPro-Regular-6f" x="106.999985"/>
      <use xlink:href="#MyriadPro-Regular-63" x="161.899979"/>
      <use xlink:href="#MyriadPro-Regular-68" x="206.699966"/>
     </g>
    </g>
   </g>
   <g id="matplotlib.axis_2">
    <g id="ytick_1">
     <g id="line2d_8">
      <defs>
       <path id="m56f3a9ced1" d="M 0 0 
L -2.5 0 
" style="stroke: #000000; stroke-width: 0.6"/>
      </defs>
      <g>
       <use xlink:href="#m56f3a9ced1" x="49.60375" y="132.008" style="stroke: #000000; stroke-width: 0.6"/>
      </g>
     </g>
     <g id="text_9">
      <!-- $\mathdefault{10^{-1}}$ -->
      <g transform="translate(28.88375 134.848)scale(0.08 -0.08)">
       <defs>
        <path id="MyriadPro-Regular-2212" d="M 256 1901 
L 256 1517 
L 3558 1517 
L 3558 1901 
L 256 1901 
z
" transform="scale(0.015625)"/>
       </defs>
       <use xlink:href="#MyriadPro-Regular-31" transform="translate(0 0.615625)"/>
       <use xlink:href="#MyriadPro-Regular-30" transform="translate(51.299988 0.615625)"/>
       <use xlink:href="#MyriadPro-Regular-2212" transform="translate(103.447085 34.5)scale(0.7)"/>
       <use xlink:href="#MyriadPro-Regular-31" transform="translate(145.167079 34.5)scale(0.7)"/>
      </g>
     </g>
    </g>
    <g id="ytick_2">
     <g id="line2d_9">
      <g>
       <use xlink:href="#m56f3a9ced1" x="49.60375" y="10.04" style="stroke: #000000; stroke-width: 0.6"/>
      </g>
     </g>
     <g id="text_10">
      <!-- $\mathdefault{10^{0}}$ -->
      <g transform="translate(32.24375 12.88)scale(0.08 -0.08)">
       <use xlink:href="#MyriadPro-Regular-31" transform="translate(0 0.85)"/>
       <use xlink:href="#MyriadPro-Regular-30" transform="translate(51.299988 0.85)"/>
       <use xlink:href="#MyriadPro-Regular-30" transform="translate(103.447085 34.734375)scale(0.7)"/>
      </g>
     </g>
    </g>
    <g id="ytick_3">
     <g id="line2d_10">
      <defs>
       <path id="mf6152e7c63" d="M 0 0 
L -1.5 0 
" style="stroke: #000000; stroke-width: 0.4"/>
      </defs>
      <g>
       <use xlink:href="#mf6152e7c63" x="49.60375" y="95.291973" style="stroke: #000000; stroke-width: 0.4"/>
      </g>
     </g>
     <g id="text_11">
      <!-- $\mathdefault{2\times10^{-1}}$ -->
      <g transform="translate(18.46375 98.131973)scale(0.08 -0.08)">
       <defs>
        <path id="MyriadPro-Regular-d7" d="M 256 3085 
L 1626 1683 
L 256 282 
L 538 0 
L 1907 1402 
L 3277 0 
L 3558 282 
L 2182 1683 
L 3558 3085 
L 3277 3366 
L 1907 1965 
L 538 3366 
L 256 3085 
z
" transform="scale(0.015625)"/>
       </defs>
       <use xlink:href="#MyriadPro-Regular-32" transform="translate(0 0.615625)"/>
       <use xlink:href="#MyriadPro-Regular-d7" transform="translate(67.979987 0.615625)"/>
       <use xlink:href="#MyriadPro-Regular-31" transform="translate(144.259976 0.615625)"/>
       <use xlink:href="#MyriadPro-Regular-30" transform="translate(195.559964 0.615625)"/>
       <use xlink:href="#MyriadPro-Regular-2212" transform="translate(247.707061 34.5)scale(0.7)"/>
       <use xlink:href="#MyriadPro-Regular-31" transform="translate(289.427055 34.5)scale(0.7)"/>
      </g>
     </g>
    </g>
    <g id="ytick_4">
     <g id="line2d_11">
      <g>
       <use xlink:href="#mf6152e7c63" x="49.60375" y="73.814475" style="stroke: #000000; stroke-width: 0.4"/>
      </g>
     </g>
     <g id="text_12">
      <!-- $\mathdefault{3\times10^{-1}}$ -->
      <g transform="translate(18.46375 76.654475)scale(0.08 -0.08)">
       <defs>
        <path id="MyriadPro-Regular-33" d="M 269 211 
C 474 77 883 -70 1350 -70 
C 2342 -70 2867 512 2867 1178 
C 2861 1760 2451 2144 1939 2240 
L 1939 2253 
C 2445 2438 2707 2803 2707 3238 
C 2707 3744 2336 4230 1517 4230 
C 1069 4230 646 4070 422 3910 
L 576 3501 
C 755 3629 1075 3776 1408 3776 
C 1926 3776 2138 3482 2138 3149 
C 2138 2656 1619 2445 1210 2445 
L 896 2445 
L 896 2022 
L 1210 2022 
C 1754 2022 2278 1773 2285 1190 
C 2291 838 2061 384 1344 384 
C 947 384 582 544 422 640 
L 269 211 
z
" transform="scale(0.015625)"/>
       </defs>
       <use xlink:href="#MyriadPro-Regular-33" transform="translate(0 0.615625)"/>
       <use xlink:href="#MyriadPro-Regular-d7" transform="translate(67.979987 0.615625)"/>
       <use xlink:href="#MyriadPro-Regular-31" transform="translate(144.259976 0.615625)"/>
       <use xlink:href="#MyriadPro-Regular-30" transform="translate(195.559964 0.615625)"/>
       <use xlink:href="#MyriadPro-Regular-2212" transform="translate(247.707061 34.5)scale(0.7)"/>
       <use xlink:href="#MyriadPro-Regular-31" transform="translate(289.427055 34.5)scale(0.7)"/>
      </g>
     </g>
    </g>
    <g id="ytick_5">
     <g id="line2d_12">
      <g>
       <use xlink:href="#mf6152e7c63" x="49.60375" y="58.575947" style="stroke: #000000; stroke-width: 0.4"/>
      </g>
     </g>
     <g id="text_13">
      <!-- $\mathdefault{4\times10^{-1}}$ -->
      <g transform="translate(18.46375 61.415947)scale(0.08 -0.08)">
       <defs>
        <path id="MyriadPro-Regular-34" d="M 2560 0 
L 2560 1139 
L 3142 1139 
L 3142 1574 
L 2560 1574 
L 2560 4160 
L 1952 4160 
L 96 1504 
L 96 1139 
L 2029 1139 
L 2029 0 
L 2560 0 
z
M 666 1574 
L 666 1587 
L 1683 3002 
C 1798 3194 1901 3373 2029 3616 
L 2048 3616 
C 2035 3398 2029 3181 2029 2963 
L 2029 1574 
L 666 1574 
z
" transform="scale(0.015625)"/>
       </defs>
       <use xlink:href="#MyriadPro-Regular-34" transform="translate(0 0.615625)"/>
       <use xlink:href="#MyriadPro-Regular-d7" transform="translate(67.979987 0.615625)"/>
       <use xlink:href="#MyriadPro-Regular-31" transform="translate(144.259976 0.615625)"/>
       <use xlink:href="#MyriadPro-Regular-30" transform="translate(195.559964 0.615625)"/>
       <use xlink:href="#MyriadPro-Regular-2212" transform="translate(247.707061 34.5)scale(0.7)"/>
       <use xlink:href="#MyriadPro-Regular-31" transform="translate(289.427055 34.5)scale(0.7)"/>
      </g>
     </g>
    </g>
    <g id="ytick_6">
     <g id="line2d_13">
      <g>
       <use xlink:href="#mf6152e7c63" x="49.60375" y="46.756027" style="stroke: #000000; stroke-width: 0.4"/>
      </g>
     </g>
    </g>
    <g id="ytick_7">
     <g id="line2d_14">
      <g>
       <use xlink:href="#mf6152e7c63" x="49.60375" y="37.098448" style="stroke: #000000; stroke-width: 0.4"/>
      </g>
     </g>
     <g id="text_14">
      <!-- $\mathdefault{6\times10^{-1}}$ -->
      <g transform="translate(18.46375 39.938448)scale(0.08 -0.08)">
       <defs>
        <path id="MyriadPro-Regular-36" d="M 2662 4224 
C 2560 4224 2419 4218 2253 4192 
C 1728 4128 1267 3917 922 3578 
C 506 3168 218 2522 218 1702 
C 218 621 800 -70 1683 -70 
C 2554 -70 3072 634 3072 1402 
C 3072 2208 2554 2746 1818 2746 
C 1357 2746 1005 2528 806 2259 
L 794 2259 
C 890 2950 1350 3590 2240 3731 
C 2400 3757 2547 3770 2662 3763 
L 2662 4224 
z
M 1696 365 
C 1101 365 781 877 774 1562 
C 774 1664 800 1741 832 1805 
C 986 2112 1306 2317 1645 2317 
C 2163 2317 2502 1958 2502 1363 
C 2502 768 2176 365 1696 365 
z
" transform="scale(0.015625)"/>
       </defs>
       <use xlink:href="#MyriadPro-Regular-36" transform="translate(0 0.615625)"/>
       <use xlink:href="#MyriadPro-Regular-d7" transform="translate(67.979987 0.615625)"/>
       <use xlink:href="#MyriadPro-Regular-31" transform="translate(144.259976 0.615625)"/>
       <use xlink:href="#MyriadPro-Regular-30" transform="translate(195.559964 0.615625)"/>
       <use xlink:href="#MyriadPro-Regular-2212" transform="translate(247.707061 34.5)scale(0.7)"/>
       <use xlink:href="#MyriadPro-Regular-31" transform="translate(289.427055 34.5)scale(0.7)"/>
      </g>
     </g>
    </g>
    <g id="ytick_8">
     <g id="line2d_15">
      <g>
       <use xlink:href="#mf6152e7c63" x="49.60375" y="28.933082" style="stroke: #000000; stroke-width: 0.4"/>
      </g>
     </g>
    </g>
    <g id="ytick_9">
     <g id="line2d_16">
      <g>
       <use xlink:href="#mf6152e7c63" x="49.60375" y="21.85992" style="stroke: #000000; stroke-width: 0.4"/>
      </g>
     </g>
    </g>
    <g id="ytick_10">
     <g id="line2d_17">
      <g>
       <use xlink:href="#mf6152e7c63" x="49.60375" y="15.62095" style="stroke: #000000; stroke-width: 0.4"/>
      </g>
     </g>
    </g>
    <g id="text_15">
     <!-- error -->
     <g transform="translate(12.88 79.148375)rotate(-90)scale(0.08 -0.08)">
      <defs>
       <path id="MyriadPro-Regular-72" d="M 467 0 
L 1030 0 
L 1030 1651 
C 1030 1741 1037 1837 1050 1914 
C 1126 2336 1408 2630 1805 2630 
C 1882 2630 1939 2630 1997 2618 
L 1997 3149 
C 1946 3155 1901 3162 1843 3162 
C 1466 3162 1120 2899 979 2483 
L 960 2483 
L 934 3098 
L 442 3098 
C 461 2810 467 2496 467 2131 
L 467 0 
z
" transform="scale(0.015625)"/>
      </defs>
      <use xlink:href="#MyriadPro-Regular-65"/>
      <use xlink:href="#MyriadPro-Regular-72" x="50.099991"/>
      <use xlink:href="#MyriadPro-Regular-72" x="82.799988"/>
      <use xlink:href="#MyriadPro-Regular-6f" x="115.499985"/>
      <use xlink:href="#MyriadPro-Regular-72" x="170.399979"/>
     </g>
    </g>
   </g>
   <g id="line2d_18">
    <path d="M 60.01975 28.73676 
L 70.43575 28.904338 
L 80.85175 29.523991 
L 91.26775 29.914876 
L 101.68375 30.435343 
L 112.09975 30.977619 
L 122.51575 31.560015 
L 132.93175 32.179675 
L 143.34775 32.847976 
L 153.76375 33.554543 
L 164.17975 34.297782 
L 174.59575 35.079202 
L 185.01175 35.895171 
L 195.42775 36.745293 
L 205.84375 37.629363 
" clip-path="url(#peab9bda53b)" style="fill: none; stroke: #ff1f5b; stroke-linecap: square"/>
    <defs>
     <path id="m26fe5d0e85" d="M 0 0.5 
C 0.132602 0.5 0.25979 0.447317 0.353553 0.353553 
C 0.447317 0.25979 0.5 0.132602 0.5 0 
C 0.5 -0.132602 0.447317 -0.25979 0.353553 -0.353553 
C 0.25979 -0.447317 0.132602 -0.5 0 -0.5 
C -0.132602 -0.5 -0.25979 -0.447317 -0.353553 -0.353553 
C -0.447317 -0.25979 -0.5 -0.132602 -0.5 0 
C -0.5 0.132602 -0.447317 0.25979 -0.353553 0.353553 
C -0.25979 0.447317 -0.132602 0.5 0 0.5 
z
" style="stroke: #ff1f5b"/>
    </defs>
    <g clip-path="url(#peab9bda53b)">
     <use xlink:href="#m26fe5d0e85" x="60.01975" y="28.73676" style="fill: #ff1f5b; stroke: #ff1f5b"/>
     <use xlink:href="#m26fe5d0e85" x="70.43575" y="28.904338" style="fill: #ff1f5b; stroke: #ff1f5b"/>
     <use xlink:href="#m26fe5d0e85" x="80.85175" y="29.523991" style="fill: #ff1f5b; stroke: #ff1f5b"/>
     <use xlink:href="#m26fe5d0e85" x="91.26775" y="29.914876" style="fill: #ff1f5b; stroke: #ff1f5b"/>
     <use xlink:href="#m26fe5d0e85" x="101.68375" y="30.435343" style="fill: #ff1f5b; stroke: #ff1f5b"/>
     <use xlink:href="#m26fe5d0e85" x="112.09975" y="30.977619" style="fill: #ff1f5b; stroke: #ff1f5b"/>
     <use xlink:href="#m26fe5d0e85" x="122.51575" y="31.560015" style="fill: #ff1f5b; stroke: #ff1f5b"/>
     <use xlink:href="#m26fe5d0e85" x="132.93175" y="32.179675" style="fill: #ff1f5b; stroke: #ff1f5b"/>
     <use xlink:href="#m26fe5d0e85" x="143.34775" y="32.847976" style="fill: #ff1f5b; stroke: #ff1f5b"/>
     <use xlink:href="#m26fe5d0e85" x="153.76375" y="33.554543" style="fill: #ff1f5b; stroke: #ff1f5b"/>
     <use xlink:href="#m26fe5d0e85" x="164.17975" y="34.297782" style="fill: #ff1f5b; stroke: #ff1f5b"/>
     <use xlink:href="#m26fe5d0e85" x="174.59575" y="35.079202" style="fill: #ff1f5b; stroke: #ff1f5b"/>
     <use xlink:href="#m26fe5d0e85" x="185.01175" y="35.895171" style="fill: #ff1f5b; stroke: #ff1f5b"/>
     <use xlink:href="#m26fe5d0e85" x="195.42775" y="36.745293" style="fill: #ff1f5b; stroke: #ff1f5b"/>
     <use xlink:href="#m26fe5d0e85" x="205.84375" y="37.629363" style="fill: #ff1f5b; stroke: #ff1f5b"/>
    </g>
   </g>
   <g id="line2d_19">
    <path d="M 60.01975 28.514968 
L 70.43575 30.524164 
L 80.85175 32.319699 
L 91.26775 34.321444 
L 101.68375 36.630115 
L 112.09975 39.061296 
L 122.51575 41.815867 
L 132.93175 44.714077 
L 143.34775 47.855436 
L 153.76375 51.17548 
L 164.17975 54.69751 
L 174.59575 58.393984 
L 185.01175 62.275097 
L 195.42775 66.32715 
L 205.84375 70.551438 
" clip-path="url(#peab9bda53b)" style="fill: none; stroke: #00cd6c; stroke-linecap: square"/>
    <defs>
     <path id="m8f4b5e3020" d="M 0 0.5 
C 0.132602 0.5 0.25979 0.447317 0.353553 0.353553 
C 0.447317 0.25979 0.5 0.132602 0.5 0 
C 0.5 -0.132602 0.447317 -0.25979 0.353553 -0.353553 
C 0.25979 -0.447317 0.132602 -0.5 0 -0.5 
C -0.132602 -0.5 -0.25979 -0.447317 -0.353553 -0.353553 
C -0.447317 -0.25979 -0.5 -0.132602 -0.5 0 
C -0.5 0.132602 -0.447317 0.25979 -0.353553 0.353553 
C -0.25979 0.447317 -0.132602 0.5 0 0.5 
z
" style="stroke: #00cd6c"/>
    </defs>
    <g clip-path="url(#peab9bda53b)">
     <use xlink:href="#m8f4b5e3020" x="60.01975" y="28.514968" style="fill: #00cd6c; stroke: #00cd6c"/>
     <use xlink:href="#m8f4b5e3020" x="70.43575" y="30.524164" style="fill: #00cd6c; stroke: #00cd6c"/>
     <use xlink:href="#m8f4b5e3020" x="80.85175" y="32.319699" style="fill: #00cd6c; stroke: #00cd6c"/>
     <use xlink:href="#m8f4b5e3020" x="91.26775" y="34.321444" style="fill: #00cd6c; stroke: #00cd6c"/>
     <use xlink:href="#m8f4b5e3020" x="101.68375" y="36.630115" style="fill: #00cd6c; stroke: #00cd6c"/>
     <use xlink:href="#m8f4b5e3020" x="112.09975" y="39.061296" style="fill: #00cd6c; stroke: #00cd6c"/>
     <use xlink:href="#m8f4b5e3020" x="122.51575" y="41.815867" style="fill: #00cd6c; stroke: #00cd6c"/>
     <use xlink:href="#m8f4b5e3020" x="132.93175" y="44.714077" style="fill: #00cd6c; stroke: #00cd6c"/>
     <use xlink:href="#m8f4b5e3020" x="143.34775" y="47.855436" style="fill: #00cd6c; stroke: #00cd6c"/>
     <use xlink:href="#m8f4b5e3020" x="153.76375" y="51.17548" style="fill: #00cd6c; stroke: #00cd6c"/>
     <use xlink:href="#m8f4b5e3020" x="164.17975" y="54.69751" style="fill: #00cd6c; stroke: #00cd6c"/>
     <use xlink:href="#m8f4b5e3020" x="174.59575" y="58.393984" style="fill: #00cd6c; stroke: #00cd6c"/>
     <use xlink:href="#m8f4b5e3020" x="185.01175" y="62.275097" style="fill: #00cd6c; stroke: #00cd6c"/>
     <use xlink:href="#m8f4b5e3020" x="195.42775" y="66.32715" style="fill: #00cd6c; stroke: #00cd6c"/>
     <use xlink:href="#m8f4b5e3020" x="205.84375" y="70.551438" style="fill: #00cd6c; stroke: #00cd6c"/>
    </g>
   </g>
   <g id="line2d_20">
    <path d="M 60.01975 29.237927 
L 70.43575 32.700296 
L 80.85175 36.282776 
L 91.26775 40.36718 
L 101.68375 45.030268 
L 112.09975 50.182965 
L 122.51575 55.854158 
L 132.93175 62.012525 
L 143.34775 68.629796 
L 153.76375 75.677804 
L 164.17975 83.156579 
L 174.59575 91.037526 
L 185.01175 99.303233 
L 195.42775 107.907327 
L 205.84375 116.829362 
" clip-path="url(#peab9bda53b)" style="fill: none; stroke: #009ade; stroke-linecap: square"/>
    <defs>
     <path id="m2fdb4b4850" d="M 0 0.5 
C 0.132602 0.5 0.25979 0.447317 0.353553 0.353553 
C 0.447317 0.25979 0.5 0.132602 0.5 0 
C 0.5 -0.132602 0.447317 -0.25979 0.353553 -0.353553 
C 0.25979 -0.447317 0.132602 -0.5 0 -0.5 
C -0.132602 -0.5 -0.25979 -0.447317 -0.353553 -0.353553 
C -0.447317 -0.25979 -0.5 -0.132602 -0.5 0 
C -0.5 0.132602 -0.447317 0.25979 -0.353553 0.353553 
C -0.25979 0.447317 -0.132602 0.5 0 0.5 
z
" style="stroke: #009ade"/>
    </defs>
    <g clip-path="url(#peab9bda53b)">
     <use xlink:href="#m2fdb4b4850" x="60.01975" y="29.237927" style="fill: #009ade; stroke: #009ade"/>
     <use xlink:href="#m2fdb4b4850" x="70.43575" y="32.700296" style="fill: #009ade; stroke: #009ade"/>
     <use xlink:href="#m2fdb4b4850" x="80.85175" y="36.282776" style="fill: #009ade; stroke: #009ade"/>
     <use xlink:href="#m2fdb4b4850" x="91.26775" y="40.36718" style="fill: #009ade; stroke: #009ade"/>
     <use xlink:href="#m2fdb4b4850" x="101.68375" y="45.030268" style="fill: #009ade; stroke: #009ade"/>
     <use xlink:href="#m2fdb4b4850" x="112.09975" y="50.182965" style="fill: #009ade; stroke: #009ade"/>
     <use xlink:href="#m2fdb4b4850" x="122.51575" y="55.854158" style="fill: #009ade; stroke: #009ade"/>
     <use xlink:href="#m2fdb4b4850" x="132.93175" y="62.012525" style="fill: #009ade; stroke: #009ade"/>
     <use xlink:href="#m2fdb4b4850" x="143.34775" y="68.629796" style="fill: #009ade; stroke: #009ade"/>
     <use xlink:href="#m2fdb4b4850" x="153.76375" y="75.677804" style="fill: #009ade; stroke: #009ade"/>
     <use xlink:href="#m2fdb4b4850" x="164.17975" y="83.156579" style="fill: #009ade; stroke: #009ade"/>
     <use xlink:href="#m2fdb4b4850" x="174.59575" y="91.037526" style="fill: #009ade; stroke: #009ade"/>
     <use xlink:href="#m2fdb4b4850" x="185.01175" y="99.303233" style="fill: #009ade; stroke: #009ade"/>
     <use xlink:href="#m2fdb4b4850" x="195.42775" y="107.907327" style="fill: #009ade; stroke: #009ade"/>
     <use xlink:href="#m2fdb4b4850" x="205.84375" y="116.829362" style="fill: #009ade; stroke: #009ade"/>
    </g>
   </g>
   <g id="line2d_21">
    <path d="M 60.01975 38.863698 
L 70.43575 48.398861 
L 80.85175 52.95872 
L 91.26775 57.616343 
L 101.68375 57.668581 
L 112.09975 56.5847 
L 122.51575 56.95881 
L 132.93175 58.815492 
L 143.34775 61.178403 
L 153.76375 64.590671 
L 164.17975 68.480697 
L 174.59575 72.589259 
L 185.01175 76.881932 
L 195.42775 81.255691 
L 205.84375 85.720538 
" clip-path="url(#peab9bda53b)" style="fill: none; stroke: #af58ba; stroke-linecap: square"/>
    <defs>
     <path id="m27cd4bb045" d="M 0 0.5 
C 0.132602 0.5 0.25979 0.447317 0.353553 0.353553 
C 0.447317 0.25979 0.5 0.132602 0.5 0 
C 0.5 -0.132602 0.447317 -0.25979 0.353553 -0.353553 
C 0.25979 -0.447317 0.132602 -0.5 0 -0.5 
C -0.132602 -0.5 -0.25979 -0.447317 -0.353553 -0.353553 
C -0.447317 -0.25979 -0.5 -0.132602 -0.5 0 
C -0.5 0.132602 -0.447317 0.25979 -0.353553 0.353553 
C -0.25979 0.447317 -0.132602 0.5 0 0.5 
z
" style="stroke: #af58ba"/>
    </defs>
    <g clip-path="url(#peab9bda53b)">
     <use xlink:href="#m27cd4bb045" x="60.01975" y="38.863698" style="fill: #af58ba; stroke: #af58ba"/>
     <use xlink:href="#m27cd4bb045" x="70.43575" y="48.398861" style="fill: #af58ba; stroke: #af58ba"/>
     <use xlink:href="#m27cd4bb045" x="80.85175" y="52.95872" style="fill: #af58ba; stroke: #af58ba"/>
     <use xlink:href="#m27cd4bb045" x="91.26775" y="57.616343" style="fill: #af58ba; stroke: #af58ba"/>
     <use xlink:href="#m27cd4bb045" x="101.68375" y="57.668581" style="fill: #af58ba; stroke: #af58ba"/>
     <use xlink:href="#m27cd4bb045" x="112.09975" y="56.5847" style="fill: #af58ba; stroke: #af58ba"/>
     <use xlink:href="#m27cd4bb045" x="122.51575" y="56.95881" style="fill: #af58ba; stroke: #af58ba"/>
     <use xlink:href="#m27cd4bb045" x="132.93175" y="58.815492" style="fill: #af58ba; stroke: #af58ba"/>
     <use xlink:href="#m27cd4bb045" x="143.34775" y="61.178403" style="fill: #af58ba; stroke: #af58ba"/>
     <use xlink:href="#m27cd4bb045" x="153.76375" y="64.590671" style="fill: #af58ba; stroke: #af58ba"/>
     <use xlink:href="#m27cd4bb045" x="164.17975" y="68.480697" style="fill: #af58ba; stroke: #af58ba"/>
     <use xlink:href="#m27cd4bb045" x="174.59575" y="72.589259" style="fill: #af58ba; stroke: #af58ba"/>
     <use xlink:href="#m27cd4bb045" x="185.01175" y="76.881932" style="fill: #af58ba; stroke: #af58ba"/>
     <use xlink:href="#m27cd4bb045" x="195.42775" y="81.255691" style="fill: #af58ba; stroke: #af58ba"/>
     <use xlink:href="#m27cd4bb045" x="205.84375" y="85.720538" style="fill: #af58ba; stroke: #af58ba"/>
    </g>
   </g>
   <g id="line2d_22">
    <path d="M 60.01975 38.629426 
L 70.43575 47.213543 
L 80.85175 50.279419 
L 91.26775 54.096283 
L 101.68375 54.382478 
L 112.09975 53.599861 
L 122.51575 54.35339 
L 132.93175 56.889604 
L 143.34775 60.592959 
L 153.76375 65.017112 
L 164.17975 70.454261 
L 174.59575 76.138431 
L 185.01175 82.123199 
L 195.42775 88.237826 
L 205.84375 94.508518 
" clip-path="url(#peab9bda53b)" style="fill: none; stroke: #ffc61e; stroke-linecap: square"/>
    <defs>
     <path id="m1b6a255299" d="M 0 0.5 
C 0.132602 0.5 0.25979 0.447317 0.353553 0.353553 
C 0.447317 0.25979 0.5 0.132602 0.5 0 
C 0.5 -0.132602 0.447317 -0.25979 0.353553 -0.353553 
C 0.25979 -0.447317 0.132602 -0.5 0 -0.5 
C -0.132602 -0.5 -0.25979 -0.447317 -0.353553 -0.353553 
C -0.447317 -0.25979 -0.5 -0.132602 -0.5 0 
C -0.5 0.132602 -0.447317 0.25979 -0.353553 0.353553 
C -0.25979 0.447317 -0.132602 0.5 0 0.5 
z
" style="stroke: #ffc61e"/>
    </defs>
    <g clip-path="url(#peab9bda53b)">
     <use xlink:href="#m1b6a255299" x="60.01975" y="38.629426" style="fill: #ffc61e; stroke: #ffc61e"/>
     <use xlink:href="#m1b6a255299" x="70.43575" y="47.213543" style="fill: #ffc61e; stroke: #ffc61e"/>
     <use xlink:href="#m1b6a255299" x="80.85175" y="50.279419" style="fill: #ffc61e; stroke: #ffc61e"/>
     <use xlink:href="#m1b6a255299" x="91.26775" y="54.096283" style="fill: #ffc61e; stroke: #ffc61e"/>
     <use xlink:href="#m1b6a255299" x="101.68375" y="54.382478" style="fill: #ffc61e; stroke: #ffc61e"/>
     <use xlink:href="#m1b6a255299" x="112.09975" y="53.599861" style="fill: #ffc61e; stroke: #ffc61e"/>
     <use xlink:href="#m1b6a255299" x="122.51575" y="54.35339" style="fill: #ffc61e; stroke: #ffc61e"/>
     <use xlink:href="#m1b6a255299" x="132.93175" y="56.889604" style="fill: #ffc61e; stroke: #ffc61e"/>
     <use xlink:href="#m1b6a255299" x="143.34775" y="60.592959" style="fill: #ffc61e; stroke: #ffc61e"/>
     <use xlink:href="#m1b6a255299" x="153.76375" y="65.017112" style="fill: #ffc61e; stroke: #ffc61e"/>
     <use xlink:href="#m1b6a255299" x="164.17975" y="70.454261" style="fill: #ffc61e; stroke: #ffc61e"/>
     <use xlink:href="#m1b6a255299" x="174.59575" y="76.138431" style="fill: #ffc61e; stroke: #ffc61e"/>
     <use xlink:href="#m1b6a255299" x="185.01175" y="82.123199" style="fill: #ffc61e; stroke: #ffc61e"/>
     <use xlink:href="#m1b6a255299" x="195.42775" y="88.237826" style="fill: #ffc61e; stroke: #ffc61e"/>
     <use xlink:href="#m1b6a255299" x="205.84375" y="94.508518" style="fill: #ffc61e; stroke: #ffc61e"/>
    </g>
   </g>
   <g id="patch_3">
    <path d="M 49.60375 132.008 
L 49.60375 10.04 
" style="fill: none; stroke: #000000; stroke-width: 0.6; stroke-linejoin: miter; stroke-linecap: square"/>
   </g>
   <g id="patch_4">
    <path d="M 49.60375 132.008 
L 205.84375 132.008 
" style="fill: none; stroke: #000000; stroke-width: 0.6; stroke-linejoin: miter; stroke-linecap: square"/>
   </g>
   <g id="legend_1">
    <g id="line2d_23">
     <path d="M 213.04375 20.12 
L 220.44375 20.12 
L 227.84375 20.12 
" style="fill: none; stroke: #ff1f5b; stroke-linecap: square"/>
     <g>
      <use xlink:href="#m26fe5d0e85" x="220.44375" y="20.12" style="fill: #ff1f5b; stroke: #ff1f5b"/>
     </g>
    </g>
    <g id="text_16">
     <!-- 1 levels -->
     <g transform="translate(234.24375 22.92)scale(0.08 -0.08)">
      <defs>
       <path id="MyriadPro-Regular-20" transform="scale(0.015625)"/>
       <path id="MyriadPro-Regular-6c" d="M 467 0 
L 1030 0 
L 1030 4544 
L 467 4544 
L 467 0 
z
" transform="scale(0.015625)"/>
       <path id="MyriadPro-Regular-76" d="M 83 3098 
L 1261 0 
L 1798 0 
L 3014 3098 
L 2426 3098 
L 1824 1363 
C 1722 1075 1632 819 1562 563 
L 1542 563 
C 1478 819 1395 1075 1293 1363 
L 685 3098 
L 83 3098 
z
" transform="scale(0.015625)"/>
       <path id="MyriadPro-Regular-73" d="M 256 147 
C 474 19 787 -70 1126 -70 
C 1850 -70 2278 314 2278 864 
C 2278 1325 1997 1594 1466 1792 
C 1062 1952 883 2067 883 2323 
C 883 2554 1062 2746 1395 2746 
C 1683 2746 1907 2637 2029 2560 
L 2163 2970 
C 1997 3078 1722 3162 1408 3162 
C 749 3162 339 2752 339 2253 
C 339 1882 602 1581 1165 1376 
C 1574 1222 1734 1082 1734 813 
C 1734 550 1542 352 1139 352 
C 858 352 563 467 390 570 
L 256 147 
z
" transform="scale(0.015625)"/>
      </defs>
      <use xlink:href="#MyriadPro-Regular-31"/>
      <use xlink:href="#MyriadPro-Regular-20" x="51.299988"/>
      <use xlink:href="#MyriadPro-Regular-6c" x="72.499985"/>
      <use xlink:href="#MyriadPro-Regular-65" x="96.099976"/>
      <use xlink:href="#MyriadPro-Regular-76" x="146.199966"/>
      <use xlink:href="#MyriadPro-Regular-65" x="194.299957"/>
      <use xlink:href="#MyriadPro-Regular-6c" x="244.399948"/>
      <use xlink:href="#MyriadPro-Regular-73" x="267.999939"/>
     </g>
    </g>
    <g id="line2d_24">
     <path d="M 213.04375 31.38375 
L 220.44375 31.38375 
L 227.84375 31.38375 
" style="fill: none; stroke: #00cd6c; stroke-linecap: square"/>
     <g>
      <use xlink:href="#m8f4b5e3020" x="220.44375" y="31.38375" style="fill: #00cd6c; stroke: #00cd6c"/>
     </g>
    </g>
    <g id="text_17">
     <!-- 2 levels -->
     <g transform="translate(234.24375 34.18375)scale(0.08 -0.08)">
      <use xlink:href="#MyriadPro-Regular-32"/>
      <use xlink:href="#MyriadPro-Regular-20" x="51.299988"/>
      <use xlink:href="#MyriadPro-Regular-6c" x="72.499985"/>
      <use xlink:href="#MyriadPro-Regular-65" x="96.099976"/>
      <use xlink:href="#MyriadPro-Regular-76" x="146.199966"/>
      <use xlink:href="#MyriadPro-Regular-65" x="194.299957"/>
      <use xlink:href="#MyriadPro-Regular-6c" x="244.399948"/>
      <use xlink:href="#MyriadPro-Regular-73" x="267.999939"/>
     </g>
    </g>
    <g id="line2d_25">
     <path d="M 213.04375 42.6475 
L 220.44375 42.6475 
L 227.84375 42.6475 
" style="fill: none; stroke: #009ade; stroke-linecap: square"/>
     <g>
      <use xlink:href="#m2fdb4b4850" x="220.44375" y="42.6475" style="fill: #009ade; stroke: #009ade"/>
     </g>
    </g>
    <g id="text_18">
     <!-- 3 levels -->
     <g transform="translate(234.24375 45.4475)scale(0.08 -0.08)">
      <use xlink:href="#MyriadPro-Regular-33"/>
      <use xlink:href="#MyriadPro-Regular-20" x="51.299988"/>
      <use xlink:href="#MyriadPro-Regular-6c" x="72.499985"/>
      <use xlink:href="#MyriadPro-Regular-65" x="96.099976"/>
      <use xlink:href="#MyriadPro-Regular-76" x="146.199966"/>
      <use xlink:href="#MyriadPro-Regular-65" x="194.299957"/>
      <use xlink:href="#MyriadPro-Regular-6c" x="244.399948"/>
      <use xlink:href="#MyriadPro-Regular-73" x="267.999939"/>
     </g>
    </g>
    <g id="line2d_26">
     <path d="M 213.04375 53.91125 
L 220.44375 53.91125 
L 227.84375 53.91125 
" style="fill: none; stroke: #af58ba; stroke-linecap: square"/>
     <g>
      <use xlink:href="#m27cd4bb045" x="220.44375" y="53.91125" style="fill: #af58ba; stroke: #af58ba"/>
     </g>
    </g>
    <g id="text_19">
     <!-- 4 levels -->
     <g transform="translate(234.24375 56.71125)scale(0.08 -0.08)">
      <use xlink:href="#MyriadPro-Regular-34"/>
      <use xlink:href="#MyriadPro-Regular-20" x="51.299988"/>
      <use xlink:href="#MyriadPro-Regular-6c" x="72.499985"/>
      <use xlink:href="#MyriadPro-Regular-65" x="96.099976"/>
      <use xlink:href="#MyriadPro-Regular-76" x="146.199966"/>
      <use xlink:href="#MyriadPro-Regular-65" x="194.299957"/>
      <use xlink:href="#MyriadPro-Regular-6c" x="244.399948"/>
      <use xlink:href="#MyriadPro-Regular-73" x="267.999939"/>
     </g>
    </g>
    <g id="line2d_27">
     <path d="M 213.04375 65.175 
L 220.44375 65.175 
L 227.84375 65.175 
" style="fill: none; stroke: #ffc61e; stroke-linecap: square"/>
     <g>
      <use xlink:href="#m1b6a255299" x="220.44375" y="65.175" style="fill: #ffc61e; stroke: #ffc61e"/>
     </g>
    </g>
    <g id="text_20">
     <!-- 5 levels -->
     <g transform="translate(234.24375 67.975)scale(0.08 -0.08)">
      <use xlink:href="#MyriadPro-Regular-35"/>
      <use xlink:href="#MyriadPro-Regular-20" x="51.299988"/>
      <use xlink:href="#MyriadPro-Regular-6c" x="72.499985"/>
      <use xlink:href="#MyriadPro-Regular-65" x="96.099976"/>
      <use xlink:href="#MyriadPro-Regular-76" x="146.199966"/>
      <use xlink:href="#MyriadPro-Regular-65" x="194.299957"/>
      <use xlink:href="#MyriadPro-Regular-6c" x="244.399948"/>
      <use xlink:href="#MyriadPro-Regular-73" x="267.999939"/>
     </g>
    </g>
   </g>
  </g>
 </g>
 <defs>
  <clipPath id="peab9bda53b">
   <rect x="49.60375" y="10.04" width="156.24" height="121.968"/>
  </clipPath>
 </defs>
</svg>
