<?xml version="1.0" encoding="utf-8" standalone="no"?>
<!DOCTYPE svg PUBLIC "-//W3C//DTD SVG 1.1//EN"
  "http://www.w3.org/Graphics/SVG/1.1/DTD/svg11.dtd">
<svg xmlns:xlink="http://www.w3.org/1999/xlink" width="255.46875pt" height="163.7355pt" viewBox="0 0 255.46875 163.7355" xmlns="http://www.w3.org/2000/svg" version="1.1">
 <metadata>
  <rdf:RDF xmlns:dc="http://purl.org/dc/elements/1.1/" xmlns:cc="http://creativecommons.org/ns#" xmlns:rdf="http://www.w3.org/1999/02/22-rdf-syntax-ns#">
   <cc:Work>
    <dc:type rdf:resource="http://purl.org/dc/dcmitype/StillImage"/>
    <dc:date>2023-02-08T20:52:39.298193</dc:date>
    <dc:format>image/svg+xml</dc:format>
    <dc:creator>
     <cc:Agent>
      <dc:title>Matplotlib v3.5.2, https://matplotlib.org/</dc:title>
     </cc:Agent>
    </dc:creator>
   </cc:Work>
  </rdf:RDF>
 </metadata>
 <defs>
  <style type="text/css">*{stroke-linejoin: round; stroke-linecap: butt}</style>
 </defs>
 <g id="figure_1">
  <g id="patch_1">
   <path d="M 0 163.7355 
L 255.46875 163.7355 
L 255.46875 -0 
L 0 -0 
L 0 163.7355 
z
" style="fill: none"/>
  </g>
  <g id="axes_1">
   <g id="patch_2">
    <path d="M 35.82375 132.008 
L 192.06375 132.008 
L 192.06375 10.04 
L 35.82375 10.04 
L 35.82375 132.008 
z
" style="fill: none"/>
   </g>
   <g id="matplotlib.axis_1">
    <g id="xtick_1">
     <g id="line2d_1">
      <defs>
       <path id="m4cd371f86f" d="M 0 0 
L 0 2.5 
" style="stroke: #000000; stroke-width: 0.6"/>
      </defs>
      <g>
       <use xlink:href="#m4cd371f86f" x="35.82375" y="132.008" style="stroke: #000000; stroke-width: 0.6"/>
      </g>
     </g>
     <g id="text_1">
      <!-- 0 -->
      <g transform="translate(33.771875 143.688)scale(0.08 -0.08)">
       <defs>
        <path id="MyriadPro-Regular-30" d="M 1683 4230 
C 838 4230 230 3469 230 2067 
C 243 691 800 -70 1613 -70 
C 2528 -70 3059 710 3059 2125 
C 3059 3450 2554 4230 1683 4230 
z
M 1645 3795 
C 2234 3795 2490 3123 2490 2099 
C 2490 1037 2214 365 1645 365 
C 1133 365 800 979 800 2061 
C 800 3194 1158 3795 1645 3795 
z
" transform="scale(0.015625)"/>
       </defs>
       <use xlink:href="#MyriadPro-Regular-30"/>
      </g>
     </g>
    </g>
    <g id="xtick_2">
     <g id="line2d_2">
      <g>
       <use xlink:href="#m4cd371f86f" x="61.86375" y="132.008" style="stroke: #000000; stroke-width: 0.6"/>
      </g>
     </g>
     <g id="text_2">
      <!-- 25 -->
      <g transform="translate(57.76 143.688)scale(0.08 -0.08)">
       <defs>
        <path id="MyriadPro-Regular-32" d="M 2944 0 
L 2944 467 
L 1082 467 
L 1082 480 
L 1408 787 
C 2285 1632 2842 2253 2842 3021 
C 2842 3616 2464 4230 1568 4230 
C 1094 4230 678 4045 397 3808 
L 576 3411 
C 768 3571 1082 3763 1459 3763 
C 2080 3763 2278 3373 2278 2950 
C 2278 2323 1792 1786 730 774 
L 288 346 
L 288 0 
L 2944 0 
z
" transform="scale(0.015625)"/>
        <path id="MyriadPro-Regular-35" d="M 2771 4160 
L 781 4160 
L 512 2163 
C 666 2182 851 2202 1094 2202 
C 1920 2202 2285 1824 2285 1286 
C 2291 730 1830 384 1306 384 
C 922 384 582 512 410 614 
L 269 186 
C 474 58 851 -70 1306 -70 
C 2208 -70 2854 538 2854 1350 
C 2854 1869 2586 2234 2259 2413 
C 2003 2573 1690 2637 1363 2637 
C 1210 2637 1120 2630 1024 2618 
L 1184 3686 
L 2771 3686 
L 2771 4160 
z
" transform="scale(0.015625)"/>
       </defs>
       <use xlink:href="#MyriadPro-Regular-32"/>
       <use xlink:href="#MyriadPro-Regular-35" x="51.299988"/>
      </g>
     </g>
    </g>
    <g id="xtick_3">
     <g id="line2d_3">
      <g>
       <use xlink:href="#m4cd371f86f" x="87.90375" y="132.008" style="stroke: #000000; stroke-width: 0.6"/>
      </g>
     </g>
     <g id="text_3">
      <!-- 50 -->
      <g transform="translate(83.8 143.688)scale(0.08 -0.08)">
       <use xlink:href="#MyriadPro-Regular-35"/>
       <use xlink:href="#MyriadPro-Regular-30" x="51.299988"/>
      </g>
     </g>
    </g>
    <g id="xtick_4">
     <g id="line2d_4">
      <g>
       <use xlink:href="#m4cd371f86f" x="113.94375" y="132.008" style="stroke: #000000; stroke-width: 0.6"/>
      </g>
     </g>
     <g id="text_4">
      <!-- 75 -->
      <g transform="translate(109.84 143.688)scale(0.08 -0.08)">
       <defs>
        <path id="MyriadPro-Regular-37" d="M 365 4160 
L 365 3693 
L 2400 3693 
L 2400 3680 
L 595 0 
L 1178 0 
L 2989 3789 
L 2989 4160 
L 365 4160 
z
" transform="scale(0.015625)"/>
       </defs>
       <use xlink:href="#MyriadPro-Regular-37"/>
       <use xlink:href="#MyriadPro-Regular-35" x="51.299988"/>
      </g>
     </g>
    </g>
    <g id="xtick_5">
     <g id="line2d_5">
      <g>
       <use xlink:href="#m4cd371f86f" x="139.98375" y="132.008" style="stroke: #000000; stroke-width: 0.6"/>
      </g>
     </g>
     <g id="text_5">
      <!-- 100 -->
      <g transform="translate(133.828125 143.688)scale(0.08 -0.08)">
       <defs>
        <path id="MyriadPro-Regular-31" d="M 1510 0 
L 2054 0 
L 2054 4160 
L 1574 4160 
L 666 3674 
L 774 3245 
L 1498 3635 
L 1510 3635 
L 1510 0 
z
" transform="scale(0.015625)"/>
       </defs>
       <use xlink:href="#MyriadPro-Regular-31"/>
       <use xlink:href="#MyriadPro-Regular-30" x="51.299988"/>
       <use xlink:href="#MyriadPro-Regular-30" x="102.599976"/>
      </g>
     </g>
    </g>
    <g id="xtick_6">
     <g id="line2d_6">
      <g>
       <use xlink:href="#m4cd371f86f" x="166.02375" y="132.008" style="stroke: #000000; stroke-width: 0.6"/>
      </g>
     </g>
     <g id="text_6">
      <!-- 125 -->
      <g transform="translate(159.868125 143.688)scale(0.08 -0.08)">
       <use xlink:href="#MyriadPro-Regular-31"/>
       <use xlink:href="#MyriadPro-Regular-32" x="51.299988"/>
       <use xlink:href="#MyriadPro-Regular-35" x="102.599976"/>
      </g>
     </g>
    </g>
    <g id="xtick_7">
     <g id="line2d_7">
      <g>
       <use xlink:href="#m4cd371f86f" x="192.06375" y="132.008" style="stroke: #000000; stroke-width: 0.6"/>
      </g>
     </g>
     <g id="text_7">
      <!-- 150 -->
      <g transform="translate(185.908125 143.688)scale(0.08 -0.08)">
       <use xlink:href="#MyriadPro-Regular-31"/>
       <use xlink:href="#MyriadPro-Regular-35" x="51.299988"/>
       <use xlink:href="#MyriadPro-Regular-30" x="102.599976"/>
      </g>
     </g>
    </g>
    <g id="text_8">
     <!-- epoch -->
     <g transform="translate(103.455625 154.95175)scale(0.08 -0.08)">
      <defs>
       <path id="MyriadPro-Regular-65" d="M 2957 1446 
C 2970 1510 2976 1594 2976 1709 
C 2976 2278 2714 3162 1696 3162 
C 794 3162 243 2432 243 1498 
C 243 563 813 -70 1766 -70 
C 2259 -70 2605 38 2803 128 
L 2701 531 
C 2496 442 2246 371 1843 371 
C 1274 371 794 685 781 1446 
L 2957 1446 
z
M 787 1850 
C 832 2240 1075 2758 1651 2758 
C 2285 2758 2438 2202 2432 1850 
L 787 1850 
z
" transform="scale(0.015625)"/>
       <path id="MyriadPro-Regular-70" d="M 467 -1267 
L 1024 -1267 
L 1024 416 
L 1037 416 
C 1222 109 1581 -70 1990 -70 
C 2720 -70 3405 480 3405 1594 
C 3405 2528 2842 3162 2086 3162 
C 1581 3162 1210 2944 986 2566 
L 973 2566 
L 941 3098 
L 442 3098 
C 454 2803 467 2483 467 2086 
L 467 -1267 
z
M 1024 1798 
C 1024 1869 1043 1952 1062 2022 
C 1165 2445 1530 2714 1914 2714 
C 2509 2714 2835 2182 2835 1568 
C 2835 858 2490 371 1894 371 
C 1491 371 1152 640 1050 1030 
C 1030 1101 1024 1178 1024 1261 
L 1024 1798 
z
" transform="scale(0.015625)"/>
       <path id="MyriadPro-Regular-6f" d="M 1779 3162 
C 928 3162 243 2554 243 1523 
C 243 544 896 -70 1728 -70 
C 2470 -70 3270 429 3270 1574 
C 3270 2515 2669 3162 1779 3162 
z
M 1766 2739 
C 2432 2739 2694 2080 2694 1555 
C 2694 858 2291 352 1754 352 
C 1203 352 819 864 819 1542 
C 819 2125 1107 2739 1766 2739 
z
" transform="scale(0.015625)"/>
       <path id="MyriadPro-Regular-63" d="M 2579 531 
C 2419 461 2208 384 1888 384 
C 1274 384 813 826 813 1542 
C 813 2182 1197 2714 1907 2714 
C 2214 2714 2426 2637 2560 2566 
L 2688 2995 
C 2534 3078 2240 3162 1907 3162 
C 896 3162 243 2464 243 1510 
C 243 563 851 -70 1786 -70 
C 2202 -70 2528 38 2675 109 
L 2579 531 
z
" transform="scale(0.015625)"/>
       <path id="MyriadPro-Regular-68" d="M 467 0 
L 1030 0 
L 1030 1869 
C 1030 1971 1037 2054 1069 2138 
C 1178 2438 1459 2694 1824 2694 
C 2355 2694 2541 2278 2541 1779 
L 2541 0 
L 3104 0 
L 3104 1843 
C 3104 2906 2438 3162 2022 3162 
C 1811 3162 1613 3104 1446 3008 
C 1274 2912 1133 2765 1043 2605 
L 1030 2605 
L 1030 4544 
L 467 4544 
L 467 0 
z
" transform="scale(0.015625)"/>
      </defs>
      <use xlink:href="#MyriadPro-Regular-65"/>
      <use xlink:href="#MyriadPro-Regular-70" x="50.099991"/>
      <use xlink:href="#MyriadPro-Regular-6f" x="106.999985"/>
      <use xlink:href="#MyriadPro-Regular-63" x="161.899979"/>
      <use xlink:href="#MyriadPro-Regular-68" x="206.699966"/>
     </g>
    </g>
   </g>
   <g id="matplotlib.axis_2">
    <g id="ytick_1">
     <g id="line2d_8">
      <defs>
       <path id="m56f3a9ced1" d="M 0 0 
L -2.5 0 
" style="stroke: #000000; stroke-width: 0.6"/>
      </defs>
      <g>
       <use xlink:href="#m56f3a9ced1" x="35.82375" y="132.008" style="stroke: #000000; stroke-width: 0.6"/>
      </g>
     </g>
     <g id="text_9">
      <!-- $\mathdefault{10^{0}}$ -->
      <g transform="translate(18.46375 134.848)scale(0.08 -0.08)">
       <use xlink:href="#MyriadPro-Regular-31" transform="translate(0 0.85)"/>
       <use xlink:href="#MyriadPro-Regular-30" transform="translate(51.299988 0.85)"/>
       <use xlink:href="#MyriadPro-Regular-30" transform="translate(103.447085 34.734375)scale(0.7)"/>
      </g>
     </g>
    </g>
    <g id="ytick_2">
     <g id="line2d_9">
      <g>
       <use xlink:href="#m56f3a9ced1" x="35.82375" y="91.352" style="stroke: #000000; stroke-width: 0.6"/>
      </g>
     </g>
     <g id="text_10">
      <!-- $\mathdefault{10^{1}}$ -->
      <g transform="translate(18.46375 94.192)scale(0.08 -0.08)">
       <use xlink:href="#MyriadPro-Regular-31" transform="translate(0 0.615625)"/>
       <use xlink:href="#MyriadPro-Regular-30" transform="translate(51.299988 0.615625)"/>
       <use xlink:href="#MyriadPro-Regular-31" transform="translate(103.447085 34.5)scale(0.7)"/>
      </g>
     </g>
    </g>
    <g id="ytick_3">
     <g id="line2d_10">
      <g>
       <use xlink:href="#m56f3a9ced1" x="35.82375" y="50.696" style="stroke: #000000; stroke-width: 0.6"/>
      </g>
     </g>
     <g id="text_11">
      <!-- $\mathdefault{10^{2}}$ -->
      <g transform="translate(18.46375 53.536)scale(0.08 -0.08)">
       <use xlink:href="#MyriadPro-Regular-31" transform="translate(0 0.85)"/>
       <use xlink:href="#MyriadPro-Regular-30" transform="translate(51.299988 0.85)"/>
       <use xlink:href="#MyriadPro-Regular-32" transform="translate(103.447085 34.734375)scale(0.7)"/>
      </g>
     </g>
    </g>
    <g id="ytick_4">
     <g id="line2d_11">
      <g>
       <use xlink:href="#m56f3a9ced1" x="35.82375" y="10.04" style="stroke: #000000; stroke-width: 0.6"/>
      </g>
     </g>
     <g id="text_12">
      <!-- $\mathdefault{10^{3}}$ -->
      <g transform="translate(18.46375 12.88)scale(0.08 -0.08)">
       <defs>
        <path id="MyriadPro-Regular-33" d="M 269 211 
C 474 77 883 -70 1350 -70 
C 2342 -70 2867 512 2867 1178 
C 2861 1760 2451 2144 1939 2240 
L 1939 2253 
C 2445 2438 2707 2803 2707 3238 
C 2707 3744 2336 4230 1517 4230 
C 1069 4230 646 4070 422 3910 
L 576 3501 
C 755 3629 1075 3776 1408 3776 
C 1926 3776 2138 3482 2138 3149 
C 2138 2656 1619 2445 1210 2445 
L 896 2445 
L 896 2022 
L 1210 2022 
C 1754 2022 2278 1773 2285 1190 
C 2291 838 2061 384 1344 384 
C 947 384 582 544 422 640 
L 269 211 
z
" transform="scale(0.015625)"/>
       </defs>
       <use xlink:href="#MyriadPro-Regular-31" transform="translate(0 0.85)"/>
       <use xlink:href="#MyriadPro-Regular-30" transform="translate(51.299988 0.85)"/>
       <use xlink:href="#MyriadPro-Regular-33" transform="translate(103.447085 34.734375)scale(0.7)"/>
      </g>
     </g>
    </g>
    <g id="ytick_5">
     <g id="line2d_12">
      <defs>
       <path id="mf6152e7c63" d="M 0 0 
L -1.5 0 
" style="stroke: #000000; stroke-width: 0.4"/>
      </defs>
      <g>
       <use xlink:href="#mf6152e7c63" x="35.82375" y="119.769324" style="stroke: #000000; stroke-width: 0.4"/>
      </g>
     </g>
    </g>
    <g id="ytick_6">
     <g id="line2d_13">
      <g>
       <use xlink:href="#mf6152e7c63" x="35.82375" y="112.610158" style="stroke: #000000; stroke-width: 0.4"/>
      </g>
     </g>
    </g>
    <g id="ytick_7">
     <g id="line2d_14">
      <g>
       <use xlink:href="#mf6152e7c63" x="35.82375" y="107.530649" style="stroke: #000000; stroke-width: 0.4"/>
      </g>
     </g>
    </g>
    <g id="ytick_8">
     <g id="line2d_15">
      <g>
       <use xlink:href="#mf6152e7c63" x="35.82375" y="103.590676" style="stroke: #000000; stroke-width: 0.4"/>
      </g>
     </g>
    </g>
    <g id="ytick_9">
     <g id="line2d_16">
      <g>
       <use xlink:href="#mf6152e7c63" x="35.82375" y="100.371483" style="stroke: #000000; stroke-width: 0.4"/>
      </g>
     </g>
    </g>
    <g id="ytick_10">
     <g id="line2d_17">
      <g>
       <use xlink:href="#mf6152e7c63" x="35.82375" y="97.649694" style="stroke: #000000; stroke-width: 0.4"/>
      </g>
     </g>
    </g>
    <g id="ytick_11">
     <g id="line2d_18">
      <g>
       <use xlink:href="#mf6152e7c63" x="35.82375" y="95.291973" style="stroke: #000000; stroke-width: 0.4"/>
      </g>
     </g>
    </g>
    <g id="ytick_12">
     <g id="line2d_19">
      <g>
       <use xlink:href="#mf6152e7c63" x="35.82375" y="93.212317" style="stroke: #000000; stroke-width: 0.4"/>
      </g>
     </g>
    </g>
    <g id="ytick_13">
     <g id="line2d_20">
      <g>
       <use xlink:href="#mf6152e7c63" x="35.82375" y="79.113324" style="stroke: #000000; stroke-width: 0.4"/>
      </g>
     </g>
    </g>
    <g id="ytick_14">
     <g id="line2d_21">
      <g>
       <use xlink:href="#mf6152e7c63" x="35.82375" y="71.954158" style="stroke: #000000; stroke-width: 0.4"/>
      </g>
     </g>
    </g>
    <g id="ytick_15">
     <g id="line2d_22">
      <g>
       <use xlink:href="#mf6152e7c63" x="35.82375" y="66.874649" style="stroke: #000000; stroke-width: 0.4"/>
      </g>
     </g>
    </g>
    <g id="ytick_16">
     <g id="line2d_23">
      <g>
       <use xlink:href="#mf6152e7c63" x="35.82375" y="62.934676" style="stroke: #000000; stroke-width: 0.4"/>
      </g>
     </g>
    </g>
    <g id="ytick_17">
     <g id="line2d_24">
      <g>
       <use xlink:href="#mf6152e7c63" x="35.82375" y="59.715483" style="stroke: #000000; stroke-width: 0.4"/>
      </g>
     </g>
    </g>
    <g id="ytick_18">
     <g id="line2d_25">
      <g>
       <use xlink:href="#mf6152e7c63" x="35.82375" y="56.993694" style="stroke: #000000; stroke-width: 0.4"/>
      </g>
     </g>
    </g>
    <g id="ytick_19">
     <g id="line2d_26">
      <g>
       <use xlink:href="#mf6152e7c63" x="35.82375" y="54.635973" style="stroke: #000000; stroke-width: 0.4"/>
      </g>
     </g>
    </g>
    <g id="ytick_20">
     <g id="line2d_27">
      <g>
       <use xlink:href="#mf6152e7c63" x="35.82375" y="52.556317" style="stroke: #000000; stroke-width: 0.4"/>
      </g>
     </g>
    </g>
    <g id="ytick_21">
     <g id="line2d_28">
      <g>
       <use xlink:href="#mf6152e7c63" x="35.82375" y="38.457324" style="stroke: #000000; stroke-width: 0.4"/>
      </g>
     </g>
    </g>
    <g id="ytick_22">
     <g id="line2d_29">
      <g>
       <use xlink:href="#mf6152e7c63" x="35.82375" y="31.298158" style="stroke: #000000; stroke-width: 0.4"/>
      </g>
     </g>
    </g>
    <g id="ytick_23">
     <g id="line2d_30">
      <g>
       <use xlink:href="#mf6152e7c63" x="35.82375" y="26.218649" style="stroke: #000000; stroke-width: 0.4"/>
      </g>
     </g>
    </g>
    <g id="ytick_24">
     <g id="line2d_31">
      <g>
       <use xlink:href="#mf6152e7c63" x="35.82375" y="22.278676" style="stroke: #000000; stroke-width: 0.4"/>
      </g>
     </g>
    </g>
    <g id="ytick_25">
     <g id="line2d_32">
      <g>
       <use xlink:href="#mf6152e7c63" x="35.82375" y="19.059483" style="stroke: #000000; stroke-width: 0.4"/>
      </g>
     </g>
    </g>
    <g id="ytick_26">
     <g id="line2d_33">
      <g>
       <use xlink:href="#mf6152e7c63" x="35.82375" y="16.337694" style="stroke: #000000; stroke-width: 0.4"/>
      </g>
     </g>
    </g>
    <g id="ytick_27">
     <g id="line2d_34">
      <g>
       <use xlink:href="#mf6152e7c63" x="35.82375" y="13.979973" style="stroke: #000000; stroke-width: 0.4"/>
      </g>
     </g>
    </g>
    <g id="ytick_28">
     <g id="line2d_35">
      <g>
       <use xlink:href="#mf6152e7c63" x="35.82375" y="11.900317" style="stroke: #000000; stroke-width: 0.4"/>
      </g>
     </g>
    </g>
    <g id="text_13">
     <!-- loss -->
     <g transform="translate(12.88 77.3315)rotate(-90)scale(0.08 -0.08)">
      <defs>
       <path id="MyriadPro-Regular-6c" d="M 467 0 
L 1030 0 
L 1030 4544 
L 467 4544 
L 467 0 
z
" transform="scale(0.015625)"/>
       <path id="MyriadPro-Regular-73" d="M 256 147 
C 474 19 787 -70 1126 -70 
C 1850 -70 2278 314 2278 864 
C 2278 1325 1997 1594 1466 1792 
C 1062 1952 883 2067 883 2323 
C 883 2554 1062 2746 1395 2746 
C 1683 2746 1907 2637 2029 2560 
L 2163 2970 
C 1997 3078 1722 3162 1408 3162 
C 749 3162 339 2752 339 2253 
C 339 1882 602 1581 1165 1376 
C 1574 1222 1734 1082 1734 813 
C 1734 550 1542 352 1139 352 
C 858 352 563 467 390 570 
L 256 147 
z
" transform="scale(0.015625)"/>
      </defs>
      <use xlink:href="#MyriadPro-Regular-6c"/>
      <use xlink:href="#MyriadPro-Regular-6f" x="23.599991"/>
      <use xlink:href="#MyriadPro-Regular-73" x="78.499985"/>
      <use xlink:href="#MyriadPro-Regular-73" x="118.099976"/>
     </g>
    </g>
   </g>
   <g id="line2d_36">
    <path d="M 46.23975 28.576055 
L 56.65575 35.487675 
L 67.07175 44.138282 
L 77.48775 45.55815 
L 87.90375 48.511144 
L 98.31975 49.026952 
L 108.73575 49.670287 
L 119.15175 49.943286 
L 129.56775 50.250964 
L 139.98375 50.484029 
L 150.39975 50.735051 
L 160.81575 51.000087 
L 171.23175 51.271802 
L 181.64775 51.555018 
L 192.06375 51.849242 
" clip-path="url(#p4ad2bf649a)" style="fill: none; stroke: #ff1f5b; stroke-linecap: square"/>
    <defs>
     <path id="m26fe5d0e85" d="M 0 0.5 
C 0.132602 0.5 0.25979 0.447317 0.353553 0.353553 
C 0.447317 0.25979 0.5 0.132602 0.5 0 
C 0.5 -0.132602 0.447317 -0.25979 0.353553 -0.353553 
C 0.25979 -0.447317 0.132602 -0.5 0 -0.5 
C -0.132602 -0.5 -0.25979 -0.447317 -0.353553 -0.353553 
C -0.447317 -0.25979 -0.5 -0.132602 -0.5 0 
C -0.5 0.132602 -0.447317 0.25979 -0.353553 0.353553 
C -0.25979 0.447317 -0.132602 0.5 0 0.5 
z
" style="stroke: #ff1f5b"/>
    </defs>
    <g clip-path="url(#p4ad2bf649a)">
     <use xlink:href="#m26fe5d0e85" x="46.23975" y="28.576055" style="fill: #ff1f5b; stroke: #ff1f5b"/>
     <use xlink:href="#m26fe5d0e85" x="56.65575" y="35.487675" style="fill: #ff1f5b; stroke: #ff1f5b"/>
     <use xlink:href="#m26fe5d0e85" x="67.07175" y="44.138282" style="fill: #ff1f5b; stroke: #ff1f5b"/>
     <use xlink:href="#m26fe5d0e85" x="77.48775" y="45.55815" style="fill: #ff1f5b; stroke: #ff1f5b"/>
     <use xlink:href="#m26fe5d0e85" x="87.90375" y="48.511144" style="fill: #ff1f5b; stroke: #ff1f5b"/>
     <use xlink:href="#m26fe5d0e85" x="98.31975" y="49.026952" style="fill: #ff1f5b; stroke: #ff1f5b"/>
     <use xlink:href="#m26fe5d0e85" x="108.73575" y="49.670287" style="fill: #ff1f5b; stroke: #ff1f5b"/>
     <use xlink:href="#m26fe5d0e85" x="119.15175" y="49.943286" style="fill: #ff1f5b; stroke: #ff1f5b"/>
     <use xlink:href="#m26fe5d0e85" x="129.56775" y="50.250964" style="fill: #ff1f5b; stroke: #ff1f5b"/>
     <use xlink:href="#m26fe5d0e85" x="139.98375" y="50.484029" style="fill: #ff1f5b; stroke: #ff1f5b"/>
     <use xlink:href="#m26fe5d0e85" x="150.39975" y="50.735051" style="fill: #ff1f5b; stroke: #ff1f5b"/>
     <use xlink:href="#m26fe5d0e85" x="160.81575" y="51.000087" style="fill: #ff1f5b; stroke: #ff1f5b"/>
     <use xlink:href="#m26fe5d0e85" x="171.23175" y="51.271802" style="fill: #ff1f5b; stroke: #ff1f5b"/>
     <use xlink:href="#m26fe5d0e85" x="181.64775" y="51.555018" style="fill: #ff1f5b; stroke: #ff1f5b"/>
     <use xlink:href="#m26fe5d0e85" x="192.06375" y="51.849242" style="fill: #ff1f5b; stroke: #ff1f5b"/>
    </g>
   </g>
   <g id="line2d_37">
    <path d="M 46.23975 23.403135 
L 56.65575 31.289351 
L 67.07175 41.492638 
L 77.48775 47.554264 
L 87.90375 48.178391 
L 98.31975 51.782238 
L 108.73575 52.803559 
L 119.15175 53.906802 
L 129.56775 55.074526 
L 139.98375 56.236287 
L 150.39975 57.426372 
L 160.81575 58.66633 
L 171.23175 59.957016 
L 181.64775 61.302673 
L 192.06375 62.706097 
" clip-path="url(#p4ad2bf649a)" style="fill: none; stroke: #00cd6c; stroke-linecap: square"/>
    <defs>
     <path id="m8f4b5e3020" d="M 0 0.5 
C 0.132602 0.5 0.25979 0.447317 0.353553 0.353553 
C 0.447317 0.25979 0.5 0.132602 0.5 0 
C 0.5 -0.132602 0.447317 -0.25979 0.353553 -0.353553 
C 0.25979 -0.447317 0.132602 -0.5 0 -0.5 
C -0.132602 -0.5 -0.25979 -0.447317 -0.353553 -0.353553 
C -0.447317 -0.25979 -0.5 -0.132602 -0.5 0 
C -0.5 0.132602 -0.447317 0.25979 -0.353553 0.353553 
C -0.25979 0.447317 -0.132602 0.5 0 0.5 
z
" style="stroke: #00cd6c"/>
    </defs>
    <g clip-path="url(#p4ad2bf649a)">
     <use xlink:href="#m8f4b5e3020" x="46.23975" y="23.403135" style="fill: #00cd6c; stroke: #00cd6c"/>
     <use xlink:href="#m8f4b5e3020" x="56.65575" y="31.289351" style="fill: #00cd6c; stroke: #00cd6c"/>
     <use xlink:href="#m8f4b5e3020" x="67.07175" y="41.492638" style="fill: #00cd6c; stroke: #00cd6c"/>
     <use xlink:href="#m8f4b5e3020" x="77.48775" y="47.554264" style="fill: #00cd6c; stroke: #00cd6c"/>
     <use xlink:href="#m8f4b5e3020" x="87.90375" y="48.178391" style="fill: #00cd6c; stroke: #00cd6c"/>
     <use xlink:href="#m8f4b5e3020" x="98.31975" y="51.782238" style="fill: #00cd6c; stroke: #00cd6c"/>
     <use xlink:href="#m8f4b5e3020" x="108.73575" y="52.803559" style="fill: #00cd6c; stroke: #00cd6c"/>
     <use xlink:href="#m8f4b5e3020" x="119.15175" y="53.906802" style="fill: #00cd6c; stroke: #00cd6c"/>
     <use xlink:href="#m8f4b5e3020" x="129.56775" y="55.074526" style="fill: #00cd6c; stroke: #00cd6c"/>
     <use xlink:href="#m8f4b5e3020" x="139.98375" y="56.236287" style="fill: #00cd6c; stroke: #00cd6c"/>
     <use xlink:href="#m8f4b5e3020" x="150.39975" y="57.426372" style="fill: #00cd6c; stroke: #00cd6c"/>
     <use xlink:href="#m8f4b5e3020" x="160.81575" y="58.66633" style="fill: #00cd6c; stroke: #00cd6c"/>
     <use xlink:href="#m8f4b5e3020" x="171.23175" y="59.957016" style="fill: #00cd6c; stroke: #00cd6c"/>
     <use xlink:href="#m8f4b5e3020" x="181.64775" y="61.302673" style="fill: #00cd6c; stroke: #00cd6c"/>
     <use xlink:href="#m8f4b5e3020" x="192.06375" y="62.706097" style="fill: #00cd6c; stroke: #00cd6c"/>
    </g>
   </g>
   <g id="line2d_38">
    <path d="M 46.23975 25.917467 
L 56.65575 30.016186 
L 67.07175 36.672838 
L 77.48775 45.991438 
L 87.90375 50.870611 
L 98.31975 53.594706 
L 108.73575 56.486106 
L 119.15175 59.437095 
L 129.56775 61.839762 
L 139.98375 64.270657 
L 150.39975 66.819944 
L 160.81575 69.487327 
L 171.23175 72.285805 
L 181.64775 75.220848 
L 192.06375 78.29516 
" clip-path="url(#p4ad2bf649a)" style="fill: none; stroke: #009ade; stroke-linecap: square"/>
    <defs>
     <path id="m2fdb4b4850" d="M 0 0.5 
C 0.132602 0.5 0.25979 0.447317 0.353553 0.353553 
C 0.447317 0.25979 0.5 0.132602 0.5 0 
C 0.5 -0.132602 0.447317 -0.25979 0.353553 -0.353553 
C 0.25979 -0.447317 0.132602 -0.5 0 -0.5 
C -0.132602 -0.5 -0.25979 -0.447317 -0.353553 -0.353553 
C -0.447317 -0.25979 -0.5 -0.132602 -0.5 0 
C -0.5 0.132602 -0.447317 0.25979 -0.353553 0.353553 
C -0.25979 0.447317 -0.132602 0.5 0 0.5 
z
" style="stroke: #009ade"/>
    </defs>
    <g clip-path="url(#p4ad2bf649a)">
     <use xlink:href="#m2fdb4b4850" x="46.23975" y="25.917467" style="fill: #009ade; stroke: #009ade"/>
     <use xlink:href="#m2fdb4b4850" x="56.65575" y="30.016186" style="fill: #009ade; stroke: #009ade"/>
     <use xlink:href="#m2fdb4b4850" x="67.07175" y="36.672838" style="fill: #009ade; stroke: #009ade"/>
     <use xlink:href="#m2fdb4b4850" x="77.48775" y="45.991438" style="fill: #009ade; stroke: #009ade"/>
     <use xlink:href="#m2fdb4b4850" x="87.90375" y="50.870611" style="fill: #009ade; stroke: #009ade"/>
     <use xlink:href="#m2fdb4b4850" x="98.31975" y="53.594706" style="fill: #009ade; stroke: #009ade"/>
     <use xlink:href="#m2fdb4b4850" x="108.73575" y="56.486106" style="fill: #009ade; stroke: #009ade"/>
     <use xlink:href="#m2fdb4b4850" x="119.15175" y="59.437095" style="fill: #009ade; stroke: #009ade"/>
     <use xlink:href="#m2fdb4b4850" x="129.56775" y="61.839762" style="fill: #009ade; stroke: #009ade"/>
     <use xlink:href="#m2fdb4b4850" x="139.98375" y="64.270657" style="fill: #009ade; stroke: #009ade"/>
     <use xlink:href="#m2fdb4b4850" x="150.39975" y="66.819944" style="fill: #009ade; stroke: #009ade"/>
     <use xlink:href="#m2fdb4b4850" x="160.81575" y="69.487327" style="fill: #009ade; stroke: #009ade"/>
     <use xlink:href="#m2fdb4b4850" x="171.23175" y="72.285805" style="fill: #009ade; stroke: #009ade"/>
     <use xlink:href="#m2fdb4b4850" x="181.64775" y="75.220848" style="fill: #009ade; stroke: #009ade"/>
     <use xlink:href="#m2fdb4b4850" x="192.06375" y="78.29516" style="fill: #009ade; stroke: #009ade"/>
    </g>
   </g>
   <g id="line2d_39">
    <path d="M 46.23975 26.577155 
L 56.65575 32.044402 
L 67.07175 40.542879 
L 77.48775 49.2767 
L 87.90375 54.170465 
L 98.31975 66.961661 
L 108.73575 69.1388 
L 119.15175 79.051335 
L 129.56775 82.123081 
L 139.98375 83.976006 
L 150.39975 85.9868 
L 160.81575 87.702018 
L 171.23175 89.238407 
L 181.64775 90.749195 
L 192.06375 92.312222 
" clip-path="url(#p4ad2bf649a)" style="fill: none; stroke: #af58ba; stroke-linecap: square"/>
    <defs>
     <path id="m27cd4bb045" d="M 0 0.5 
C 0.132602 0.5 0.25979 0.447317 0.353553 0.353553 
C 0.447317 0.25979 0.5 0.132602 0.5 0 
C 0.5 -0.132602 0.447317 -0.25979 0.353553 -0.353553 
C 0.25979 -0.447317 0.132602 -0.5 0 -0.5 
C -0.132602 -0.5 -0.25979 -0.447317 -0.353553 -0.353553 
C -0.447317 -0.25979 -0.5 -0.132602 -0.5 0 
C -0.5 0.132602 -0.447317 0.25979 -0.353553 0.353553 
C -0.25979 0.447317 -0.132602 0.5 0 0.5 
z
" style="stroke: #af58ba"/>
    </defs>
    <g clip-path="url(#p4ad2bf649a)">
     <use xlink:href="#m27cd4bb045" x="46.23975" y="26.577155" style="fill: #af58ba; stroke: #af58ba"/>
     <use xlink:href="#m27cd4bb045" x="56.65575" y="32.044402" style="fill: #af58ba; stroke: #af58ba"/>
     <use xlink:href="#m27cd4bb045" x="67.07175" y="40.542879" style="fill: #af58ba; stroke: #af58ba"/>
     <use xlink:href="#m27cd4bb045" x="77.48775" y="49.2767" style="fill: #af58ba; stroke: #af58ba"/>
     <use xlink:href="#m27cd4bb045" x="87.90375" y="54.170465" style="fill: #af58ba; stroke: #af58ba"/>
     <use xlink:href="#m27cd4bb045" x="98.31975" y="66.961661" style="fill: #af58ba; stroke: #af58ba"/>
     <use xlink:href="#m27cd4bb045" x="108.73575" y="69.1388" style="fill: #af58ba; stroke: #af58ba"/>
     <use xlink:href="#m27cd4bb045" x="119.15175" y="79.051335" style="fill: #af58ba; stroke: #af58ba"/>
     <use xlink:href="#m27cd4bb045" x="129.56775" y="82.123081" style="fill: #af58ba; stroke: #af58ba"/>
     <use xlink:href="#m27cd4bb045" x="139.98375" y="83.976006" style="fill: #af58ba; stroke: #af58ba"/>
     <use xlink:href="#m27cd4bb045" x="150.39975" y="85.9868" style="fill: #af58ba; stroke: #af58ba"/>
     <use xlink:href="#m27cd4bb045" x="160.81575" y="87.702018" style="fill: #af58ba; stroke: #af58ba"/>
     <use xlink:href="#m27cd4bb045" x="171.23175" y="89.238407" style="fill: #af58ba; stroke: #af58ba"/>
     <use xlink:href="#m27cd4bb045" x="181.64775" y="90.749195" style="fill: #af58ba; stroke: #af58ba"/>
     <use xlink:href="#m27cd4bb045" x="192.06375" y="92.312222" style="fill: #af58ba; stroke: #af58ba"/>
    </g>
   </g>
   <g id="line2d_40">
    <path d="M 46.23975 25.361105 
L 56.65575 31.082529 
L 67.07175 41.029366 
L 77.48775 55.90806 
L 87.90375 54.354899 
L 98.31975 60.521483 
L 108.73575 73.063896 
L 119.15175 74.687308 
L 129.56775 81.434052 
L 139.98375 84.451982 
L 150.39975 86.328397 
L 160.81575 88.55978 
L 171.23175 90.753746 
L 181.64775 92.901945 
L 192.06375 95.094173 
" clip-path="url(#p4ad2bf649a)" style="fill: none; stroke: #ffc61e; stroke-linecap: square"/>
    <defs>
     <path id="m1b6a255299" d="M 0 0.5 
C 0.132602 0.5 0.25979 0.447317 0.353553 0.353553 
C 0.447317 0.25979 0.5 0.132602 0.5 0 
C 0.5 -0.132602 0.447317 -0.25979 0.353553 -0.353553 
C 0.25979 -0.447317 0.132602 -0.5 0 -0.5 
C -0.132602 -0.5 -0.25979 -0.447317 -0.353553 -0.353553 
C -0.447317 -0.25979 -0.5 -0.132602 -0.5 0 
C -0.5 0.132602 -0.447317 0.25979 -0.353553 0.353553 
C -0.25979 0.447317 -0.132602 0.5 0 0.5 
z
" style="stroke: #ffc61e"/>
    </defs>
    <g clip-path="url(#p4ad2bf649a)">
     <use xlink:href="#m1b6a255299" x="46.23975" y="25.361105" style="fill: #ffc61e; stroke: #ffc61e"/>
     <use xlink:href="#m1b6a255299" x="56.65575" y="31.082529" style="fill: #ffc61e; stroke: #ffc61e"/>
     <use xlink:href="#m1b6a255299" x="67.07175" y="41.029366" style="fill: #ffc61e; stroke: #ffc61e"/>
     <use xlink:href="#m1b6a255299" x="77.48775" y="55.90806" style="fill: #ffc61e; stroke: #ffc61e"/>
     <use xlink:href="#m1b6a255299" x="87.90375" y="54.354899" style="fill: #ffc61e; stroke: #ffc61e"/>
     <use xlink:href="#m1b6a255299" x="98.31975" y="60.521483" style="fill: #ffc61e; stroke: #ffc61e"/>
     <use xlink:href="#m1b6a255299" x="108.73575" y="73.063896" style="fill: #ffc61e; stroke: #ffc61e"/>
     <use xlink:href="#m1b6a255299" x="119.15175" y="74.687308" style="fill: #ffc61e; stroke: #ffc61e"/>
     <use xlink:href="#m1b6a255299" x="129.56775" y="81.434052" style="fill: #ffc61e; stroke: #ffc61e"/>
     <use xlink:href="#m1b6a255299" x="139.98375" y="84.451982" style="fill: #ffc61e; stroke: #ffc61e"/>
     <use xlink:href="#m1b6a255299" x="150.39975" y="86.328397" style="fill: #ffc61e; stroke: #ffc61e"/>
     <use xlink:href="#m1b6a255299" x="160.81575" y="88.55978" style="fill: #ffc61e; stroke: #ffc61e"/>
     <use xlink:href="#m1b6a255299" x="171.23175" y="90.753746" style="fill: #ffc61e; stroke: #ffc61e"/>
     <use xlink:href="#m1b6a255299" x="181.64775" y="92.901945" style="fill: #ffc61e; stroke: #ffc61e"/>
     <use xlink:href="#m1b6a255299" x="192.06375" y="95.094173" style="fill: #ffc61e; stroke: #ffc61e"/>
    </g>
   </g>
   <g id="patch_3">
    <path d="M 35.82375 132.008 
L 35.82375 10.04 
" style="fill: none; stroke: #000000; stroke-width: 0.6; stroke-linejoin: miter; stroke-linecap: square"/>
   </g>
   <g id="patch_4">
    <path d="M 35.82375 132.008 
L 192.06375 132.008 
" style="fill: none; stroke: #000000; stroke-width: 0.6; stroke-linejoin: miter; stroke-linecap: square"/>
   </g>
   <g id="legend_1">
    <g id="line2d_41">
     <path d="M 199.26375 20.12 
L 206.66375 20.12 
L 214.06375 20.12 
" style="fill: none; stroke: #ff1f5b; stroke-linecap: square"/>
     <g>
      <use xlink:href="#m26fe5d0e85" x="206.66375" y="20.12" style="fill: #ff1f5b; stroke: #ff1f5b"/>
     </g>
    </g>
    <g id="text_14">
     <!-- 1 levels -->
     <g transform="translate(220.46375 22.92)scale(0.08 -0.08)">
      <defs>
       <path id="MyriadPro-Regular-20" transform="scale(0.015625)"/>
       <path id="MyriadPro-Regular-76" d="M 83 3098 
L 1261 0 
L 1798 0 
L 3014 3098 
L 2426 3098 
L 1824 1363 
C 1722 1075 1632 819 1562 563 
L 1542 563 
C 1478 819 1395 1075 1293 1363 
L 685 3098 
L 83 3098 
z
" transform="scale(0.015625)"/>
      </defs>
      <use xlink:href="#MyriadPro-Regular-31"/>
      <use xlink:href="#MyriadPro-Regular-20" x="51.299988"/>
      <use xlink:href="#MyriadPro-Regular-6c" x="72.499985"/>
      <use xlink:href="#MyriadPro-Regular-65" x="96.099976"/>
      <use xlink:href="#MyriadPro-Regular-76" x="146.199966"/>
      <use xlink:href="#MyriadPro-Regular-65" x="194.299957"/>
      <use xlink:href="#MyriadPro-Regular-6c" x="244.399948"/>
      <use xlink:href="#MyriadPro-Regular-73" x="267.999939"/>
     </g>
    </g>
    <g id="line2d_42">
     <path d="M 199.26375 31.38375 
L 206.66375 31.38375 
L 214.06375 31.38375 
" style="fill: none; stroke: #00cd6c; stroke-linecap: square"/>
     <g>
      <use xlink:href="#m8f4b5e3020" x="206.66375" y="31.38375" style="fill: #00cd6c; stroke: #00cd6c"/>
     </g>
    </g>
    <g id="text_15">
     <!-- 2 levels -->
     <g transform="translate(220.46375 34.18375)scale(0.08 -0.08)">
      <use xlink:href="#MyriadPro-Regular-32"/>
      <use xlink:href="#MyriadPro-Regular-20" x="51.299988"/>
      <use xlink:href="#MyriadPro-Regular-6c" x="72.499985"/>
      <use xlink:href="#MyriadPro-Regular-65" x="96.099976"/>
      <use xlink:href="#MyriadPro-Regular-76" x="146.199966"/>
      <use xlink:href="#MyriadPro-Regular-65" x="194.299957"/>
      <use xlink:href="#MyriadPro-Regular-6c" x="244.399948"/>
      <use xlink:href="#MyriadPro-Regular-73" x="267.999939"/>
     </g>
    </g>
    <g id="line2d_43">
     <path d="M 199.26375 42.6475 
L 206.66375 42.6475 
L 214.06375 42.6475 
" style="fill: none; stroke: #009ade; stroke-linecap: square"/>
     <g>
      <use xlink:href="#m2fdb4b4850" x="206.66375" y="42.6475" style="fill: #009ade; stroke: #009ade"/>
     </g>
    </g>
    <g id="text_16">
     <!-- 3 levels -->
     <g transform="translate(220.46375 45.4475)scale(0.08 -0.08)">
      <use xlink:href="#MyriadPro-Regular-33"/>
      <use xlink:href="#MyriadPro-Regular-20" x="51.299988"/>
      <use xlink:href="#MyriadPro-Regular-6c" x="72.499985"/>
      <use xlink:href="#MyriadPro-Regular-65" x="96.099976"/>
      <use xlink:href="#MyriadPro-Regular-76" x="146.199966"/>
      <use xlink:href="#MyriadPro-Regular-65" x="194.299957"/>
      <use xlink:href="#MyriadPro-Regular-6c" x="244.399948"/>
      <use xlink:href="#MyriadPro-Regular-73" x="267.999939"/>
     </g>
    </g>
    <g id="line2d_44">
     <path d="M 199.26375 53.91125 
L 206.66375 53.91125 
L 214.06375 53.91125 
" style="fill: none; stroke: #af58ba; stroke-linecap: square"/>
     <g>
      <use xlink:href="#m27cd4bb045" x="206.66375" y="53.91125" style="fill: #af58ba; stroke: #af58ba"/>
     </g>
    </g>
    <g id="text_17">
     <!-- 4 levels -->
     <g transform="translate(220.46375 56.71125)scale(0.08 -0.08)">
      <defs>
       <path id="MyriadPro-Regular-34" d="M 2560 0 
L 2560 1139 
L 3142 1139 
L 3142 1574 
L 2560 1574 
L 2560 4160 
L 1952 4160 
L 96 1504 
L 96 1139 
L 2029 1139 
L 2029 0 
L 2560 0 
z
M 666 1574 
L 666 1587 
L 1683 3002 
C 1798 3194 1901 3373 2029 3616 
L 2048 3616 
C 2035 3398 2029 3181 2029 2963 
L 2029 1574 
L 666 1574 
z
" transform="scale(0.015625)"/>
      </defs>
      <use xlink:href="#MyriadPro-Regular-34"/>
      <use xlink:href="#MyriadPro-Regular-20" x="51.299988"/>
      <use xlink:href="#MyriadPro-Regular-6c" x="72.499985"/>
      <use xlink:href="#MyriadPro-Regular-65" x="96.099976"/>
      <use xlink:href="#MyriadPro-Regular-76" x="146.199966"/>
      <use xlink:href="#MyriadPro-Regular-65" x="194.299957"/>
      <use xlink:href="#MyriadPro-Regular-6c" x="244.399948"/>
      <use xlink:href="#MyriadPro-Regular-73" x="267.999939"/>
     </g>
    </g>
    <g id="line2d_45">
     <path d="M 199.26375 65.175 
L 206.66375 65.175 
L 214.06375 65.175 
" style="fill: none; stroke: #ffc61e; stroke-linecap: square"/>
     <g>
      <use xlink:href="#m1b6a255299" x="206.66375" y="65.175" style="fill: #ffc61e; stroke: #ffc61e"/>
     </g>
    </g>
    <g id="text_18">
     <!-- 5 levels -->
     <g transform="translate(220.46375 67.975)scale(0.08 -0.08)">
      <use xlink:href="#MyriadPro-Regular-35"/>
      <use xlink:href="#MyriadPro-Regular-20" x="51.299988"/>
      <use xlink:href="#MyriadPro-Regular-6c" x="72.499985"/>
      <use xlink:href="#MyriadPro-Regular-65" x="96.099976"/>
      <use xlink:href="#MyriadPro-Regular-76" x="146.199966"/>
      <use xlink:href="#MyriadPro-Regular-65" x="194.299957"/>
      <use xlink:href="#MyriadPro-Regular-6c" x="244.399948"/>
      <use xlink:href="#MyriadPro-Regular-73" x="267.999939"/>
     </g>
    </g>
   </g>
  </g>
 </g>
 <defs>
  <clipPath id="p4ad2bf649a">
   <rect x="35.82375" y="10.04" width="156.24" height="121.968"/>
  </clipPath>
 </defs>
</svg>
