<?xml version="1.0" encoding="utf-8" standalone="no"?>
<!DOCTYPE svg PUBLIC "-//W3C//DTD SVG 1.1//EN"
  "http://www.w3.org/Graphics/SVG/1.1/DTD/svg11.dtd">
<svg xmlns:xlink="http://www.w3.org/1999/xlink" width="258.82875pt" height="163.7355pt" viewBox="0 0 258.82875 163.7355" xmlns="http://www.w3.org/2000/svg" version="1.1">
 <metadata>
  <rdf:RDF xmlns:dc="http://purl.org/dc/elements/1.1/" xmlns:cc="http://creativecommons.org/ns#" xmlns:rdf="http://www.w3.org/1999/02/22-rdf-syntax-ns#">
   <cc:Work>
    <dc:type rdf:resource="http://purl.org/dc/dcmitype/StillImage"/>
    <dc:date>2023-02-09T17:16:42.417130</dc:date>
    <dc:format>image/svg+xml</dc:format>
    <dc:creator>
     <cc:Agent>
      <dc:title>Matplotlib v3.6.3, https://matplotlib.org/</dc:title>
     </cc:Agent>
    </dc:creator>
   </cc:Work>
  </rdf:RDF>
 </metadata>
 <defs>
  <style type="text/css">*{stroke-linejoin: round; stroke-linecap: butt}</style>
 </defs>
 <g id="figure_1">
  <g id="patch_1">
   <path d="M 0 163.7355 
L 258.82875 163.7355 
L 258.82875 -0 
L 0 -0 
L 0 163.7355 
z
" style="fill: none"/>
  </g>
  <g id="axes_1">
   <g id="patch_2">
    <path d="M 39.18375 132.008 
L 195.42375 132.008 
L 195.42375 10.04 
L 39.18375 10.04 
L 39.18375 132.008 
z
" style="fill: none"/>
   </g>
   <g id="matplotlib.axis_1">
    <g id="xtick_1">
     <g id="line2d_1">
      <defs>
       <path id="m4cd371f86f" d="M 0 0 
L 0 2.5 
" style="stroke: #000000; stroke-width: 0.6"/>
      </defs>
      <g>
       <use xlink:href="#m4cd371f86f" x="39.18375" y="132.008" style="stroke: #000000; stroke-width: 0.6"/>
      </g>
     </g>
     <g id="text_1">
      <!-- 0 -->
      <g transform="translate(37.131875 143.688) scale(0.08 -0.08)">
       <defs>
        <path id="MyriadPro-Regular-30" d="M 1683 4230 
C 838 4230 230 3469 230 2067 
C 243 691 800 -70 1613 -70 
C 2528 -70 3059 710 3059 2125 
C 3059 3450 2554 4230 1683 4230 
z
M 1645 3795 
C 2234 3795 2490 3123 2490 2099 
C 2490 1037 2214 365 1645 365 
C 1133 365 800 979 800 2061 
C 800 3194 1158 3795 1645 3795 
z
" transform="scale(0.015625)"/>
       </defs>
       <use xlink:href="#MyriadPro-Regular-30"/>
      </g>
     </g>
    </g>
    <g id="xtick_2">
     <g id="line2d_2">
      <g>
       <use xlink:href="#m4cd371f86f" x="65.22375" y="132.008" style="stroke: #000000; stroke-width: 0.6"/>
      </g>
     </g>
     <g id="text_2">
      <!-- 1000 -->
      <g transform="translate(57.01625 143.688) scale(0.08 -0.08)">
       <defs>
        <path id="MyriadPro-Regular-31" d="M 1510 0 
L 2054 0 
L 2054 4160 
L 1574 4160 
L 666 3674 
L 774 3245 
L 1498 3635 
L 1510 3635 
L 1510 0 
z
" transform="scale(0.015625)"/>
       </defs>
       <use xlink:href="#MyriadPro-Regular-31"/>
       <use xlink:href="#MyriadPro-Regular-30" x="51.299988"/>
       <use xlink:href="#MyriadPro-Regular-30" x="102.599976"/>
       <use xlink:href="#MyriadPro-Regular-30" x="153.899963"/>
      </g>
     </g>
    </g>
    <g id="xtick_3">
     <g id="line2d_3">
      <g>
       <use xlink:href="#m4cd371f86f" x="91.26375" y="132.008" style="stroke: #000000; stroke-width: 0.6"/>
      </g>
     </g>
     <g id="text_3">
      <!-- 2000 -->
      <g transform="translate(83.05625 143.688) scale(0.08 -0.08)">
       <defs>
        <path id="MyriadPro-Regular-32" d="M 2944 0 
L 2944 467 
L 1082 467 
L 1082 480 
L 1408 787 
C 2285 1632 2842 2253 2842 3021 
C 2842 3616 2464 4230 1568 4230 
C 1094 4230 678 4045 397 3808 
L 576 3411 
C 768 3571 1082 3763 1459 3763 
C 2080 3763 2278 3373 2278 2950 
C 2278 2323 1792 1786 730 774 
L 288 346 
L 288 0 
L 2944 0 
z
" transform="scale(0.015625)"/>
       </defs>
       <use xlink:href="#MyriadPro-Regular-32"/>
       <use xlink:href="#MyriadPro-Regular-30" x="51.299988"/>
       <use xlink:href="#MyriadPro-Regular-30" x="102.599976"/>
       <use xlink:href="#MyriadPro-Regular-30" x="153.899963"/>
      </g>
     </g>
    </g>
    <g id="xtick_4">
     <g id="line2d_4">
      <g>
       <use xlink:href="#m4cd371f86f" x="117.30375" y="132.008" style="stroke: #000000; stroke-width: 0.6"/>
      </g>
     </g>
     <g id="text_4">
      <!-- 3000 -->
      <g transform="translate(109.09625 143.688) scale(0.08 -0.08)">
       <defs>
        <path id="MyriadPro-Regular-33" d="M 269 211 
C 474 77 883 -70 1350 -70 
C 2342 -70 2867 512 2867 1178 
C 2861 1760 2451 2144 1939 2240 
L 1939 2253 
C 2445 2438 2707 2803 2707 3238 
C 2707 3744 2336 4230 1517 4230 
C 1069 4230 646 4070 422 3910 
L 576 3501 
C 755 3629 1075 3776 1408 3776 
C 1926 3776 2138 3482 2138 3149 
C 2138 2656 1619 2445 1210 2445 
L 896 2445 
L 896 2022 
L 1210 2022 
C 1754 2022 2278 1773 2285 1190 
C 2291 838 2061 384 1344 384 
C 947 384 582 544 422 640 
L 269 211 
z
" transform="scale(0.015625)"/>
       </defs>
       <use xlink:href="#MyriadPro-Regular-33"/>
       <use xlink:href="#MyriadPro-Regular-30" x="51.299988"/>
       <use xlink:href="#MyriadPro-Regular-30" x="102.599976"/>
       <use xlink:href="#MyriadPro-Regular-30" x="153.899963"/>
      </g>
     </g>
    </g>
    <g id="xtick_5">
     <g id="line2d_5">
      <g>
       <use xlink:href="#m4cd371f86f" x="143.34375" y="132.008" style="stroke: #000000; stroke-width: 0.6"/>
      </g>
     </g>
     <g id="text_5">
      <!-- 4000 -->
      <g transform="translate(135.13625 143.688) scale(0.08 -0.08)">
       <defs>
        <path id="MyriadPro-Regular-34" d="M 2560 0 
L 2560 1139 
L 3142 1139 
L 3142 1574 
L 2560 1574 
L 2560 4160 
L 1952 4160 
L 96 1504 
L 96 1139 
L 2029 1139 
L 2029 0 
L 2560 0 
z
M 666 1574 
L 666 1587 
L 1683 3002 
C 1798 3194 1901 3373 2029 3616 
L 2048 3616 
C 2035 3398 2029 3181 2029 2963 
L 2029 1574 
L 666 1574 
z
" transform="scale(0.015625)"/>
       </defs>
       <use xlink:href="#MyriadPro-Regular-34"/>
       <use xlink:href="#MyriadPro-Regular-30" x="51.299988"/>
       <use xlink:href="#MyriadPro-Regular-30" x="102.599976"/>
       <use xlink:href="#MyriadPro-Regular-30" x="153.899963"/>
      </g>
     </g>
    </g>
    <g id="xtick_6">
     <g id="line2d_6">
      <g>
       <use xlink:href="#m4cd371f86f" x="169.38375" y="132.008" style="stroke: #000000; stroke-width: 0.6"/>
      </g>
     </g>
     <g id="text_6">
      <!-- 5000 -->
      <g transform="translate(161.17625 143.688) scale(0.08 -0.08)">
       <defs>
        <path id="MyriadPro-Regular-35" d="M 2771 4160 
L 781 4160 
L 512 2163 
C 666 2182 851 2202 1094 2202 
C 1920 2202 2285 1824 2285 1286 
C 2291 730 1830 384 1306 384 
C 922 384 582 512 410 614 
L 269 186 
C 474 58 851 -70 1306 -70 
C 2208 -70 2854 538 2854 1350 
C 2854 1869 2586 2234 2259 2413 
C 2003 2573 1690 2637 1363 2637 
C 1210 2637 1120 2630 1024 2618 
L 1184 3686 
L 2771 3686 
L 2771 4160 
z
" transform="scale(0.015625)"/>
       </defs>
       <use xlink:href="#MyriadPro-Regular-35"/>
       <use xlink:href="#MyriadPro-Regular-30" x="51.299988"/>
       <use xlink:href="#MyriadPro-Regular-30" x="102.599976"/>
       <use xlink:href="#MyriadPro-Regular-30" x="153.899963"/>
      </g>
     </g>
    </g>
    <g id="xtick_7">
     <g id="line2d_7">
      <g>
       <use xlink:href="#m4cd371f86f" x="195.42375" y="132.008" style="stroke: #000000; stroke-width: 0.6"/>
      </g>
     </g>
     <g id="text_7">
      <!-- 6000 -->
      <g transform="translate(187.21625 143.688) scale(0.08 -0.08)">
       <defs>
        <path id="MyriadPro-Regular-36" d="M 2662 4224 
C 2560 4224 2419 4218 2253 4192 
C 1728 4128 1267 3917 922 3578 
C 506 3168 218 2522 218 1702 
C 218 621 800 -70 1683 -70 
C 2554 -70 3072 634 3072 1402 
C 3072 2208 2554 2746 1818 2746 
C 1357 2746 1005 2528 806 2259 
L 794 2259 
C 890 2950 1350 3590 2240 3731 
C 2400 3757 2547 3770 2662 3763 
L 2662 4224 
z
M 1696 365 
C 1101 365 781 877 774 1562 
C 774 1664 800 1741 832 1805 
C 986 2112 1306 2317 1645 2317 
C 2163 2317 2502 1958 2502 1363 
C 2502 768 2176 365 1696 365 
z
" transform="scale(0.015625)"/>
       </defs>
       <use xlink:href="#MyriadPro-Regular-36"/>
       <use xlink:href="#MyriadPro-Regular-30" x="51.299988"/>
       <use xlink:href="#MyriadPro-Regular-30" x="102.599976"/>
       <use xlink:href="#MyriadPro-Regular-30" x="153.899963"/>
      </g>
     </g>
    </g>
    <g id="text_8">
     <!-- epoch -->
     <g transform="translate(106.815625 154.95175) scale(0.08 -0.08)">
      <defs>
       <path id="MyriadPro-Regular-65" d="M 2957 1446 
C 2970 1510 2976 1594 2976 1709 
C 2976 2278 2714 3162 1696 3162 
C 794 3162 243 2432 243 1498 
C 243 563 813 -70 1766 -70 
C 2259 -70 2605 38 2803 128 
L 2701 531 
C 2496 442 2246 371 1843 371 
C 1274 371 794 685 781 1446 
L 2957 1446 
z
M 787 1850 
C 832 2240 1075 2758 1651 2758 
C 2285 2758 2438 2202 2432 1850 
L 787 1850 
z
" transform="scale(0.015625)"/>
       <path id="MyriadPro-Regular-70" d="M 467 -1267 
L 1024 -1267 
L 1024 416 
L 1037 416 
C 1222 109 1581 -70 1990 -70 
C 2720 -70 3405 480 3405 1594 
C 3405 2528 2842 3162 2086 3162 
C 1581 3162 1210 2944 986 2566 
L 973 2566 
L 941 3098 
L 442 3098 
C 454 2803 467 2483 467 2086 
L 467 -1267 
z
M 1024 1798 
C 1024 1869 1043 1952 1062 2022 
C 1165 2445 1530 2714 1914 2714 
C 2509 2714 2835 2182 2835 1568 
C 2835 858 2490 371 1894 371 
C 1491 371 1152 640 1050 1030 
C 1030 1101 1024 1178 1024 1261 
L 1024 1798 
z
" transform="scale(0.015625)"/>
       <path id="MyriadPro-Regular-6f" d="M 1779 3162 
C 928 3162 243 2554 243 1523 
C 243 544 896 -70 1728 -70 
C 2470 -70 3270 429 3270 1574 
C 3270 2515 2669 3162 1779 3162 
z
M 1766 2739 
C 2432 2739 2694 2080 2694 1555 
C 2694 858 2291 352 1754 352 
C 1203 352 819 864 819 1542 
C 819 2125 1107 2739 1766 2739 
z
" transform="scale(0.015625)"/>
       <path id="MyriadPro-Regular-63" d="M 2579 531 
C 2419 461 2208 384 1888 384 
C 1274 384 813 826 813 1542 
C 813 2182 1197 2714 1907 2714 
C 2214 2714 2426 2637 2560 2566 
L 2688 2995 
C 2534 3078 2240 3162 1907 3162 
C 896 3162 243 2464 243 1510 
C 243 563 851 -70 1786 -70 
C 2202 -70 2528 38 2675 109 
L 2579 531 
z
" transform="scale(0.015625)"/>
       <path id="MyriadPro-Regular-68" d="M 467 0 
L 1030 0 
L 1030 1869 
C 1030 1971 1037 2054 1069 2138 
C 1178 2438 1459 2694 1824 2694 
C 2355 2694 2541 2278 2541 1779 
L 2541 0 
L 3104 0 
L 3104 1843 
C 3104 2906 2438 3162 2022 3162 
C 1811 3162 1613 3104 1446 3008 
C 1274 2912 1133 2765 1043 2605 
L 1030 2605 
L 1030 4544 
L 467 4544 
L 467 0 
z
" transform="scale(0.015625)"/>
      </defs>
      <use xlink:href="#MyriadPro-Regular-65"/>
      <use xlink:href="#MyriadPro-Regular-70" x="50.099991"/>
      <use xlink:href="#MyriadPro-Regular-6f" x="106.999985"/>
      <use xlink:href="#MyriadPro-Regular-63" x="161.899979"/>
      <use xlink:href="#MyriadPro-Regular-68" x="206.699966"/>
     </g>
    </g>
   </g>
   <g id="matplotlib.axis_2">
    <g id="ytick_1">
     <g id="line2d_8">
      <defs>
       <path id="m56f3a9ced1" d="M 0 0 
L -2.5 0 
" style="stroke: #000000; stroke-width: 0.6"/>
      </defs>
      <g>
       <use xlink:href="#m56f3a9ced1" x="39.18375" y="132.008" style="stroke: #000000; stroke-width: 0.6"/>
      </g>
     </g>
     <g id="text_9">
      <!-- $\mathdefault{10^{-5}}$ -->
      <g transform="translate(18.46375 134.848) scale(0.08 -0.08)">
       <defs>
        <path id="MyriadPro-Regular-2212" d="M 256 1901 
L 256 1517 
L 3558 1517 
L 3558 1901 
L 256 1901 
z
" transform="scale(0.015625)"/>
       </defs>
       <use xlink:href="#MyriadPro-Regular-31" transform="translate(0 0.615625)"/>
       <use xlink:href="#MyriadPro-Regular-30" transform="translate(51.299988 0.615625)"/>
       <use xlink:href="#MyriadPro-Regular-2212" transform="translate(103.447085 34.5) scale(0.7)"/>
       <use xlink:href="#MyriadPro-Regular-35" transform="translate(145.167079 34.5) scale(0.7)"/>
      </g>
     </g>
    </g>
    <g id="ytick_2">
     <g id="line2d_9">
      <g>
       <use xlink:href="#m56f3a9ced1" x="39.18375" y="91.352" style="stroke: #000000; stroke-width: 0.6"/>
      </g>
     </g>
     <g id="text_10">
      <!-- $\mathdefault{10^{-3}}$ -->
      <g transform="translate(18.46375 94.192) scale(0.08 -0.08)">
       <use xlink:href="#MyriadPro-Regular-31" transform="translate(0 0.85)"/>
       <use xlink:href="#MyriadPro-Regular-30" transform="translate(51.299988 0.85)"/>
       <use xlink:href="#MyriadPro-Regular-2212" transform="translate(103.447085 34.734375) scale(0.7)"/>
       <use xlink:href="#MyriadPro-Regular-33" transform="translate(145.167079 34.734375) scale(0.7)"/>
      </g>
     </g>
    </g>
    <g id="ytick_3">
     <g id="line2d_10">
      <g>
       <use xlink:href="#m56f3a9ced1" x="39.18375" y="50.696" style="stroke: #000000; stroke-width: 0.6"/>
      </g>
     </g>
     <g id="text_11">
      <!-- $\mathdefault{10^{-1}}$ -->
      <g transform="translate(18.46375 53.536) scale(0.08 -0.08)">
       <use xlink:href="#MyriadPro-Regular-31" transform="translate(0 0.615625)"/>
       <use xlink:href="#MyriadPro-Regular-30" transform="translate(51.299988 0.615625)"/>
       <use xlink:href="#MyriadPro-Regular-2212" transform="translate(103.447085 34.5) scale(0.7)"/>
       <use xlink:href="#MyriadPro-Regular-31" transform="translate(145.167079 34.5) scale(0.7)"/>
      </g>
     </g>
    </g>
    <g id="ytick_4">
     <g id="line2d_11">
      <g>
       <use xlink:href="#m56f3a9ced1" x="39.18375" y="10.04" style="stroke: #000000; stroke-width: 0.6"/>
      </g>
     </g>
     <g id="text_12">
      <!-- $\mathdefault{10^{1}}$ -->
      <g transform="translate(21.82375 12.88) scale(0.08 -0.08)">
       <use xlink:href="#MyriadPro-Regular-31" transform="translate(0 0.615625)"/>
       <use xlink:href="#MyriadPro-Regular-30" transform="translate(51.299988 0.615625)"/>
       <use xlink:href="#MyriadPro-Regular-31" transform="translate(103.447085 34.5) scale(0.7)"/>
      </g>
     </g>
    </g>
    <g id="text_13">
     <!-- loss -->
     <g transform="translate(12.88 77.3315) rotate(-90) scale(0.08 -0.08)">
      <defs>
       <path id="MyriadPro-Regular-6c" d="M 467 0 
L 1030 0 
L 1030 4544 
L 467 4544 
L 467 0 
z
" transform="scale(0.015625)"/>
       <path id="MyriadPro-Regular-73" d="M 256 147 
C 474 19 787 -70 1126 -70 
C 1850 -70 2278 314 2278 864 
C 2278 1325 1997 1594 1466 1792 
C 1062 1952 883 2067 883 2323 
C 883 2554 1062 2746 1395 2746 
C 1683 2746 1907 2637 2029 2560 
L 2163 2970 
C 1997 3078 1722 3162 1408 3162 
C 749 3162 339 2752 339 2253 
C 339 1882 602 1581 1165 1376 
C 1574 1222 1734 1082 1734 813 
C 1734 550 1542 352 1139 352 
C 858 352 563 467 390 570 
L 256 147 
z
" transform="scale(0.015625)"/>
      </defs>
      <use xlink:href="#MyriadPro-Regular-6c"/>
      <use xlink:href="#MyriadPro-Regular-6f" x="23.599991"/>
      <use xlink:href="#MyriadPro-Regular-73" x="78.499985"/>
      <use xlink:href="#MyriadPro-Regular-73" x="118.099976"/>
     </g>
    </g>
   </g>
   <g id="line2d_12">
    <path d="M 39.44415 21.239168 
L 39.96495 28.17858 
L 40.48575 31.703603 
L 41.26695 35.146675 
L 42.04815 37.448609 
L 43.08975 39.705876 
L 44.13135 41.477089 
L 45.43335 43.379505 
L 46.99575 45.191447 
L 47.51655 45.664103 
L 48.03735 46.131274 
L 50.90175 48.202028 
L 56.10975 51.241373 
L 58.97415 52.400034 
L 62.09895 53.768687 
L 64.18215 54.480814 
L 67.56735 55.695526 
L 71.47335 57.345776 
L 73.03575 58.142253 
L 75.37935 58.997687 
L 77.72295 59.642372 
L 83.19135 61.165497 
L 85.27455 61.915615 
L 87.87855 62.848815 
L 89.70135 63.464257 
L 91.00335 64.1637 
L 93.34695 65.593056 
L 94.90935 66.577703 
L 96.99255 67.918597 
L 98.03415 68.588864 
L 102.72135 71.518219 
L 104.02335 72.355692 
L 104.80455 72.98451 
L 106.36695 74.64138 
L 109.75215 78.386459 
L 111.31455 79.613076 
L 113.91855 81.528681 
L 115.22055 82.881027 
L 118.08495 86.212428 
L 121.73055 90.000715 
L 123.29295 91.695326 
L 124.07415 92.324 
L 125.89695 93.334095 
L 128.76135 94.63283 
L 130.58415 95.201444 
L 133.18815 95.629972 
L 137.61495 96.292519 
L 138.91695 96.735975 
L 139.95855 97.216882 
L 141.78135 98.525467 
L 143.34375 99.955382 
L 146.72895 103.638932 
L 148.55175 105.007436 
L 155.06175 109.294658 
L 158.18655 111.036666 
L 160.53015 112.446258 
L 162.35295 113.410064 
L 166.25895 115.070962 
L 169.64415 117.704847 
L 171.20655 118.557742 
L 175.11255 120.563986 
L 176.67495 121.331149 
L 178.23735 121.836887 
L 180.32055 122.344342 
L 180.32055 122.344342 
" clip-path="url(#p39a738c68d)" style="fill: none; stroke: #ff1f5b; stroke-linecap: square"/>
   </g>
   <g id="line2d_13">
    <path d="M 39.44415 25.74982 
L 39.96495 33.403745 
L 40.48575 37.225236 
L 41.26695 40.783045 
L 42.04815 43.365027 
L 42.82935 45.315421 
L 43.87095 47.247597 
L 46.73535 51.055477 
L 47.51655 51.784453 
L 48.29775 52.455297 
L 49.59975 53.751524 
L 50.90175 54.694771 
L 54.28695 57.686624 
L 55.58895 58.879098 
L 56.89095 59.712035 
L 58.97415 60.977375 
L 62.61975 63.82114 
L 63.40095 64.81324 
L 69.39015 73.579969 
L 71.47335 78.482381 
L 72.25455 80.314756 
L 73.29615 81.960398 
L 74.33775 84.399538 
L 75.63975 87.726359 
L 78.24375 95.592743 
L 79.28535 98.050209 
L 80.32695 100.477117 
L 81.10815 102.071561 
L 81.88935 103.179123 
L 83.19135 104.35714 
L 85.53495 106.123737 
L 86.31615 107.309955 
L 87.61815 109.537071 
L 88.39935 110.800819 
L 89.44095 111.950948 
L 90.74295 112.898586 
L 92.04495 113.554519 
L 94.38855 114.38975 
L 101.41935 116.047547 
L 105.32535 116.747025 
L 106.88775 117.154248 
L 111.83535 119.050628 
L 114.96015 120.845396 
L 117.82455 122.331264 
L 117.82455 122.331264 
" clip-path="url(#p39a738c68d)" style="fill: none; stroke: #00cd6c; stroke-linecap: square"/>
   </g>
   <g id="line2d_14">
    <path d="M 39.44415 28.270352 
L 39.96495 37.834863 
L 40.74615 43.493115 
L 41.26695 45.772525 
L 41.78775 47.618955 
L 42.56895 49.758945 
L 44.13135 52.967721 
L 48.29775 59.875942 
L 49.59975 61.490119 
L 51.42255 64.570627 
L 51.94335 65.783074 
L 53.50575 70.514116 
L 54.54735 73.510122 
L 55.06815 75.38191 
L 56.37015 81.4743 
L 57.15135 84.33385 
L 57.67215 86.393953 
L 59.23455 94.111807 
L 60.27615 96.935189 
L 61.05735 97.758261 
L 62.09895 98.528571 
L 62.61975 98.876233 
L 62.88015 99.169023 
L 63.40095 100.295921 
L 63.92175 101.783469 
L 64.96335 105.448857 
L 66.52575 108.941204 
L 68.34855 114.122461 
L 72.51495 122.681524 
L 74.59815 125.348743 
L 75.37935 126.306887 
L 77.46255 128.317186 
L 77.46255 128.317186 
" clip-path="url(#p39a738c68d)" style="fill: none; stroke: #009ade; stroke-linecap: square"/>
   </g>
   <g id="line2d_15">
    <path d="M 39.44415 29.629252 
L 39.70455 36.057229 
L 39.96495 41.536065 
L 40.22535 44.010524 
L 40.48575 46.442895 
L 40.74615 48.08242 
L 41.00655 49.026055 
L 41.26695 50.151915 
L 41.52735 51.38331 
L 41.78775 52.35188 
L 42.04815 53.289448 
L 42.30855 54.007698 
L 42.56895 54.660103 
L 42.82935 55.523393 
L 43.08975 56.478522 
L 43.35015 57.153135 
L 43.61055 57.789393 
L 43.87095 58.52134 
L 44.13135 59.381014 
L 44.39175 60.057119 
L 44.65215 60.833869 
L 44.91255 61.663513 
L 45.17295 62.242594 
L 45.43335 62.857942 
L 45.69375 63.70472 
L 45.95415 64.530506 
L 46.21455 65.573891 
L 46.47495 66.6496 
L 46.73535 67.772095 
L 46.99575 68.824203 
L 47.25615 70.173157 
L 47.51655 72.145209 
L 47.77695 73.898157 
L 48.03735 75.216783 
L 48.29775 76.600952 
L 48.55815 78.26359 
L 48.81855 80.117035 
L 49.07895 82.404045 
L 49.33935 84.543838 
L 49.59975 86.79331 
L 49.86015 88.958945 
L 50.12055 91.078298 
L 50.38095 93.325552 
L 50.64135 95.725554 
L 50.90175 97.760428 
L 51.16215 99.83982 
L 51.42255 101.554912 
L 51.68295 103.135259 
L 51.94335 104.381676 
L 52.20375 105.227475 
L 52.46415 105.747345 
L 52.72455 106.259654 
L 52.98495 106.691087 
L 53.24535 107.106498 
L 53.50575 107.62241 
L 53.76615 108.218609 
L 54.02655 109.044819 
L 54.28695 110.079333 
L 54.54735 111.560039 
L 54.80775 112.746073 
L 55.06815 113.442668 
L 55.32855 114.043626 
L 55.58895 114.540291 
L 55.84935 114.924869 
L 56.10975 115.38212 
L 56.37015 115.95516 
L 56.63055 116.752618 
L 56.89095 117.918843 
L 57.15135 119.359892 
L 57.41175 121.280777 
L 57.67215 123.530326 
L 57.93255 125.531513 
L 58.19295 127.281718 
L 58.45335 128.636356 
L 58.71375 129.601881 
L 58.97415 130.495414 
L 59.23455 131.21098 
" clip-path="url(#p39a738c68d)" style="fill: none; stroke: #af58ba; stroke-linecap: square"/>
   </g>
   <g id="line2d_16">
    <path d="M 39.44415 29.470042 
L 39.70455 36.821091 
L 39.96495 43.252765 
L 40.22535 47.365081 
L 40.48575 49.38382 
L 40.74615 50.97997 
L 41.00655 52.185517 
L 41.26695 53.429199 
L 41.52735 54.432726 
L 41.78775 55.456053 
L 42.04815 56.78297 
L 42.30855 57.615945 
L 42.56895 58.37232 
L 42.82935 59.209631 
L 43.08975 60.173664 
L 43.35015 61.27985 
L 43.61055 62.358878 
L 43.87095 63.689792 
L 44.13135 65.101875 
L 44.39175 66.374617 
L 44.65215 67.49139 
L 44.91255 68.779999 
L 45.17295 70.311214 
L 45.43335 72.320202 
L 45.69375 74.259681 
L 45.95415 76.06987 
L 46.21455 77.755261 
L 46.47495 79.023098 
L 46.73535 80.672004 
L 46.99575 82.368368 
L 47.25615 84.336633 
L 47.51655 86.643812 
L 47.77695 89.060952 
L 48.03735 91.357911 
L 48.29775 93.96275 
L 48.55815 96.638203 
L 48.81855 99.466111 
L 49.07895 102.251511 
L 49.33935 104.632477 
L 49.59975 107.063116 
L 49.86015 108.956594 
L 50.12055 110.268125 
L 50.38095 111.204378 
L 50.64135 112.032246 
L 50.90175 112.894994 
L 51.16215 113.899579 
L 51.42255 114.882597 
L 51.68295 115.83688 
L 51.94335 116.644142 
L 52.20375 117.403714 
L 52.46415 118.240602 
L 52.72455 119.3351 
L 52.98495 120.761129 
L 53.24535 122.261841 
L 53.50575 123.668916 
L 53.76615 125.270036 
L 54.02655 126.823313 
L 54.28695 128.103943 
L 54.54735 129.232147 
L 54.80775 130.235111 
L 55.06815 131.038246 
L 55.32855 131.698516 
" clip-path="url(#p39a738c68d)" style="fill: none; stroke: #ffc61e; stroke-linecap: square"/>
   </g>
   <g id="patch_3">
    <path d="M 39.18375 132.008 
L 39.18375 10.04 
" style="fill: none; stroke: #000000; stroke-width: 0.6; stroke-linejoin: miter; stroke-linecap: square"/>
   </g>
   <g id="patch_4">
    <path d="M 39.18375 132.008 
L 195.42375 132.008 
" style="fill: none; stroke: #000000; stroke-width: 0.6; stroke-linejoin: miter; stroke-linecap: square"/>
   </g>
   <g id="legend_1">
    <g id="line2d_17">
     <path d="M 202.62375 20.12 
L 210.02375 20.12 
L 217.42375 20.12 
" style="fill: none; stroke: #ff1f5b; stroke-linecap: square"/>
    </g>
    <g id="text_14">
     <!-- 1 levels -->
     <g transform="translate(223.82375 22.92) scale(0.08 -0.08)">
      <defs>
       <path id="MyriadPro-Regular-20" transform="scale(0.015625)"/>
       <path id="MyriadPro-Regular-76" d="M 83 3098 
L 1261 0 
L 1798 0 
L 3014 3098 
L 2426 3098 
L 1824 1363 
C 1722 1075 1632 819 1562 563 
L 1542 563 
C 1478 819 1395 1075 1293 1363 
L 685 3098 
L 83 3098 
z
" transform="scale(0.015625)"/>
      </defs>
      <use xlink:href="#MyriadPro-Regular-31"/>
      <use xlink:href="#MyriadPro-Regular-20" x="51.299988"/>
      <use xlink:href="#MyriadPro-Regular-6c" x="72.499985"/>
      <use xlink:href="#MyriadPro-Regular-65" x="96.099976"/>
      <use xlink:href="#MyriadPro-Regular-76" x="146.199966"/>
      <use xlink:href="#MyriadPro-Regular-65" x="194.299957"/>
      <use xlink:href="#MyriadPro-Regular-6c" x="244.399948"/>
      <use xlink:href="#MyriadPro-Regular-73" x="267.999939"/>
     </g>
    </g>
    <g id="line2d_18">
     <path d="M 202.62375 31.38375 
L 210.02375 31.38375 
L 217.42375 31.38375 
" style="fill: none; stroke: #00cd6c; stroke-linecap: square"/>
    </g>
    <g id="text_15">
     <!-- 2 levels -->
     <g transform="translate(223.82375 34.18375) scale(0.08 -0.08)">
      <use xlink:href="#MyriadPro-Regular-32"/>
      <use xlink:href="#MyriadPro-Regular-20" x="51.299988"/>
      <use xlink:href="#MyriadPro-Regular-6c" x="72.499985"/>
      <use xlink:href="#MyriadPro-Regular-65" x="96.099976"/>
      <use xlink:href="#MyriadPro-Regular-76" x="146.199966"/>
      <use xlink:href="#MyriadPro-Regular-65" x="194.299957"/>
      <use xlink:href="#MyriadPro-Regular-6c" x="244.399948"/>
      <use xlink:href="#MyriadPro-Regular-73" x="267.999939"/>
     </g>
    </g>
    <g id="line2d_19">
     <path d="M 202.62375 42.6475 
L 210.02375 42.6475 
L 217.42375 42.6475 
" style="fill: none; stroke: #009ade; stroke-linecap: square"/>
    </g>
    <g id="text_16">
     <!-- 3 levels -->
     <g transform="translate(223.82375 45.4475) scale(0.08 -0.08)">
      <use xlink:href="#MyriadPro-Regular-33"/>
      <use xlink:href="#MyriadPro-Regular-20" x="51.299988"/>
      <use xlink:href="#MyriadPro-Regular-6c" x="72.499985"/>
      <use xlink:href="#MyriadPro-Regular-65" x="96.099976"/>
      <use xlink:href="#MyriadPro-Regular-76" x="146.199966"/>
      <use xlink:href="#MyriadPro-Regular-65" x="194.299957"/>
      <use xlink:href="#MyriadPro-Regular-6c" x="244.399948"/>
      <use xlink:href="#MyriadPro-Regular-73" x="267.999939"/>
     </g>
    </g>
    <g id="line2d_20">
     <path d="M 202.62375 53.91125 
L 210.02375 53.91125 
L 217.42375 53.91125 
" style="fill: none; stroke: #af58ba; stroke-linecap: square"/>
    </g>
    <g id="text_17">
     <!-- 4 levels -->
     <g transform="translate(223.82375 56.71125) scale(0.08 -0.08)">
      <use xlink:href="#MyriadPro-Regular-34"/>
      <use xlink:href="#MyriadPro-Regular-20" x="51.299988"/>
      <use xlink:href="#MyriadPro-Regular-6c" x="72.499985"/>
      <use xlink:href="#MyriadPro-Regular-65" x="96.099976"/>
      <use xlink:href="#MyriadPro-Regular-76" x="146.199966"/>
      <use xlink:href="#MyriadPro-Regular-65" x="194.299957"/>
      <use xlink:href="#MyriadPro-Regular-6c" x="244.399948"/>
      <use xlink:href="#MyriadPro-Regular-73" x="267.999939"/>
     </g>
    </g>
    <g id="line2d_21">
     <path d="M 202.62375 65.175 
L 210.02375 65.175 
L 217.42375 65.175 
" style="fill: none; stroke: #ffc61e; stroke-linecap: square"/>
    </g>
    <g id="text_18">
     <!-- 5 levels -->
     <g transform="translate(223.82375 67.975) scale(0.08 -0.08)">
      <use xlink:href="#MyriadPro-Regular-35"/>
      <use xlink:href="#MyriadPro-Regular-20" x="51.299988"/>
      <use xlink:href="#MyriadPro-Regular-6c" x="72.499985"/>
      <use xlink:href="#MyriadPro-Regular-65" x="96.099976"/>
      <use xlink:href="#MyriadPro-Regular-76" x="146.199966"/>
      <use xlink:href="#MyriadPro-Regular-65" x="194.299957"/>
      <use xlink:href="#MyriadPro-Regular-6c" x="244.399948"/>
      <use xlink:href="#MyriadPro-Regular-73" x="267.999939"/>
     </g>
    </g>
   </g>
  </g>
 </g>
 <defs>
  <clipPath id="p39a738c68d">
   <rect x="39.18375" y="10.04" width="156.24" height="121.968"/>
  </clipPath>
 </defs>
</svg>
